<svg xmlns="http://www.w3.org/2000/svg"  width="300.000000pt" height="300.000000pt" viewBox="0 0 300.000000 300.000000"  preserveAspectRatio="xMidYMid meet">  <g transform="translate(0.000000,300.000000) scale(0.050000,-0.050000)" fill="#000000" stroke="none"> <path d="M1842 5758 c-38 -8 -76 -29 -86 -46 -10 -18 -30 -32 -45 -32 -15 0 -25 -16 -24 -35 2 -19 -9 -33 -24 -29 -18 3 -22 -8 -12 -38 7 -24 5 -38 -5 -32 -10 6 -17 -84 -16 -207 1 -160 -5 -221 -24 -228 -14 -5 -26 -24 -26 -40 0 -17 -10 -31 -21 -31 -12 0 -16 -8 -10 -18 6 -10 -7 -14 -29 -8 -29 8 -45 -2 -57 -37 -40 -106 8 -101 128 13 86 81 149 119 120 72 -6 -11 2 -22 17 -25 25 -6 25 -12 0 -47 -25 -33 -32 -35 -48 -11 -25 41 -240 -206 -367 -422 -61 -105 -64 -117 -23 -117 40 0 38 -29 -4 -63 -22 -18 -29 -19 -19 -2 10 17 5 21 -16 13 -17 -7 -31 -22 -31 -34 0 -12 -13 -4 -28 17 -20 27 -22 47 -9 63 11 13 16 31 11 40 -6 9 20 47 58 85 39 40 68 89 68 117 0 33 9 45 28 37 30 -11 60 36 56 87 -2 20 1 22 8 5 14 -30 48 -13 48 24 0 32 -100 35 -101 4 0 -13 -9 -7 -21 12 -11 20 -30 30 -42 22 -13 -8 -16 -4 -8 10 8 13 7 23 -3 23 -9 0 -52 32 -94 71 l-77 70 -44 -41 c-23 -22 -49 -34 -56 -27 -8 8 -14 1 -14 -15 0 -15 -27 -57 -58 -93 -52 -59 -69 -164 -21 -135 41 26 51 -100 13 -166 -21 -36 -33 -71 -26 -78 6 -7 12 -1 12 13 0 15 13 20 33 13 26 -10 28 -7 10 15 -18 21 -17 33 4 51 22 18 31 16 41 -9 6 -17 22 -25 34 -17 14 8 19 3 13 -14 -5 -15 -20 -26 -33 -23 -12 3 -22 -3 -22 -14 0 -10 -16 -22 -35 -27 -32 -9 -32 -10 1 -12 20 -1 31 -10 25 -20 -6 -10 3 -23 19 -29 17 -7 31 -1 32 13 8 77 37 137 60 123 10 -7 14 -20 7 -30 -6 -10 4 -13 23 -5 26 10 30 6 17 -15 -27 -44 -25 -96 4 -108 48 -18 30 -56 -21 -43 -45 11 -75 -17 -80 -76 -3 -26 -52 -40 -52 -15 0 11 9 26 20 33 12 7 15 23 7 34 -8 14 -4 16 13 6 17 -11 21 -8 12 7 -22 35 -32 28 -55 -37 -32 -91 -122 -25 -109 80 5 39 5 54 -1 35 -12 -43 -59 -46 -74 -5 -7 17 -26 30 -42 30 -17 0 -31 10 -31 22 0 12 -26 55 -58 96 -32 40 -61 91 -65 112 -4 22 -16 51 -27 64 -11 14 -30 37 -43 52 -12 15 -28 46 -35 69 -8 23 -27 52 -43 66 -24 20 -25 30 -4 55 20 26 20 29 -1 16 -17 -10 -36 -3 -52 19 -77 105 -102 -83 -34 -257 28 -72 28 -114 0 -74 -34 49 0 -60 42 -133 20 -35 157 -215 304 -400 148 -185 396 -499 551 -697 156 -198 387 -489 514 -647 127 -158 231 -293 232 -300 3 -73 104 -85 219 -25 138 72 148 74 122 26 -11 -21 -54 -48 -96 -61 -42 -13 -103 -47 -136 -76 l-60 -52 80 44 c77 43 78 43 32 3 -26 -24 -71 -47 -100 -53 -78 -17 -111 -39 -119 -81 -7 -32 -4 -33 26 -9 26 21 23 10 -9 -45 -24 -41 -53 -74 -65 -74 -12 0 -5 18 15 40 74 82 10 60 -82 -29 -52 -50 -97 -91 -98 -91 -21 0 13 93 41 114 22 15 39 36 39 46 0 25 149 160 178 161 35 1 97 55 85 74 -15 24 -83 18 -116 -10 -90 -74 -119 -56 -285 164 -87 115 -167 204 -178 197 -12 -7 -14 -2 -5 12 18 30 -26 86 -54 69 -12 -8 -15 -4 -7 10 17 27 -82 164 -114 157 -12 -2 -23 14 -23 36 -1 22 -13 38 -27 35 -15 -4 -22 1 -17 10 15 24 -20 75 -51 76 -14 0 -23 13 -20 27 8 36 -36 85 -61 69 -12 -8 -15 -4 -7 10 18 29 -86 167 -113 150 -12 -7 -15 -4 -8 8 7 11 -6 42 -29 68 -22 26 -34 34 -26 19 9 -19 6 -23 -9 -14 -13 8 -18 24 -11 35 16 26 -52 100 -78 83 -11 -7 -14 -2 -6 11 18 29 -86 167 -113 150 -12 -7 -15 -4 -8 8 7 12 -64 124 -159 248 -254 333 -315 496 -241 639 22 42 22 51 1 51 -34 0 -57 -148 -40 -259 9 -59 7 -75 -7 -54 -24 35 -25 261 -3 490 16 165 13 204 -11 138 -7 -21 -29 -56 -48 -78 -20 -22 -38 -62 -42 -90 -4 -27 -14 -55 -22 -61 -41 -31 -73 -236 -53 -342 12 -59 26 -140 31 -181 8 -56 18 -70 42 -61 20 7 27 4 18 -10 -7 -12 0 -35 16 -51 16 -16 24 -35 17 -42 -7 -6 -2 -12 12 -12 13 0 19 -9 12 -21 -8 -11 14 -49 48 -84 45 -46 55 -67 37 -79 -19 -11 -17 -15 6 -16 16 0 43 -19 60 -42 16 -24 54 -75 85 -114 30 -39 52 -81 48 -92 -4 -12 7 -34 24 -48 19 -16 21 -21 4 -12 -18 9 -23 6 -14 -8 7 -12 26 -17 43 -11 16 6 29 3 29 -8 0 -10 23 -29 51 -42 28 -13 46 -32 39 -43 -7 -11 -2 -20 10 -20 12 0 17 -9 9 -21 -7 -11 -4 -32 6 -45 32 -40 42 -112 18 -120 -15 -5 -10 -20 12 -42 19 -19 35 -62 35 -94 0 -33 14 -92 30 -132 17 -40 25 -89 19 -109 -8 -24 0 -42 21 -50 22 -8 30 -31 26 -70 -3 -32 4 -65 15 -73 24 -16 81 -146 74 -169 -3 -8 4 -15 15 -15 27 0 102 -151 84 -171 -8 -8 -4 -10 9 -2 19 11 43 -18 56 -67 17 -63 38 -98 63 -108 17 -6 25 -21 18 -32 -7 -12 -6 -20 4 -18 55 9 70 -5 62 -61 -5 -32 -2 -55 6 -50 8 5 21 0 28 -11 7 -11 23 -15 35 -7 14 9 17 -2 10 -30 -6 -24 -4 -39 5 -33 9 5 19 -26 23 -70 5 -44 0 -80 -10 -80 -9 0 -12 -14 -5 -31 6 -17 -1 -35 -18 -42 -17 -6 -30 -32 -30 -58 0 -52 -48 -109 -91 -109 -16 0 -29 -11 -29 -25 -1 -48 -259 -42 -301 6 -38 44 -153 60 -176 25 -7 -11 -33 -27 -58 -35 -25 -7 -45 -23 -45 -34 0 -10 -9 -14 -20 -7 -11 7 -14 -1 -8 -19 7 -17 3 -31 -8 -31 -12 0 -26 16 -31 35 -9 29 -10 28 -9 -5 2 -107 -7 -148 -44 -190 -23 -26 -33 -52 -24 -59 10 -6 7 -36 -5 -66 -13 -31 -30 -50 -37 -42 -8 8 -8 -17 -1 -54 8 -38 28 -80 45 -93 27 -20 28 -30 6 -67 -24 -39 -23 -41 15 -29 24 7 41 4 41 -9 0 -11 -33 -21 -73 -21 -57 0 -89 -16 -150 -75 -42 -41 -80 -70 -83 -65 -10 15 -74 -54 -74 -80 0 -13 11 -16 25 -7 16 9 15 3 -3 -20 -37 -46 -40 -172 -5 -228 15 -25 22 -45 15 -45 -7 0 21 -32 62 -70 76 -72 100 -79 233 -71 50 3 73 -3 65 -16 -7 -12 4 -19 26 -18 22 2 35 9 31 17 -5 8 5 19 21 25 17 7 41 35 54 63 14 31 34 47 51 41 15 -6 22 -2 15 9 -7 11 -5 31 3 45 9 14 19 43 22 64 3 22 16 45 28 53 13 8 14 18 2 25 -10 6 -17 38 -15 71 2 35 -8 65 -23 70 -15 6 -27 28 -27 50 0 22 -12 51 -26 66 -45 45 -57 96 -20 82 23 -9 28 -5 17 13 -12 19 -5 22 25 12 22 -7 47 -3 54 9 7 11 23 14 36 6 13 -9 38 -16 54 -16 17 0 41 -7 53 -15 13 -9 37 -2 54 15 20 20 35 23 44 9 7 -12 26 -17 41 -11 15 6 28 2 28 -9 0 -28 75 -23 87 6 8 20 10 19 11 -1 2 -19 12 -20 42 -4 29 16 40 15 40 -1 0 -13 14 -18 32 -11 18 7 78 18 135 24 57 7 106 16 111 20 4 3 26 -4 50 -17 64 -35 132 -40 168 -11 18 15 26 16 18 3 -8 -13 0 -28 18 -35 45 -17 72 -15 60 5 -16 26 131 45 160 21 17 -14 29 -13 39 3 10 17 19 16 31 -4 10 -15 18 -17 18 -5 0 12 14 21 31 21 21 0 24 -6 10 -20 -21 -21 143 -193 183 -193 10 0 13 -9 6 -20 -7 -11 1 -15 17 -8 16 6 42 -7 58 -31 16 -22 33 -36 39 -30 11 10 49 -79 52 -119 0 -10 13 -25 27 -34 15 -9 27 -26 27 -37 0 -12 9 -22 20 -23 41 -4 91 -41 79 -59 -6 -10 -2 -20 10 -21 59 -7 161 -59 161 -82 0 -10 18 -8 40 4 23 12 49 17 58 11 9 -6 40 11 68 37 28 26 56 43 61 38 6 -5 5 20 0 57 -6 37 -14 71 -19 75 -4 5 4 22 17 39 16 20 17 26 2 17 -13 -8 -28 -1 -34 15 -6 16 0 33 13 38 16 7 12 20 -13 40 -20 17 -31 40 -24 52 8 12 -4 21 -28 21 -23 0 -41 13 -41 30 0 17 -7 30 -16 30 -18 0 -20 150 -2 168 29 30 217 30 246 2 18 -19 34 -23 42 -10 18 29 90 25 90 -5 1 -17 5 -18 15 -3 20 29 190 24 200 -6 5 -17 22 -19 58 -5 63 24 108 25 71 2 -40 -26 197 -13 262 14 35 14 116 18 220 11 90 -6 189 -13 220 -15 59 -3 164 -81 147 -109 -53 -84 181 14 285 120 30 31 40 31 88 6 31 -16 50 -20 44 -9 -7 10 9 18 34 16 25 -1 70 7 100 19 34 14 59 15 66 3 7 -10 33 -19 58 -19 25 0 52 -6 59 -14 22 -22 73 -25 73 -4 0 10 18 18 39 18 22 0 69 26 105 57 36 31 80 62 96 68 23 9 21 12 -7 13 -31 2 -36 13 -26 62 13 65 8 70 -46 41 -25 -14 -33 -35 -26 -70 l10 -51 -265 0 c-253 0 -267 2 -324 50 -70 59 -35 68 39 10 115 -91 278 -38 270 88 -4 52 -1 55 14 22 14 -30 19 -11 20 76 1 109 -1 114 -39 94 -32 -17 -40 -15 -40 10 0 39 17 44 195 57 143 10 145 10 145 -37 0 -62 -38 -145 -73 -158 -21 -9 -20 -1 3 36 29 44 28 49 -19 80 l-51 33 0 -141 c0 -111 6 -140 30 -140 41 0 111 63 96 87 -7 10 -4 14 7 7 51 -31 136 121 108 194 -11 29 -16 52 -11 52 6 0 -6 17 -25 37 -19 20 -42 33 -50 29 -8 -5 -15 0 -15 11 0 21 -123 68 -190 72 -22 2 -59 13 -82 26 -24 13 -50 17 -59 9 -8 -8 -10 2 -3 21 9 25 3 35 -22 35 -29 1 -30 3 -4 20 17 11 20 20 8 20 -15 0 -22 55 -20 160 1 88 9 160 18 160 9 0 10 11 2 25 -8 14 6 7 32 -15 26 -22 41 -29 33 -16 -14 23 52 74 71 55 5 -5 21 14 36 41 15 28 34 50 43 50 10 0 17 13 17 28 0 15 14 33 31 40 17 6 26 20 20 30 -6 11 -2 25 11 33 12 8 15 20 5 27 -41 29 -107 188 -88 211 23 27 5 111 -24 111 -11 0 -15 18 -9 39 5 22 1 42 -10 46 -11 3 -13 30 -5 62 11 42 19 50 32 30 10 -16 12 1 4 42 -8 38 -34 88 -60 112 -25 24 -40 49 -32 57 7 8 1 9 -16 3 -46 -17 -94 22 -64 52 14 14 25 34 25 46 0 12 -9 8 -20 -9 -17 -26 -19 -25 -20 5 0 19 11 35 25 35 17 1 15 7 -5 20 -26 17 -26 19 1 20 34 0 43 80 10 80 -14 1 -14 6 -1 15 18 14 28 65 29 145 0 81 -18 418 -26 480 -5 40 1 76 14 84 15 10 7 28 -24 58 -27 25 -38 48 -27 56 22 13 22 122 1 122 -12 0 -39 89 -41 135 0 8 -19 41 -41 73 -33 46 -37 64 -19 94 17 27 17 40 1 50 -14 9 -18 5 -9 -9 8 -14 2 -23 -16 -23 -21 0 -27 11 -18 35 7 19 5 29 -3 21 -23 -21 -71 35 -71 83 0 22 -9 41 -20 41 -11 0 -20 14 -20 31 0 17 -22 53 -49 80 -27 27 -44 49 -37 49 6 0 -22 31 -62 70 -44 41 -69 79 -60 93 8 14 5 18 -8 10 -11 -8 -36 7 -53 32 -17 25 -38 46 -46 47 -41 5 -85 35 -85 59 0 32 -80 92 -103 77 -9 -6 -17 4 -17 21 0 17 -7 30 -15 29 -38 -6 -66 4 -57 19 10 17 -20 35 -134 81 -31 12 -51 31 -44 42 7 11 -4 21 -24 22 -65 2 -112 15 -124 33 -7 10 -41 28 -75 40 -35 12 -83 41 -106 64 -29 29 -56 39 -83 30 -23 -7 -61 2 -91 21 -29 19 -45 23 -37 10 11 -17 2 -17 -33 2 -26 14 -62 24 -80 21 -19 -3 -39 5 -46 16 -8 12 -22 21 -33 21 -11 0 -14 -10 -7 -22 10 -16 -6 -18 -53 -7 -38 8 -86 16 -108 18 -22 1 -51 9 -64 17 -13 8 -49 9 -80 2 -31 -8 -139 -15 -241 -16 -102 -1 -185 -9 -185 -18 0 -9 -19 -11 -42 -3 -24 7 -49 4 -55 -7 -7 -11 -40 -25 -73 -30 -91 -15 -130 -35 -130 -67 0 -15 -16 -34 -35 -41 -19 -7 -42 -23 -50 -35 -8 -12 -15 -6 -15 16 0 20 -11 33 -25 28 -13 -4 -41 8 -63 28 -21 19 -44 32 -52 27 -8 -5 -24 14 -37 41 -12 27 -29 48 -38 46 -19 -4 -91 26 -105 43 -5 7 -41 6 -78 -2z m526 -619 c184 -208 210 -230 249 -212 34 15 53 10 90 -24 62 -59 85 -54 44 9 -43 65 -41 66 117 94 l132 22 3 71 c6 132 33 -308 32 -539 0 -145 -5 -208 -15 -170 -12 49 -16 37 -18 -60 -2 -111 -7 -122 -62 -154 -66 -37 -80 -76 -25 -67 78 13 99 -22 113 -192 7 -91 16 -168 19 -171 12 -11 303 98 332 125 99 93 161 132 161 101 0 -56 -167 -207 -229 -207 -30 0 -61 -8 -68 -17 -7 -10 -22 -18 -33 -19 -98 -5 -170 -37 -170 -75 0 -40 1 -40 27 -5 24 34 26 31 18 -26 -6 -36 -21 -63 -37 -63 -18 0 -28 -23 -29 -65 0 -54 -4 -59 -21 -30 -11 19 -30 35 -41 35 -14 0 -13 -11 3 -30 14 -17 16 -30 5 -30 -11 0 -32 28 -46 62 -18 44 -35 58 -62 51 -20 -5 -33 -2 -27 7 6 9 -6 12 -27 7 -24 -7 -57 14 -100 62 -85 97 -80 134 6 49 61 -60 209 -104 178 -53 -13 20 0 19 66 -6 31 -12 50 -16 43 -9 -7 7 -5 39 4 71 20 69 4 143 -27 127 -13 -6 -7 2 12 18 19 16 35 36 35 45 0 9 -11 6 -24 -7 -85 -85 -110 -37 -131 251 l-20 275 2 -263 c1 -255 23 -347 83 -347 7 0 26 -13 43 -30 18 -18 21 -30 7 -30 -14 0 -18 -16 -10 -40 12 -36 2 -35 -128 20 -77 33 -153 60 -170 60 -16 0 -39 16 -50 35 -27 47 -30 -37 -4 -126 17 -61 -20 -154 -45 -114 -27 44 -9 258 26 304 l36 48 32 -59 c17 -32 32 -46 32 -32 1 15 -8 43 -19 63 -29 55 22 92 82 60 39 -21 42 -20 30 14 -38 97 -39 154 -4 141 20 -8 29 -6 22 6 -7 11 -25 20 -41 20 -24 0 -25 7 -5 40 36 57 -14 108 -53 54 -21 -28 -31 -31 -43 -11 -44 71 19 224 124 303 l48 36 0 -76 c0 -42 7 -67 15 -55 8 11 38 31 65 44 l50 24 -53 -11 c-46 -10 -53 -4 -61 50 -6 42 -1 62 16 62 44 0 49 35 7 46 -31 8 -46 -2 -60 -38 -10 -26 -22 -48 -27 -48 -14 0 -272 317 -272 334 0 30 -216 256 -230 242 -8 -8 27 -69 78 -137 50 -68 87 -131 80 -141 -6 -11 -2 -17 8 -13 39 11 271 -309 250 -343 -42 -67 -135 -51 -163 27 -35 98 -56 89 -68 -29 -12 -135 -23 -140 -107 -48 l-71 78 43 -75 c36 -62 40 -86 23 -140 -11 -37 -14 -125 -6 -205 22 -231 8 -250 -193 -250 -92 0 -183 -9 -203 -20 -31 -16 -41 -10 -58 40 -19 55 -17 60 23 62 34 2 36 5 9 12 -70 18 -1 83 95 88 53 3 51 5 -20 18 l-80 14 70 5 70 4 -80 26 -80 27 74 2 c68 2 75 8 87 68 11 61 17 66 76 59 48 -6 56 -3 33 13 -16 12 -45 22 -63 22 -42 0 -28 64 25 112 52 47 52 45 -75 232 -99 146 -120 165 -167 160 -67 -7 -108 40 -92 103 18 75 84 80 133 11 23 -32 36 -58 29 -58 -7 0 1 -14 18 -31 17 -17 73 -86 124 -152 l93 -120 34 51 c19 29 40 46 48 39 7 -8 13 1 13 20 0 41 27 43 60 3 14 -16 37 -30 52 -30 15 0 5 21 -25 51 l-51 52 47 53 47 54 -57 -50 -56 -50 -44 60 c-23 33 -66 87 -95 120 -28 33 -131 158 -228 279 l-177 218 26 121 c13 67 29 129 35 139 14 22 275 -236 534 -528z m913 441 c1175 -139 1974 -1244 1738 -2404 -22 -111 -38 -203 -35 -205 3 -1 30 -18 60 -37 30 -19 80 -34 110 -34 79 -1 146 -21 146 -44 0 -11 -16 -14 -35 -6 -80 33 -101 30 -162 -20 -60 -51 -62 -156 -2 -119 11 6 15 20 9 29 -6 9 0 24 13 32 14 8 18 6 10 -7 -7 -12 -2 -27 12 -33 17 -7 11 -20 -19 -43 -35 -26 -42 -46 -32 -96 6 -35 5 -57 -4 -49 -21 20 -94 -21 -79 -45 15 -25 89 -25 89 0 0 10 18 24 40 31 21 7 37 23 35 35 -3 12 12 26 32 31 63 13 30 -63 -42 -96 -105 -49 -38 -180 92 -180 35 0 63 -8 63 -17 0 -10 -25 -15 -55 -11 -35 4 -40 2 -15 -5 22 -7 58 -25 80 -42 38 -28 38 -29 2 -17 -23 8 -46 3 -57 -12 -13 -18 -21 -19 -27 -4 -9 21 -201 21 -222 1 -4 -4 -17 -138 -28 -297 l-21 -290 74 -116 c45 -71 76 -146 80 -193 6 -81 -20 -105 -41 -38 -12 37 -83 75 -103 55 -26 -27 19 -154 55 -154 54 0 47 -56 -7 -64 -25 -3 -45 -19 -45 -36 0 -19 16 -28 45 -25 25 2 45 -4 45 -15 0 -11 -27 -20 -61 -20 -140 0 -213 190 -114 295 l45 48 -79 -7 -78 -6 -8 -110 c-13 -177 -140 -260 -253 -165 -32 26 -31 22 6 -19 29 -34 43 -69 37 -94 -19 -72 36 -91 65 -23 13 33 53 81 87 107 l63 48 0 -56 c0 -43 -9 -55 -39 -52 -24 3 -49 -17 -70 -56 -17 -33 -38 -65 -47 -72 -8 -6 -10 -26 -3 -45 9 -22 3 -33 -19 -33 -18 0 -32 16 -32 37 0 20 -19 59 -42 85 -23 26 -50 68 -60 93 -19 51 -68 59 -92 17 -13 -23 -139 -29 -716 -32 -960 -6 -979 -6 -954 26 14 16 15 36 3 55 -49 77 -10 299 52 299 23 0 29 -32 29 -150 0 -147 1 -150 50 -150 55 0 76 195 29 281 -16 31 -14 39 10 39 18 0 25 12 18 30 -6 17 -36 30 -68 30 -40 0 -69 18 -100 61 -24 34 -48 56 -54 50 -6 -6 -23 -1 -37 11 -18 15 -39 12 -75 -12 -28 -18 -54 -24 -61 -13 -31 50 104 96 140 48 33 -43 38 -1 6 58 -43 81 -3 109 64 45 48 -45 57 -49 46 -18 -14 35 -11 37 17 14 18 -15 38 -54 46 -87 7 -34 35 -80 61 -102 26 -23 48 -56 49 -74 0 -17 13 -48 30 -70 36 -48 39 -250 4 -296 -16 -21 -62 -36 -125 -41 -55 -4 100 -8 345 -10 318 -3 445 2 445 18 0 17 7 17 27 0 39 -32 490 -27 485 5 -2 13 -16 44 -30 70 -59 108 -17 244 84 271 76 20 146 149 102 189 -30 28 -33 28 -17 2 10 -17 0 -9 -23 17 l-43 48 -44 -62 -44 -62 62 0 c33 0 61 -9 61 -20 0 -19 -39 -23 -300 -28 -94 -2 -113 -9 -130 -47 -11 -25 -36 -45 -55 -45 -34 0 -34 -3 -3 -51 30 -46 31 -53 1 -85 -29 -33 -28 -40 8 -95 56 -86 50 -109 -31 -109 -68 0 -70 2 -70 80 0 46 -10 80 -22 80 -16 0 -16 8 1 29 28 33 21 121 -9 121 -11 0 -23 -69 -26 -155 l-6 -155 -59 0 -59 0 0 183 0 182 104 -10 c111 -11 276 103 276 190 0 19 10 33 22 30 30 -7 94 82 128 176 25 69 28 72 29 25 1 -62 65 -115 140 -117 46 -2 47 -3 11 -18 -22 -9 -56 -8 -75 2 -36 19 -102 -12 -190 -90 -68 -60 -56 -73 65 -73 61 0 110 8 110 18 0 10 29 48 63 85 92 97 101 230 12 168 -52 -37 -95 -9 -95 63 0 46 2 47 44 17 63 -44 76 -39 73 24 -2 50 -3 50 -11 8 -14 -73 -86 2 -86 90 0 62 -9 71 -105 115 -235 106 -367 336 -297 516 10 25 28 85 41 132 13 47 30 81 39 75 10 -6 17 13 17 41 0 28 16 67 36 85 26 23 31 24 16 3 -32 -46 -48 -100 -29 -100 10 0 28 26 41 59 14 32 41 73 61 91 21 19 34 44 30 57 -4 13 -13 50 -20 82 -15 69 -38 46 -71 -75 -11 -41 -29 -70 -39 -64 -10 6 -4 57 13 115 47 156 28 285 -51 359 -65 61 -187 108 -222 86 -37 -23 -21 -50 29 -50 71 0 148 -40 162 -85 17 -53 -4 -67 -46 -30 -67 60 -185 116 -185 88 0 -14 -14 -43 -30 -64 -32 -40 17 114 51 161 42 60 62 172 36 205 -19 23 -20 28 -2 18 18 -11 25 6 25 67 0 55 7 78 22 69 15 -10 18 1 7 33 -8 27 -22 51 -32 55 -23 9 -22 98 2 112 10 7 26 -1 35 -16 9 -16 34 -33 56 -39 38 -9 38 -10 -5 -24 -41 -13 -64 -50 -31 -50 89 0 162 166 123 282 -49 145 -157 139 -157 -8 0 -42 -8 -71 -19 -65 -10 6 -25 -9 -32 -34 -8 -25 -29 -56 -47 -70 -29 -23 -29 -24 3 -13 20 7 35 3 35 -10 0 -21 -29 -31 -70 -23 -11 3 -13 -2 -5 -10 17 -18 -20 -69 -50 -69 -13 0 -13 9 0 25 12 14 25 75 30 135 5 61 17 127 26 148 12 29 9 35 -10 23 -20 -12 -20 -7 -3 26 13 23 18 67 11 98 -10 44 -8 49 11 25 16 -21 21 -22 16 -3 -4 14 -13 23 -20 20 -7 -4 -34 11 -59 34 -79 69 -203 144 -282 168 -77 25 -79 36 -19 106 19 22 22 35 7 35 -13 0 -23 12 -23 27 0 15 -18 50 -40 78 -79 101 -47 115 151 64 65 -16 163 -57 217 -91 54 -33 111 -55 126 -49 16 6 23 2 15 -10 -7 -11 20 -56 59 -99 124 -137 215 -351 242 -564 l12 -94 169 2 c129 1 169 7 169 28 0 26 -36 37 -95 30 -52 -7 -144 57 -131 91 9 24 5 29 -12 18 -17 -10 -23 -4 -20 22 4 20 -5 58 -19 84 -15 25 -21 59 -15 74 5 15 -2 41 -18 56 -15 16 -22 35 -14 42 8 8 -2 26 -21 40 -19 14 -48 58 -65 99 -17 41 -44 79 -61 85 -16 6 -24 19 -18 29 14 22 -131 181 -152 167 -9 -5 -30 10 -47 34 -17 25 -37 38 -45 31 -7 -8 -25 -4 -40 8 -15 13 -41 17 -60 10 -29 -11 -29 -9 -5 21 20 25 21 30 2 19 -14 -8 -39 -4 -56 10 -17 14 -60 26 -95 27 -47 1 -62 10 -60 36 1 19 -6 30 -15 24 -10 -6 -18 7 -18 29 0 22 -10 46 -23 54 -14 9 -18 5 -9 -9 8 -13 0 -37 -17 -55 -18 -18 -31 -21 -31 -8 0 12 -10 16 -22 9 -12 -7 -7 14 11 48 22 44 41 58 64 49 23 -9 29 -5 19 10 -9 16 -3 19 17 12 17 -7 31 -2 31 10 0 12 9 22 20 22 11 0 20 -12 20 -27 0 -18 16 -24 50 -18 30 6 50 0 50 -14 0 -13 10 -17 21 -10 12 7 35 -4 52 -24 16 -20 24 -26 17 -12 -15 31 42 34 61 3 10 -16 18 -16 29 1 10 18 23 15 47 -9 18 -18 48 -36 68 -41 205 -51 325 -113 325 -168 0 -12 11 -20 25 -17 34 8 175 -82 170 -108 -3 -11 13 -24 35 -27 44 -7 272 -247 265 -279 -6 -26 78 -111 93 -95 7 6 12 -3 12 -21 0 -18 19 -69 42 -113 23 -44 35 -90 27 -103 -9 -14 -7 -19 5 -12 21 13 77 -81 68 -114 -2 -10 6 -43 19 -73 17 -42 17 -66 -1 -100 -16 -29 -17 -39 -2 -30 14 9 22 -10 23 -53 2 -55 5 -59 19 -26 14 32 17 25 19 -36 1 -58 -12 -88 -59 -134 -33 -32 -60 -68 -60 -79 0 -11 -20 -18 -45 -16 -29 3 -43 -5 -39 -22 3 -17 -6 -24 -24 -17 -16 7 -34 -3 -41 -22 -11 -26 -16 -28 -30 -6 -9 15 -26 21 -37 14 -40 -25 -45 27 -6 66 21 21 34 43 29 48 -5 6 1 17 15 25 15 10 19 7 10 -8 -9 -14 -2 -23 17 -23 35 0 40 26 13 76 -10 21 -9 54 3 84 12 28 24 63 27 80 3 16 15 32 27 36 12 4 16 15 10 25 -14 23 -139 -116 -240 -269 -45 -67 -93 -120 -105 -117 -13 3 -24 -11 -24 -30 0 -19 -6 -57 -12 -85 -9 -38 -7 -43 9 -21 58 83 32 -6 -28 -94 -93 -138 -99 -273 -14 -310 l55 -23 -77 -8 c-49 -4 -89 4 -110 23 -39 36 -90 14 -126 -53 -23 -44 -23 -44 20 -6 24 21 48 34 54 28 5 -6 -4 -22 -21 -36 -16 -14 -30 -39 -30 -56 0 -24 10 -21 43 14 30 32 47 39 57 22 8 -13 20 -23 27 -22 7 1 11 -5 8 -13 -3 -8 -21 -13 -40 -10 -41 5 -48 -54 -11 -91 18 -18 18 -24 1 -24 -13 0 -33 17 -44 37 -17 33 -48 39 -125 26 -58 -11 -78 -163 -22 -163 20 0 26 -11 18 -32 -9 -23 -4 -29 17 -21 23 9 29 -1 26 -38 -3 -39 -12 -46 -44 -36 -30 9 -25 -1 20 -41 35 -31 47 -52 29 -50 -72 7 -80 0 -57 -51 13 -28 31 -45 40 -39 9 6 17 -4 17 -21 0 -17 -16 -32 -35 -33 -22 -1 -25 -5 -9 -11 14 -6 39 1 57 15 17 15 44 28 61 31 46 6 57 27 14 27 -21 0 -51 9 -68 20 -22 14 -11 18 40 14 105 -6 129 -39 69 -95 -69 -65 -61 -84 32 -75 77 7 82 4 93 -51 11 -51 14 -53 32 -21 14 25 14 38 -3 44 -13 4 -23 22 -23 41 1 28 3 29 20 3 17 -26 19 -25 20 5 0 19 -10 35 -22 35 -12 0 -18 12 -12 26 10 26 -14 46 -126 109 l-50 28 55 -12 c46 -10 55 -5 55 29 0 25 -13 40 -35 40 -23 0 -36 17 -38 50 -3 56 11 62 53 25 16 -14 13 -5 -7 19 -35 42 -35 43 0 34 47 -12 101 128 56 145 -38 15 42 88 130 120 39 14 55 26 36 26 -43 1 -47 61 -5 61 17 0 30 -11 30 -25 1 -17 6 -16 19 4 24 37 8 62 -30 48 -18 -7 -29 1 -29 20 0 18 14 28 35 24 36 -7 90 36 80 64 -3 8 21 16 54 17 39 1 74 21 104 60 26 32 47 48 47 36 0 -12 -7 -28 -15 -36 -8 -8 -15 -63 -15 -123 l0 -107 105 11 c85 9 105 6 105 -18 0 -47 77 -58 100 -15 25 48 25 66 0 50 -11 -7 -20 -2 -20 10 0 13 -11 16 -25 7 -56 -35 -154 5 -154 63 0 11 8 7 19 -10 16 -26 25 -26 63 -2 32 19 47 21 53 5 37 -113 112 255 109 539 -14 1258 -1257 2151 -2517 1806 -33 -9 -45 0 -54 35 -16 59 -1 67 194 105 279 55 451 63 713 32z m-291 -180 c-7 -11 10 -20 39 -20 61 0 64 -19 11 -80 -31 -36 -40 -39 -40 -14 0 18 -15 41 -34 51 -29 16 -30 24 -8 51 30 35 52 44 32 12z m-1137 -185 c52 -69 139 -177 193 -240 54 -63 92 -115 84 -115 -8 0 18 -36 58 -80 76 -85 81 -95 55 -135 -20 -32 -70 22 -263 285 -81 110 -168 229 -193 264 -41 55 -64 146 -38 146 5 0 51 -56 104 -125z m1019 84 c41 -16 49 -26 31 -44 -13 -13 -23 -40 -23 -61 0 -34 -4 -35 -34 -11 -23 18 -29 19 -19 2 9 -14 8 -25 -2 -25 -9 0 -29 11 -44 25 -22 20 -25 19 -16 -8 13 -36 -140 -70 -172 -37 -10 9 -30 12 -45 6 -16 -6 -28 1 -28 14 0 16 19 21 50 15 42 -8 50 -2 50 38 0 28 12 47 30 47 17 0 30 8 30 17 0 10 25 13 55 9 43 -7 48 -4 25 12 -41 29 36 30 112 1z m-1703 -450 c73 -74 2 -198 -87 -150 -55 29 -67 80 -32 134 36 55 74 60 119 16z m491 -101 c0 -17 -19 -37 -41 -43 -34 -8 -39 -21 -29 -63 14 -57 50 -105 50 -67 0 13 12 19 27 13 17 -6 32 6 38 31 11 41 55 58 55 21 0 -29 55 -25 67 5 5 14 11 3 12 -25 1 -36 6 -42 19 -23 13 21 26 22 55 6 20 -12 30 -22 21 -22 -8 -1 -1 -28 16 -62 30 -56 29 -64 -9 -117 -22 -31 -33 -63 -25 -72 8 -8 -20 -9 -61 -2 -59 11 -72 8 -64 -14 8 -20 -4 -25 -48 -19 -32 5 -64 -1 -72 -13 -9 -16 -25 -16 -52 -1 -22 11 -39 13 -39 5 0 -9 -9 -2 -20 14 -17 26 -19 25 -20 -5 0 -22 -15 -35 -41 -35 -23 0 -36 -9 -29 -20 7 -11 1 -20 -14 -20 -19 -1 -18 -6 4 -20 18 -12 20 -20 6 -20 -13 0 -29 9 -36 20 -21 34 -50 22 -50 -20 0 -57 -34 -50 -45 10 -7 39 -1 50 28 50 40 0 52 68 16 91 -12 7 -16 27 -10 44 7 18 3 38 -10 45 -12 8 7 15 42 16 84 2 90 12 30 52 -46 30 -51 30 -51 1 0 -17 -9 -26 -20 -19 -12 7 -11 26 4 50 13 20 30 33 38 29 24 -15 33 38 16 86 -12 31 -10 45 7 45 14 0 51 23 83 50 66 57 152 67 152 18z m1536 -190 c38 -24 38 -138 1 -138 -10 0 -12 24 -4 53 9 39 3 60 -24 80 -44 33 -23 36 27 5z m-653 -233 c5 -88 1 -143 -11 -139 -45 15 -57 73 -43 204 18 168 43 138 54 -65z m77 65 c14 -17 20 -37 13 -44 -7 -7 -13 -2 -13 12 0 13 -7 20 -17 14 -9 -6 -12 -39 -7 -74 7 -44 2 -59 -13 -50 -27 17 -31 172 -5 172 9 0 28 -14 42 -30z m690 10 c7 -12 21 -16 30 -10 28 18 48 -33 43 -114 -4 -65 1 -76 36 -76 49 0 58 -126 13 -185 -37 -49 -46 -44 -37 23 5 32 -1 75 -14 95 -19 31 -21 26 -10 -27 6 -36 2 -81 -10 -100 -17 -29 -19 -22 -11 34 9 62 7 66 -17 35 -39 -50 -47 -44 -37 27 6 44 14 54 26 35 13 -20 17 -14 18 19 0 26 -9 41 -20 34 -11 -7 -20 -3 -20 9 0 11 11 22 25 23 20 1 20 3 0 11 -14 6 -25 27 -25 47 0 21 -9 43 -20 50 -25 16 -26 90 -1 90 10 0 24 -9 31 -20z m-857 -113 c2 -28 22 -77 45 -109 59 -79 53 -83 -38 -23 -80 52 -90 76 -68 159 16 57 57 39 61 -27z m735 21 c27 -71 12 -161 -36 -206 l-48 -45 -30 43 c-16 23 -27 58 -23 76 28 143 31 147 112 162 7 1 18 -12 25 -30z m-520 -208 c31 -131 20 -180 -39 -180 -38 0 -62 250 -28 291 32 39 33 39 67 -111z m-1508 82 c0 -21 -15 -43 -32 -50 -23 -9 -30 -30 -24 -72 5 -32 1 -62 -8 -65 -10 -3 -22 -41 -28 -84 -5 -44 -15 -84 -22 -90 -6 -6 -6 18 1 54 6 36 4 65 -5 65 -18 0 -16 100 2 132 6 10 18 47 25 83 16 73 91 96 91 27z m619 -69 c35 -8 53 -53 21 -53 -14 0 -19 -23 -13 -60 7 -46 -1 -67 -33 -90 -24 -17 -34 -30 -23 -30 10 0 6 -9 -11 -20 -119 -77 -242 138 -138 242 41 41 67 42 197 11z m649 -73 c-9 -57 -6 -80 12 -80 15 0 19 13 11 35 -12 31 -10 32 16 5 36 -36 68 -252 35 -231 -12 7 -28 49 -35 93 -22 138 -48 54 -32 -103 14 -134 20 -150 60 -155 55 -8 57 -27 6 -59 -22 -14 -35 -37 -29 -53 6 -15 0 -35 -14 -43 -16 -10 -19 -7 -9 10 12 19 -17 23 -128 18 -138 -6 -179 9 -181 68 0 23 276 18 290 -5 7 -12 21 -16 30 -10 10 6 -4 34 -31 63 -65 70 -80 167 -44 277 17 51 21 91 10 95 -23 8 3 155 27 155 10 0 13 -36 6 -80z m152 -103 c0 -26 -9 -60 -20 -77 -15 -23 -19 -15 -20 33 0 34 -13 73 -30 87 -16 14 -30 47 -30 74 l0 49 50 -59 c28 -33 50 -81 50 -107z m-1212 40 c-6 -10 -3 -30 8 -43 10 -13 17 -49 16 -79 -2 -33 7 -55 22 -55 14 0 24 10 21 23 -3 12 7 26 21 31 19 7 22 -4 12 -45 -12 -48 -9 -54 22 -42 29 11 31 9 12 -15 -19 -22 -18 -32 0 -43 16 -10 19 -7 10 8 -10 17 3 22 44 19 40 -3 56 -13 49 -31 -5 -15 -2 -25 8 -23 9 3 42 -6 73 -19 61 -25 146 2 123 38 -17 28 -49 23 -49 -8 0 -18 -16 -24 -49 -18 -42 8 -45 14 -26 46 13 20 33 31 44 23 12 -8 50 -14 85 -14 34 1 59 -6 53 -14 -8 -14 20 -24 57 -19 7 1 9 -21 4 -50 -9 -47 -5 -51 44 -38 50 12 51 11 19 -21 -32 -31 -32 -36 -2 -52 17 -10 27 -27 20 -37 -6 -11 -2 -19 10 -19 11 0 21 -12 21 -27 0 -15 17 -43 39 -62 43 -39 34 -91 -15 -91 -26 0 -24 -6 7 -29 22 -17 28 -30 15 -30 -13 -1 -29 -19 -36 -41 -7 -22 -25 -40 -40 -40 -15 0 -34 -10 -42 -23 -9 -16 -5 -18 14 -7 22 13 23 11 3 -11 -37 -40 -111 -38 -151 4 -19 20 -45 37 -56 37 -11 0 -15 9 -8 20 7 11 -1 20 -17 20 -29 0 -104 96 -87 113 5 5 -11 30 -37 56 -32 32 -43 61 -36 94 9 39 6 42 -13 17 -19 -25 -22 -22 -13 16 6 30 2 43 -14 38 -45 -17 -98 26 -72 57 18 22 18 29 0 29 -13 0 -18 9 -11 20 7 11 -1 20 -17 20 -39 0 -55 49 -26 80 18 20 14 20 -22 2 -37 -19 -42 -18 -32 8 8 21 -1 30 -31 30 -24 0 -42 13 -42 30 0 17 -14 30 -31 30 -17 0 -26 8 -20 19 6 10 2 24 -9 31 -12 7 -16 32 -9 54 9 27 6 36 -9 27 -12 -7 -22 -4 -22 6 0 11 20 23 45 27 66 10 136 -6 123 -27z m2143 -330 c-6 -26 -21 -47 -32 -47 -14 0 -14 13 0 39 12 21 23 77 24 125 l4 86 8 -78 c4 -43 2 -99 -4 -125z m-1211 133 c42 -14 44 -17 10 -19 -40 -4 -40 -4 0 -21 27 -12 -10 -18 -115 -19 -142 -1 -155 2 -155 39 0 43 151 55 260 20z m1080 -57 c0 -32 -77 -86 -114 -79 -52 10 -45 66 10 68 25 2 51 8 58 15 18 19 46 16 46 -4z m86 -25 c9 -6 -7 -40 -37 -75 -29 -35 -42 -63 -28 -63 16 0 13 -14 -11 -39 -43 -48 -81 -44 -166 16 -36 26 -79 42 -95 35 -31 -11 -41 18 -12 36 9 6 63 3 120 -6 111 -17 144 0 172 95 8 25 21 39 28 30 7 -9 20 -22 29 -29z m-1096 -58 c36 -40 35 -40 -117 -40 -84 0 -153 4 -153 8 0 5 -5 23 -12 40 -20 53 234 45 282 -8z m431 -120 c10 0 13 -13 7 -29 -18 -47 -87 -58 -127 -22 -35 31 -36 30 -31 -23 6 -71 51 -168 71 -155 24 14 117 -114 105 -145 -11 -28 -128 68 -168 139 -44 78 -56 222 -23 279 l32 54 58 -49 c32 -27 66 -49 76 -49z m703 16 c-13 -13 -24 -47 -25 -75 -2 -93 -158 -328 -194 -292 -12 11 -4 39 46 159 11 27 9 34 -7 24 -40 -24 -3 47 59 114 31 35 57 53 57 41 0 -12 -13 -33 -30 -47 -16 -14 -30 -33 -30 -42 0 -10 14 -18 30 -18 17 0 30 13 30 29 0 51 38 131 64 131 19 0 19 -5 0 -24z m-312 -83 c-23 46 36 65 84 27 34 -28 39 -41 20 -54 -74 -47 -80 -120 -10 -108 10 2 11 -6 4 -18 -7 -11 -20 -16 -28 -11 -9 5 -37 -12 -63 -40 -52 -56 -138 -67 -131 -17 3 17 18 39 33 49 22 14 19 18 -16 19 -25 0 -45 9 -45 20 0 11 15 20 32 20 27 0 28 5 8 30 -24 28 18 44 86 32 10 -2 11 6 4 18 -7 11 -19 17 -27 12 -8 -5 -16 14 -19 42 l-4 50 42 -47 c22 -26 36 -37 30 -24z m1528 -12 c32 -60 -19 -76 -62 -19 -21 26 -37 60 -38 74 0 36 72 -5 100 -55z m-3731 -85 c6 -29 22 -65 36 -80 14 -14 27 -62 30 -106 3 -44 15 -83 25 -87 11 -3 20 -23 20 -43 0 -21 9 -43 21 -51 11 -7 15 -31 8 -53 -9 -27 -6 -36 9 -27 12 7 22 4 22 -7 0 -30 100 -242 145 -307 21 -30 32 -64 25 -75 -7 -11 13 -35 44 -53 100 -57 183 -187 171 -267 l-10 -70 38 46 c33 41 45 44 97 25 56 -20 58 -19 20 10 -22 17 -55 27 -74 22 -44 -11 -64 73 -38 160 10 35 14 68 10 73 -5 4 5 20 22 34 40 33 38 73 -5 98 -19 10 -28 25 -20 33 8 8 28 3 45 -11 34 -28 43 -191 10 -170 -12 7 -15 23 -7 34 8 13 4 16 -10 8 -16 -10 -16 -24 1 -52 28 -44 56 -34 56 21 0 61 25 46 83 -46 52 -82 64 -119 59 -168 -3 -36 -82 -7 -84 30 -1 26 -4 27 -12 5 -6 -16 5 -42 26 -58 27 -20 31 -31 13 -38 -14 -5 -25 -22 -25 -38 0 -15 -10 -28 -21 -28 -12 0 -15 -11 -6 -25 9 -14 17 -34 18 -45 2 -11 4 -31 6 -45 2 -18 21 -22 58 -13 44 10 50 8 31 -12 -42 -45 -132 -7 -121 52 9 48 6 50 -73 44 -60 -4 -81 1 -77 20 4 15 -3 21 -15 14 -62 -38 8 -210 86 -210 46 -1 166 -39 209 -66 14 -9 36 -10 50 -2 14 8 18 7 10 -2 -8 -9 -3 -30 10 -47 16 -19 -3 -14 -48 13 -46 28 -76 37 -81 23 -4 -13 -28 -6 -60 20 -74 58 -123 55 -111 -9 5 -29 -2 -60 -19 -74 -25 -20 -27 -13 -15 51 11 60 6 84 -26 119 -53 60 -69 110 -46 152 15 28 4 50 -52 104 -281 270 -639 1139 -522 1267 28 31 42 11 64 -93z m1989 44 c28 0 27 7 33 -225 5 -202 -11 -238 -73 -162 -25 29 -23 31 21 17 47 -15 48 -14 13 21 -23 23 -33 55 -27 93 5 32 1 62 -8 68 -10 6 -18 -15 -18 -46 -3 -102 -27 -138 -54 -79 -18 40 -17 55 6 74 35 29 38 61 5 54 -13 -3 -44 38 -70 91 l-47 97 45 36 c44 36 47 36 99 -1 29 -21 63 -38 75 -38z m-398 42 c0 -9 -26 -28 -57 -41 -261 -108 -233 -362 50 -451 484 -152 1133 20 1180 314 8 52 18 70 29 53 13 -21 18 -20 25 4 6 16 14 43 20 59 5 17 11 0 11 -36 1 -36 -13 -95 -32 -130 -19 -35 -32 -72 -29 -82 8 -29 -83 -115 -97 -91 -9 13 -23 10 -40 -11 -22 -27 -20 -29 12 -18 31 12 34 9 13 -13 -14 -15 -46 -29 -70 -30 -25 -2 -81 -19 -125 -38 -44 -20 -138 -52 -210 -72 -82 -22 -110 -36 -76 -37 29 -1 77 7 106 18 100 38 186 45 143 11 -79 -61 -413 -84 -413 -28 0 9 -38 17 -85 18 -161 1 -396 55 -477 108 -43 28 -78 43 -78 33 0 -24 235 -142 282 -142 20 0 42 -10 49 -22 9 -14 1 -19 -23 -12 -131 36 -236 38 -207 3 65 -78 292 -145 266 -79 -13 34 30 37 159 14 101 -19 104 -52 4 -57 -44 -2 -127 -10 -185 -18 -192 -26 -391 80 -469 251 -59 129 -76 126 -76 -13 0 -112 0 -113 -40 -77 -51 46 -65 32 -54 -53 7 -63 9 -64 24 -19 15 44 18 45 42 13 23 -32 26 -32 47 7 12 23 34 42 49 42 33 0 19 -302 -16 -325 -45 -29 -49 -13 -19 74 16 49 26 114 21 145 -7 51 -8 49 -12 -14 -2 -38 -21 -101 -42 -140 l-38 -70 -3 110 c-1 61 -7 99 -12 85 -17 -42 -38 -29 -85 55 -25 44 -53 75 -63 69 -11 -6 -19 -1 -19 12 0 13 12 19 27 13 15 -6 39 -2 55 8 19 12 -2 17 -62 17 -55 0 -80 -6 -64 -16 21 -13 20 -21 -3 -40 -34 -29 -60 16 -39 69 9 26 30 30 97 21 88 -12 110 12 117 127 1 22 20 28 67 23 64 -6 65 -4 65 74 0 97 32 190 60 173 27 -17 1 51 -36 95 -41 48 -20 62 67 46 l73 -14 -47 -53 -47 -54 50 43 c99 84 240 136 240 89z m1105 -79 c30 -28 55 -69 55 -92 0 -34 -6 -31 -38 21 -20 33 -65 73 -99 87 -35 14 -58 33 -52 42 15 25 71 1 134 -58z m742 47 c7 -17 23 -28 36 -25 14 3 28 -11 32 -30 6 -25 -5 -35 -36 -35 -26 0 -40 10 -34 25 6 14 -2 37 -18 51 -17 16 -27 18 -27 4 0 -12 -10 -16 -22 -9 -16 10 -14 19 5 31 38 25 51 22 64 -12z m-1897 -196 c-16 -40 -31 -102 -33 -138 -2 -53 -4 -56 -12 -18 -7 38 -13 42 -27 20 -12 -20 -17 -10 -18 35 0 40 20 87 52 126 65 78 78 69 38 -25z m1050 0 c0 -12 -20 -44 -45 -71 -25 -27 -31 -42 -15 -32 17 10 8 -11 -20 -46 -27 -34 -56 -63 -63 -64 -24 -2 26 148 62 189 20 22 31 54 25 70 -9 26 -6 26 23 3 18 -16 33 -37 33 -49z m-997 -100 c-32 -127 -64 -161 -63 -66 1 45 76 223 88 210 4 -4 -7 -69 -25 -144z m652 -40 c-48 -42 -89 -17 -64 40 8 20 14 44 11 54 -2 9 12 35 32 57 35 39 36 38 50 -38 11 -64 6 -83 -29 -113z m-95 26 c0 -33 0 -67 1 -75 0 -8 -23 -18 -52 -21 -50 -7 -51 -6 -20 41 17 27 25 54 18 62 -8 7 -1 13 15 13 23 1 23 4 -2 20 -26 17 -25 19 5 20 26 0 35 -16 35 -60z m1538 -15 c-26 -30 -50 -59 -53 -64 -3 -5 -3 9 0 30 9 58 33 89 70 89 25 0 22 -11 -17 -55z m-1878 -49 c0 -10 14 -32 30 -49 64 -64 -4 -91 -119 -47 -62 23 -63 35 -6 103 43 52 95 48 95 -7z m980 -42 c0 -34 -23 -59 -80 -92 -44 -24 -90 -62 -101 -84 -12 -22 -37 -38 -55 -35 -37 6 -164 -62 -164 -87 0 -31 208 12 260 54 53 42 80 53 80 31 0 -12 -36 -61 -80 -109 -76 -82 -103 -129 -60 -102 11 7 20 5 20 -4 0 -9 -20 -29 -45 -44 -41 -26 -43 -26 -18 5 16 18 20 33 11 33 -9 0 -37 -25 -62 -55 l-46 -55 19 53 c16 46 14 51 -21 42 -29 -7 -36 -2 -26 23 18 47 -12 39 -75 -21 l-55 -52 -61 38 c-59 37 -59 40 -22 71 42 37 64 28 46 -19 -6 -17 17 -6 52 25 77 69 78 74 8 49 l-55 -20 50 40 c71 57 33 50 -75 -13 -51 -30 -133 -60 -184 -67 -50 -7 -109 -21 -131 -30 -36 -15 -37 -13 -13 17 16 19 49 34 75 34 34 0 48 11 48 38 0 45 67 74 230 100 139 22 230 53 230 80 0 10 25 27 55 38 30 10 96 52 145 91 107 86 100 84 100 27z m-1799 -277 c16 -59 80 -162 93 -149 5 5 -6 32 -25 61 -19 29 -29 57 -23 63 18 19 64 -78 65 -137 1 -73 -11 -69 -70 20 -27 41 -66 95 -87 119 -21 23 -32 53 -24 66 21 34 56 13 71 -43z m506 -74 c14 -21 21 -22 33 -4 11 19 34 15 92 -15 43 -21 108 -46 144 -53 56 -12 64 -21 53 -58 -11 -35 -9 -38 13 -18 14 14 35 25 47 24 12 0 4 -13 -17 -29 -21 -16 -46 -24 -56 -17 -10 6 -35 -4 -56 -23 -23 -21 -54 -29 -84 -22 -25 6 -35 6 -21 0 14 -6 21 -18 16 -26 -5 -8 20 -11 55 -5 53 7 60 4 41 -19 -83 -102 6 -451 155 -608 102 -108 119 -154 44 -113 -132 71 -246 238 -249 367 -1 69 -5 160 -9 201 -3 41 2 75 13 75 45 0 9 35 -110 109 -71 43 -133 93 -140 110 -6 17 -33 62 -61 99 -77 105 -69 157 15 98 36 -25 73 -58 82 -73z m1523 78 c23 -9 51 -7 65 4 17 14 25 13 25 -3 0 -23 -12 -27 -105 -31 -33 -1 -55 8 -55 23 0 29 12 30 70 7z m-910 -196 c0 -9 20 -24 45 -35 56 -25 68 -106 25 -160 -32 -39 -32 -39 -11 4 40 82 21 74 -35 -15 -85 -134 -92 -155 -33 -89 57 64 48 36 -18 -55 -22 -30 -34 -61 -26 -69 18 -17 99 77 153 177 37 70 84 106 108 82 24 -23 11 -49 -18 -38 -18 7 -30 0 -30 -18 0 -16 -50 -81 -110 -144 -135 -139 -137 -178 -2 -54 139 128 134 98 -8 -53 l-121 -128 5 120 c3 82 -7 140 -30 184 -27 51 -29 63 -6 54 55 -21 57 65 3 119 -58 58 -65 93 -21 93 17 0 30 9 30 20 0 11 23 20 50 20 28 0 50 -7 50 -15z m-750 -115 c-44 -38 -88 -70 -98 -70 -10 0 17 31 60 69 43 38 87 69 98 69 11 0 -16 -31 -60 -68z m576 55 c5 -8 16 -46 24 -85 16 -75 -27 -61 -72 24 -28 52 19 111 48 61z m494 -35 c0 -39 -10 -50 -48 -50 -54 0 -80 44 -46 78 41 41 94 26 94 -28z m213 5 c-4 -25 -37 -66 -74 -91 -85 -57 -97 -70 -53 -53 21 8 34 4 34 -12 0 -14 22 -1 49 28 60 65 70 66 62 8 -28 -195 -66 -234 -172 -177 -85 45 -120 96 -81 120 15 10 21 28 13 40 -7 12 -3 22 9 22 12 0 17 9 10 20 -7 11 1 15 18 8 17 -7 60 18 106 60 91 85 87 83 79 27z m-1081 -170 c10 -181 -78 -305 -100 -142 -1 7 -27 37 -57 67 -58 58 -82 157 -27 112 22 -18 31 -18 38 2 7 18 11 15 12 -7 1 -17 16 -44 33 -58 27 -22 27 -15 -3 46 -29 61 -30 78 -8 105 40 48 108 -27 112 -125z m365 37 c49 -70 83 -141 83 -174 l0 -55 -53 49 c-62 57 -148 232 -133 271 14 37 11 41 103 -91z m-718 -37 c-2 -19 -199 -146 -199 -128 0 28 147 140 185 142 8 1 14 -6 14 -14z m440 -251 c2 -90 52 -164 196 -285 151 -128 174 -157 156 -202 -9 -25 -17 -27 -41 -7 -16 13 -26 31 -21 39 14 22 -139 164 -170 157 -15 -3 -28 3 -29 14 -1 11 -36 54 -78 95 -42 42 -71 62 -65 45 7 -16 3 -30 -8 -30 -43 0 -179 -103 -180 -135 -1 -83 -219 -181 -219 -99 0 16 -13 40 -30 54 -16 13 -25 32 -19 42 6 10 -9 16 -35 13 -33 -4 -46 5 -44 30 1 19 3 80 5 136 3 93 6 99 42 80 22 -12 43 -13 50 -3 19 31 212 124 232 111 36 -22 19 -46 -41 -59 -33 -7 -60 -21 -60 -32 0 -10 -12 -18 -27 -18 -15 0 -38 -25 -52 -55 -13 -30 -18 -48 -9 -40 8 9 36 -4 61 -28 l46 -43 69 53 c69 53 152 71 152 33 0 -11 -14 -20 -30 -20 -17 0 -50 -23 -74 -50 -32 -37 -48 -44 -59 -25 -11 17 -16 9 -17 -22 0 -47 1 -46 71 15 39 34 83 62 99 62 44 0 54 34 32 113 -12 43 -13 83 -3 96 9 11 24 66 32 120 l15 100 26 -100 c14 -54 27 -124 27 -155z m736 45 c-2 -150 -40 -186 -51 -50 -4 49 1 70 15 62 11 -7 21 0 21 17 0 16 -8 35 -18 41 -10 6 -14 29 -8 51 21 81 44 15 41 -121z m304 98 c-20 -39 -19 -43 3 -22 50 48 60 24 16 -40 -24 -36 -32 -54 -17 -40 46 43 57 28 26 -35 -16 -33 -34 -60 -40 -60 -5 0 -4 8 2 19 6 10 1 25 -12 33 -16 10 -20 1 -13 -27 7 -25 -7 -62 -37 -98 l-47 -57 8 85 c8 82 -31 126 -53 60 -13 -38 -75 33 -76 89 l-2 46 -18 -45 c-25 -63 -32 -56 -23 23 l8 69 63 -38 c88 -54 116 -49 171 32 52 76 80 80 41 6z m-1492 24 c36 -14 53 -12 59 5 5 13 15 18 23 10 25 -23 -9 -56 -57 -56 -50 0 -152 -83 -152 -123 0 -19 -6 -19 -23 -2 -18 18 -10 43 30 104 60 91 53 88 120 62z m1103 -105 c-13 -94 -26 -117 -117 -201 -176 -162 -194 -80 -22 99 62 64 117 141 123 172 19 95 31 42 16 -70z m-390 -106 l46 -40 -22 42 c-26 48 -14 68 39 68 31 0 37 -16 37 -95 0 -52 6 -117 12 -145 14 -62 -184 137 -214 215 -38 100 -21 164 20 75 20 -44 57 -98 82 -120z m-580 143 c0 -15 -38 -39 -85 -53 -47 -15 -97 -37 -112 -48 -22 -16 -26 -12 -20 19 5 22 23 38 43 36 19 -1 34 5 34 14 0 8 25 25 55 36 76 27 85 27 85 -4z m1531 -85 c24 33 60 46 40 14 -6 -10 -4 -22 4 -27 8 -5 4 -6 -10 -2 -14 3 -25 -3 -25 -14 0 -10 9 -19 20 -19 12 0 12 -18 0 -51 -26 -67 -25 -74 5 -59 14 7 8 -1 -14 -19 -25 -20 -43 -24 -51 -10 -7 11 -28 15 -47 8 -30 -12 -43 9 -35 58 7 39 -44 -4 -114 -97 -85 -113 -154 -146 -133 -64 9 37 -1 62 -39 101 -30 29 -52 74 -52 104 l0 52 70 -66 c76 -71 90 -108 35 -89 -26 9 -24 2 9 -25 24 -21 38 -45 30 -54 -8 -8 -3 -9 11 -1 14 8 25 26 25 39 0 14 28 52 62 84 34 33 75 84 91 115 27 51 31 53 61 22 31 -30 35 -30 57 0z m-2162 -59 c21 -16 53 -29 71 -29 18 0 54 -22 80 -50 26 -27 37 -50 25 -50 -13 0 -28 8 -34 18 -6 11 -59 34 -116 53 -123 40 -123 40 -106 68 17 28 33 26 80 -10z m823 8 c10 -16 4 -20 -19 -11 -18 7 -33 5 -33 -5 0 -10 -31 -28 -70 -41 -38 -13 -70 -30 -70 -38 0 -9 -13 -15 -30 -15 -52 0 -33 48 35 90 73 45 165 55 187 20z m-571 -88 c62 -39 78 -60 69 -89 -31 -97 109 -239 238 -241 l82 -2 -66 -32 c-81 -41 -178 1 -244 103 -40 64 -56 40 -20 -29 17 -31 15 -36 -11 -26 -18 7 -41 32 -51 55 -15 35 -17 30 -11 -25 4 -44 -3 -70 -21 -77 -23 -9 -21 -18 6 -48 19 -21 25 -38 13 -38 -12 0 -26 11 -31 25 -6 17 -23 11 -58 -20 -44 -41 -70 -45 -287 -48 -132 -2 -214 -7 -184 -11 l55 -9 0 -178 0 -179 -57 0 c-54 0 -57 4 -45 62 7 35 8 120 2 191 -12 142 15 189 123 214 58 14 88 65 59 101 -23 27 29 160 55 144 10 -7 30 2 43 18 29 35 63 37 165 9 77 -21 101 -70 45 -92 -16 -6 -30 -22 -30 -35 0 -15 -40 -23 -113 -23 -107 1 -114 -2 -129 -54 -33 -123 253 -29 340 111 22 35 58 84 81 109 40 43 40 45 5 45 -35 0 -79 37 -112 95 -21 37 -1 31 89 -26z m1402 18 c57 -51 45 -82 -48 -129 -47 -24 -109 -60 -138 -81 -62 -43 -86 -48 -64 -12 10 17 4 16 -19 -2 -29 -24 -34 -24 -34 1 0 17 54 73 120 126 66 53 120 104 120 113 0 26 23 20 63 -16z m456 -87 c-2 -31 -86 -107 -94 -85 -6 17 -22 8 -49 -25 -22 -29 -68 -65 -103 -81 -48 -22 -51 -26 -13 -16 28 6 69 29 93 51 33 30 45 33 53 12 7 -17 34 0 82 54 74 84 98 68 37 -25 -19 -29 -24 -47 -10 -38 14 9 25 6 25 -6 0 -13 -31 -41 -70 -64 -38 -22 -70 -54 -70 -69 0 -15 -10 -28 -21 -28 -12 0 -17 7 -11 16 5 9 -32 -4 -84 -29 -94 -45 -245 -48 -181 -3 19 14 11 17 -26 11 -37 -6 -50 -1 -44 17 10 24 57 52 94 56 9 1 27 16 40 32 12 17 57 56 99 87 42 31 87 79 98 105 20 42 158 68 155 28z m-397 -137 c-22 -32 -36 -62 -31 -67 13 -13 -163 -158 -185 -153 -9 2 -41 -7 -72 -20 -31 -13 -59 -23 -63 -23 -40 0 -2 182 45 213 272 182 417 205 306 50z m-842 39 c0 -25 -101 -88 -117 -72 -7 7 8 31 34 52 51 41 83 49 83 20z m48 -39 c14 -22 -104 -108 -128 -93 -33 20 5 -57 54 -110 60 -65 58 -75 -14 -64 -33 5 -60 0 -60 -11 0 -11 -16 -24 -35 -29 -30 -8 -34 3 -28 77 4 48 15 82 25 76 10 -6 13 2 7 18 -18 46 154 177 179 136z m-553 -232 c-50 -49 -95 -33 -95 34 0 26 10 36 29 28 17 -6 35 -2 42 9 8 13 23 12 41 -4 24 -20 22 -30 -17 -67z m278 52 c-44 -49 -43 -123 2 -123 27 -1 29 -4 8 -18 -22 -14 -21 -27 5 -78 39 -76 42 -105 5 -55 -26 35 -28 35 -40 -14 -24 -95 5 -175 65 -175 116 1 192 57 117 87 -19 7 -18 15 5 31 24 17 19 21 -24 22 -50 0 -54 -5 -43 -60 11 -54 7 -60 -38 -60 -38 0 -53 13 -60 49 -5 28 -2 45 7 40 19 -12 81 100 76 136 -15 118 84 99 108 -20 9 -47 25 -85 36 -85 11 0 14 11 6 23 -31 50 -43 177 -18 177 43 0 74 -55 69 -124 -10 -146 1 -236 29 -236 19 0 25 -14 17 -43 -8 -30 -4 -39 12 -29 17 11 18 1 3 -38 -18 -46 -4 -74 131 -264 160 -227 188 -289 149 -336 -39 -47 -74 -36 -170 53 -82 75 -123 140 -67 105 15 -9 18 -5 9 9 -8 13 -23 19 -33 13 -9 -6 -65 70 -123 169 -67 115 -110 171 -120 155 -12 -18 -15 -18 -16 1 0 15 -16 9 -40 -15 -69 -69 -133 -30 -68 42 31 34 32 46 10 81 -17 29 -19 48 -5 62 14 14 25 4 34 -32 7 -29 22 -53 34 -53 11 0 15 20 8 45 l-11 45 34 -42 c57 -72 86 -117 126 -199 21 -44 33 -61 26 -39 -15 48 -47 163 -62 226 -12 51 28 55 66 6 18 -23 24 -22 35 9 27 68 -19 82 -232 73 -93 -4 -143 -77 -74 -111 11 -5 9 -8 -5 -5 -15 3 -35 22 -46 44 -19 37 -49 38 -855 33 -459 -3 -835 1 -835 8 0 7 23 61 52 120 29 58 58 154 65 212 l13 105 100 -3 c68 -2 98 -11 94 -27 -7 -32 72 -277 110 -336 28 -46 28 -46 -48 -40 l-76 6 -50 184 c-28 101 -57 190 -65 198 -8 7 -6 -15 4 -49 11 -38 10 -116 -3 -201 l-21 -140 -82 -7 c-46 -5 255 -10 669 -12 414 -1 794 3 845 10 l93 12 -5 229 c-4 207 -1 232 34 258 53 39 64 35 24 -9z m1407 -13 c0 -5 -18 -28 -40 -50 -22 -22 -40 -36 -40 -32 0 5 -5 22 -11 39 -8 18 2 33 25 39 55 14 66 15 66 4z m-1064 -52 c20 -27 18 -38 -10 -60 -19 -16 -28 -18 -19 -4 8 13 -2 33 -22 44 -30 18 -31 24 -6 41 17 10 30 17 31 15 1 -2 12 -19 26 -36z m-441 -50 c-7 -7 -36 -13 -64 -13 -30 0 -51 -11 -51 -27 0 -18 -23 -28 -62 -28 -55 0 -61 -5 -51 -45 7 -25 13 -61 13 -80 0 -19 10 -35 21 -35 13 0 16 17 9 40 -8 26 -4 40 14 40 15 0 27 -25 28 -60 2 -46 -6 -60 -35 -60 -24 0 -37 -14 -37 -41 0 -44 18 -40 88 19 36 30 38 29 25 -5 -7 -20 -13 -45 -13 -55 0 -31 -125 -20 -163 15 -28 25 -37 62 -37 156 0 141 20 170 119 173 39 2 55 7 36 12 -37 10 -49 46 -14 46 11 0 44 -16 74 -35 48 -31 52 -32 40 -2 -18 47 7 63 43 28 16 -17 24 -36 17 -43z m1165 26 c41 -21 50 -41 52 -109 1 -46 -4 -80 -11 -76 -36 23 -70 -28 -36 -53 76 -56 81 -159 9 -152 -56 5 -65 15 -74 74 -5 38 -22 73 -37 78 -22 7 -24 -9 -13 -74 l14 -82 -96 0 c-75 0 -91 5 -72 24 15 15 24 92 24 210 l0 186 95 0 c52 0 118 -12 145 -26z m619 -184 l3 -210 -81 0 -81 0 0 180 0 180 60 0 c40 0 60 10 60 30 0 17 8 30 18 30 9 0 19 -94 21 -210z m-2799 105 c92 -99 84 -302 -13 -311 -59 -6 -63 -2 -75 80 -20 129 -44 158 -73 85 -18 -48 -17 -70 8 -114 17 -30 24 -55 15 -55 -33 0 -63 94 -58 183 3 51 12 89 19 85 7 -4 17 11 23 34 9 34 4 40 -27 32 -22 -6 -34 -2 -28 8 23 38 166 19 209 -27z m334 2 c53 -50 68 -140 16 -97 -26 22 -30 9 -30 -98 0 -95 -7 -122 -30 -122 -24 0 -30 28 -30 135 0 74 -6 155 -13 180 -15 59 25 59 87 2z m166 -137 c0 -167 -3 -180 -40 -180 -36 0 -40 13 -40 129 0 71 -10 135 -21 142 -26 16 34 89 74 89 21 0 27 -43 27 -180z m156 -5 l6 -175 -51 0 c-51 0 -51 0 -51 181 0 177 1 182 45 175 42 -6 45 -17 51 -181z m-1356 -470 c0 -23 -179 -83 -191 -64 -5 10 8 27 30 39 23 12 41 16 41 10 0 -7 16 -3 35 8 42 25 85 28 85 7z m117 -40 c40 -39 17 -50 -44 -23 -59 27 -75 85 -18 63 19 -7 47 -25 62 -40z m102 -190 c1 -19 -11 -35 -25 -35 -15 0 -24 22 -23 55 2 30 -6 61 -17 68 -10 7 -12 24 -3 39 18 29 66 -61 68 -127z m-199 98 c0 -37 -19 -52 -52 -39 -42 16 -33 66 12 66 22 0 40 -12 40 -27z m77 -88 c-6 -33 -15 -37 -55 -22 -46 17 -47 19 -11 58 41 45 76 26 66 -36z m-326 -21 c0 -23 7 -48 15 -56 24 -24 16 -72 -11 -63 -14 5 -25 18 -25 30 0 12 -7 28 -15 37 -26 25 -17 112 10 103 14 -5 25 -27 26 -51z m203 -76 l-42 -44 -44 42 -44 42 42 44 42 44 44 -42 44 -42 -42 -44z m-104 -88 c7 -11 52 -20 100 -20 48 0 93 9 100 20 16 26 70 26 70 0 0 -22 -69 -54 -146 -67 -50 -10 -194 42 -194 69 0 24 55 23 70 -2z"/> <path d="M3380 4772 c-38 -12 -72 -34 -75 -49 -4 -14 3 -20 15 -13 11 7 20 3 20 -9 0 -37 51 -23 98 27 55 58 35 73 -58 44z"/> <path d="M3446 4695 c-59 -67 -69 -91 -43 -107 14 -9 18 -6 9 9 -10 15 6 23 47 23 53 0 64 -9 74 -61 16 -78 30 -63 38 40 5 77 -16 109 -38 56 -5 -14 -11 0 -11 30 -2 67 -22 69 -76 10z"/> <path d="M3603 4550 c-1 -55 6 -113 17 -130 25 -38 25 34 1 150 l-16 80 -2 -100z"/> <path d="M4049 3984 c-125 -7 -148 -23 -149 -104 0 -47 -6 -50 -88 -43 -74 6 -86 12 -77 45 5 21 0 38 -11 38 -12 0 -25 11 -30 25 -4 14 -5 7 -1 -15 3 -22 7 -69 7 -104 0 -60 3 -62 59 -46 32 9 111 12 175 6 64 -5 139 0 166 11 45 18 40 21 -44 22 -51 0 -99 10 -106 21 -7 11 2 20 20 20 18 0 28 8 22 17 -6 9 1 18 14 19 13 2 51 6 84 9 33 4 79 17 102 30 24 13 48 18 55 11 7 -7 13 2 13 20 0 23 -15 32 -46 29 -26 -3 -100 -8 -165 -11z"/> <path d="M4424 3971 c33 -36 -24 -89 -86 -81 -57 7 -61 4 -49 -41 11 -44 6 -49 -51 -49 -51 0 -59 -5 -40 -27 17 -21 10 -40 -28 -81 -27 -30 -50 -63 -50 -73 0 -10 -13 -19 -30 -19 -19 0 -30 -19 -30 -50 0 -27 -9 -50 -20 -50 -11 0 -18 -10 -15 -22 7 -30 -61 -41 -78 -13 -8 13 -3 16 15 7 15 -8 11 -1 -11 17 -30 24 -43 26 -57 6 -11 -16 -13 -11 -3 15 8 22 13 61 12 86 -2 25 6 41 16 35 10 -6 24 7 31 29 7 22 21 35 31 29 11 -6 19 -2 19 10 0 11 14 21 30 21 17 0 30 9 30 20 0 56 -183 20 -206 -40 -21 -55 -30 -60 -121 -60 -80 0 -95 5 -85 32 7 17 12 37 12 45 0 7 8 1 17 -14 10 -15 41 -23 75 -18 58 7 51 15 -42 44 -19 6 -31 37 -32 85 -3 74 -3 73 -22 -24 -38 -206 -44 -190 66 -190 93 0 98 -3 87 -46 -8 -31 2 -57 29 -82 22 -20 51 -87 64 -149 14 -62 37 -127 51 -145 15 -17 27 -46 27 -65 0 -58 36 -36 60 37 14 41 32 65 45 57 12 -7 16 -4 9 6 -6 11 15 75 47 143 33 68 59 135 59 149 0 40 60 117 81 104 11 -6 19 -2 19 9 0 10 49 85 109 164 60 80 103 154 97 165 -7 11 -20 3 -28 -18 -13 -32 -15 -33 -17 -5 0 18 -12 40 -26 48 -14 8 -19 7 -11 -1z"/> <path d="M4560 3102 c0 -13 -9 -19 -20 -12 -11 7 -20 4 -20 -5 0 -10 -22 -30 -50 -45 -49 -26 -69 -80 -30 -80 11 0 20 14 20 30 0 17 14 30 30 30 17 0 30 10 30 21 0 12 8 16 18 10 19 -12 50 48 32 65 -5 6 -10 0 -10 -14z"/> <path d="M4433 2890 c-17 -16 -38 -30 -48 -30 -9 0 -35 -14 -56 -31 -22 -18 -27 -26 -12 -18 32 16 110 -62 96 -97 -8 -19 -10 -19 -11 0 -4 61 -80 68 -110 11 -17 -30 -31 -43 -31 -29 -1 15 -10 21 -21 14 -31 -19 -24 -216 10 -264 29 -42 110 -44 110 -3 0 11 26 28 59 39 51 19 57 28 48 85 -8 48 0 73 31 101 53 48 54 106 2 122 -68 22 -48 70 29 70 81 0 110 30 46 47 -72 20 -110 15 -142 -17z m-45 -215 c9 8 9 -10 1 -41 -10 -40 -4 -67 22 -95 37 -41 33 -47 -19 -27 -21 8 -32 37 -32 80 0 37 -9 68 -20 68 -11 0 -20 10 -20 22 0 17 7 17 27 1 15 -13 33 -16 41 -8z m-59 -132 c-16 -17 -89 62 -88 95 0 22 15 14 49 -27 26 -33 44 -63 39 -68z"/> <path d="M4814 2822 l76 -97 60 30 c33 17 63 33 66 36 13 10 -57 129 -75 129 -10 0 -32 -20 -49 -43 -26 -38 -32 -39 -43 -12 -7 18 -25 28 -41 22 -15 -6 -28 -1 -28 11 0 12 -10 22 -21 22 -12 0 12 -44 55 -98z"/> <path d="M4625 2834 c-79 -36 -88 -166 -14 -203 23 -12 37 -36 33 -56 -9 -44 22 -45 57 -3 20 24 21 40 4 67 -22 36 -15 61 18 61 10 0 17 -13 17 -30 0 -16 9 -30 20 -30 11 0 20 -10 20 -21 0 -12 -7 -17 -16 -12 -8 6 -30 -17 -49 -49 -30 -52 -30 -61 -4 -71 34 -13 89 26 89 64 0 14 11 29 24 34 19 6 19 25 0 86 -42 138 -54 146 -123 80 -44 -42 -61 -50 -61 -27 0 17 14 37 30 43 31 12 41 64 15 79 -8 5 -35 0 -60 -12z"/> <path d="M4953 2694 c6 -9 -9 -22 -33 -28 -29 -8 -35 -17 -20 -26 19 -12 18 -26 -1 -62 -18 -34 -19 -48 -2 -54 13 -4 23 -40 23 -79 0 -91 17 -77 23 19 3 41 10 73 16 72 40 -3 61 8 61 34 0 17 -9 30 -20 30 -31 0 -24 43 13 83 31 35 30 37 -18 33 -29 -3 -47 -12 -42 -22z"/> <path d="M4519 2558 c-25 -15 -25 -21 -1 -36 33 -21 75 -9 88 25 12 30 -47 37 -87 11z"/> <path d="M4957 2425 c-5 -124 -12 -173 -28 -213 -11 -26 -9 -34 6 -25 13 8 32 -2 43 -22 19 -31 21 -30 21 11 1 25 15 50 31 57 43 16 37 113 -12 196 -52 89 -57 89 -61 -4z"/> <path d="M4505 2416 c5 -30 -1 -58 -13 -62 -16 -6 -15 -26 2 -72 22 -60 -12 -102 -85 -102 -4 0 -14 45 -21 100 -8 64 -23 100 -40 100 -63 0 -51 -174 22 -313 43 -81 39 -167 -6 -167 -20 0 -47 -11 -60 -24 -19 -19 -24 -18 -24 1 0 44 41 105 62 92 26 -16 2 87 -34 145 -16 25 -28 63 -28 86 0 24 -8 37 -18 31 -27 -17 -39 -109 -14 -119 14 -6 14 -9 -3 -10 -17 -2 -19 -16 -6 -48 9 -26 15 -82 12 -125 -2 -44 5 -97 16 -119 12 -22 23 -52 26 -68 2 -15 15 -37 28 -50 18 -17 19 -11 0 28 -22 47 -21 48 8 11 17 -21 31 -53 32 -70 0 -17 13 -62 27 -101 60 -159 59 -155 16 -105 l-40 44 -32 -49 c-43 -66 -41 -80 20 -107 42 -19 50 -34 40 -72 -7 -27 -3 -54 8 -61 89 -55 -27 -201 -148 -186 -38 4 -65 1 -59 -8 17 -28 136 -17 183 16 25 17 59 27 75 20 36 -13 38 31 5 121 -21 59 -19 73 19 124 25 34 33 58 19 57 -13 0 -55 2 -94 5 l-70 6 60 14 c33 7 78 8 100 0 22 -7 74 -9 116 -4 54 7 87 0 115 -26 21 -19 39 -26 39 -14 0 12 -11 27 -25 33 -14 6 31 9 100 8 166 -4 182 15 117 137 -60 112 -69 207 -20 207 24 0 29 12 21 45 -7 25 -13 59 -13 75 -1 23 -8 21 -31 -9 -29 -38 -29 -38 -29 0 -1 79 -32 86 -35 8 -4 -106 -44 -178 -44 -81 -1 98 -25 61 -34 -52 -5 -53 -9 -109 -11 -126 -2 -16 4 -60 13 -98 10 -42 8 -63 -4 -55 -21 13 -40 83 -74 266 -9 46 -27 69 -69 83 -39 14 -60 38 -68 77 -6 32 -30 79 -53 105 -52 61 -52 69 1 41 35 -19 40 -18 26 4 -25 40 -32 197 -8 197 11 0 20 -19 20 -42 0 -23 15 -67 33 -98 21 -36 27 -69 17 -93 -22 -50 -13 -90 27 -119 47 -35 52 -20 11 42 -29 45 -30 56 -7 71 36 22 58 -13 59 -94 0 -35 12 -67 28 -73 40 -16 52 3 50 74 l-3 62 -16 -60 c-17 -59 -17 -59 -11 10 4 39 -2 87 -13 108 -11 21 -19 74 -19 117 1 75 0 77 -35 46 -35 -31 -38 -26 -71 113 -35 145 -106 273 -85 152z m-40 -590 c-29 -11 -34 -46 -6 -46 63 0 122 -41 97 -68 -19 -20 -30 -21 -41 -5 -8 13 -15 -22 -15 -77 0 -55 -9 -113 -19 -129 -11 -18 -14 14 -7 85 8 87 3 126 -23 165 -32 49 -8 135 27 97 7 -8 1 -17 -13 -22z m172 -164 c20 -12 21 -21 4 -31 -17 -11 -13 -22 11 -40 27 -20 29 -28 8 -41 -17 -11 -21 -8 -12 7 9 14 1 23 -18 23 -24 0 -29 11 -19 43 9 28 6 38 -9 28 -12 -7 -22 -4 -22 8 0 25 20 26 57 3z m-77 -80 c0 -21 8 -42 19 -45 10 -4 25 -33 32 -65 11 -41 8 -54 -8 -44 -13 8 -23 26 -23 41 0 14 -13 37 -30 51 -34 28 -41 100 -10 100 11 0 20 -17 20 -38z"/> <path d="M4700 2420 c0 -11 8 -20 17 -20 15 0 55 -321 49 -395 -1 -14 7 -25 18 -25 10 0 13 -18 6 -40 -7 -23 -4 -40 9 -40 12 0 22 48 24 115 2 94 4 103 15 47 11 -61 15 -65 39 -35 64 76 100 -3 38 -82 -13 -16 -13 -25 -1 -25 28 0 66 92 66 156 -1 39 -6 46 -18 26 -22 -34 -64 -11 -49 28 7 18 -8 38 -41 53 -29 13 -52 38 -51 55 0 29 2 29 25 0 31 -41 74 -26 74 26 0 33 -10 39 -50 31 -44 -8 -52 0 -71 68 -19 71 -99 117 -99 57z"/> <path d="M4620 2231 c0 -16 8 -34 18 -40 22 -13 67 38 48 56 -23 24 -66 14 -66 -16z"/> <path d="M4940 1612 c0 -8 24 -46 52 -83 33 -43 49 -84 42 -109 -8 -31 -1 -40 33 -38 24 0 32 6 18 11 -14 6 -25 25 -26 44 0 18 -27 68 -60 112 -32 43 -59 71 -59 63z"/> <path d="M4240 1289 c0 -38 9 -50 33 -45 51 9 55 50 8 75 -37 20 -41 17 -41 -30z"/> <path d="M4574 1327 c-29 -29 -15 -228 17 -240 47 -18 58 6 59 129 0 109 -32 156 -76 111z"/> <path d="M4240 1140 c0 -92 51 -114 72 -30 16 63 -2 110 -41 110 -23 0 -31 -21 -31 -80z"/> <path d="M1692 3497 c6 -11 -4 -37 -23 -58 -20 -22 -29 -45 -22 -52 7 -8 13 -3 13 11 0 13 9 19 20 12 11 -7 20 -2 20 11 0 14 17 19 40 13 22 -6 45 -2 51 8 6 10 1 18 -11 18 -12 0 -17 9 -10 20 7 11 5 21 -4 22 -9 0 -32 4 -51 8 -19 3 -30 -2 -23 -13z"/> <path d="M2288 3052 c-6 -17 -3 -56 7 -86 l19 -56 9 76 c9 78 -14 121 -35 66z"/> <path d="M2101 1801 c-27 -50 -26 -61 6 -61 15 0 37 23 49 50 29 63 -22 73 -55 11z"/> <path d="M3173 1625 c-43 -30 -67 -57 -53 -62 13 -4 53 20 87 55 75 75 68 76 -34 7z"/> <path d="M3190 1559 c-136 -67 -73 -58 80 12 55 25 87 46 70 47 -16 0 -84 -26 -150 -59z"/> <path d="M2860 440 c40 -78 80 -106 80 -55 0 36 -65 124 -95 130 -18 4 -13 -21 15 -75z"/> <path d="M3300 1364 c0 -21 -6 -68 -13 -104 -12 -62 -11 -64 31 -41 35 19 43 38 38 96 -6 75 -56 119 -56 49z"/> <path d="M1167 1312 c7 -19 27 -83 45 -144 39 -137 57 -127 39 21 -10 83 -24 117 -55 133 -36 19 -40 18 -29 -10z"/> <path d="M422 4409 c60 -88 482 -609 493 -609 6 0 -2 16 -19 35 -16 19 -122 152 -235 295 -199 251 -304 374 -239 279z"/> <path d="M1052 3605 c350 -451 552 -705 563 -705 6 0 -2 16 -19 35 -16 19 -171 217 -344 440 -173 223 -319 405 -325 405 -6 0 51 -79 125 -175z"/> <path d="M1738 2737 c100 -130 123 -173 81 -146 -35 21 1 -137 37 -166 118 -93 165 28 55 141 -45 46 -125 134 -178 194 l-97 110 102 -133z"/> <path d="M5235 1006 c36 -5 94 -5 130 0 36 4 7 8 -65 8 -71 0 -101 -4 -65 -8z"/> </g> </svg> 