<svg xmlns="http://www.w3.org/2000/svg" xmlns:xlink="http://www.w3.org/1999/xlink" width="1080" height="1080" version="1.1" viewBox="0 0 1080 1080" xml:space="preserve"><desc>Created with Fabric.js 5.2.4</desc><g id="c275cebb-494d-401f-960e-18694f808919" transform="matrix(1 0 0 1 540 540)"><rect style="stroke:none;stroke-width:1;stroke-dasharray:none;stroke-linecap:butt;stroke-dashoffset:0;stroke-linejoin:miter;stroke-miterlimit:4;fill:#fff;fill-rule:nonzero;opacity:1;visibility:hidden" width="1080" height="1080" x="-540" y="-540" rx="0" ry="0" vector-effect="non-scaling-stroke"/></g><g><g><g><path style="stroke:none;stroke-width:1;stroke-dasharray:none;stroke-linecap:butt;stroke-dashoffset:0;stroke-linejoin:miter;stroke-miterlimit:4;fill:#000;fill-rule:nonzero;opacity:1" stroke-linecap="round" d="M 1842 5758 C 1804 5750 1766 5729 1756 5712 C 1746 5694 1726 5680 1711 5680 C 1696 5680 1686 5664 1687 5645 C 1689 5626 1678 5612 1663 5616 C 1645 5619 1641 5608 1651 5578 C 1658 5554 1656 5540 1646 5546 C 1636 5552 1629 5462 1630 5339 C 1631 5179 1625 5118 1606 5111 C 1592 5106 1580 5087 1580 5071 C 1580 5054 1570 5040 1559 5040 C 1547 5040 1543 5032 1549 5022 C 1555 5012 1542 5008 1520 5014 C 1491 5022 1475 5012 1463 4977 C 1423 4871 1471 4876 1591 4990 C 1677 5071 1740 5109 1711 5062 C 1705 5051 1713 5040 1728 5037 C 1753 5031 1753 5025 1728 4990 C 1703 4957 1696 4955 1680 4979 C 1655 5020 1440 4773 1313 4557 C 1252 4452 1249 4440 1290 4440 C 1330 4440 1328 4411 1286 4377 C 1264 4359 1257 4358 1267 4375 C 1277 4392 1272 4396 1251 4388 C 1234 4381 1220 4366 1220 4354 C 1220 4342 1207 4350 1192 4371 C 1172 4398 1170 4418 1183 4434 C 1194 4447 1199 4465 1194 4474 C 1188 4483 1214 4521 1252 4559 C 1291 4599 1320 4648 1320 4676 C 1320 4709 1329 4721 1348 4713 C 1378 4702 1408 4749 1404 4800 C 1402 4820 1405 4822 1412 4805 C 1426 4775 1460 4792 1460 4829 C 1460 4861 1360 4864 1359 4833 C 1359 4820 1350 4826 1338 4845 C 1327 4865 1308 4875 1296 4867 C 1283 4859 1280 4863 1288 4877 C 1296 4890 1295 4900 1285 4900 C 1276 4900 1233 4932 1191 4971 L 1114 5041 L 1070 5000 C 1047 4978 1021 4966 1014 4973 C 1006 4981 1000 4974 1000 4958 C 1000 4943 973 4901 942 4865 C 890 4806 873 4701 921 4730 C 962 4756 972 4630 934 4564 C 913 4528 901 4493 908 4486 C 914 4479 920 4485 920 4499 C 920 4514 933 4519 953 4512 C 979 4502 981 4505 963 4527 C 945 4548 946 4560 967 4578 C 989 4596 998 4594 1008 4569 C 1014 4552 1030 4544 1042 4552 C 1056 4560 1061 4555 1055 4538 C 1050 4523 1035 4512 1022 4515 C 1010 4518 1000 4512 1000 4501 C 1000 4491 984 4479 965 4474 C 933 4465 933 4464 966 4462 C 986 4461 997 4452 991 4442 C 985 4432 994 4419 1010 4413 C 1027 4406 1041 4412 1042 4426 C 1050 4503 1079 4563 1102 4549 C 1112 4542 1116 4529 1109 4519 C 1103 4509 1113 4506 1132 4514 C 1158 4524 1162 4520 1149 4499 C 1122 4455 1124 4403 1153 4391 C 1201 4373 1183 4335 1132 4348 C 1087 4359 1057 4331 1052 4272 C 1049 4246 1000 4232 1000 4257 C 1000 4268 1009 4283 1020 4290 C 1032 4297 1035 4313 1027 4324 C 1019 4338 1023 4340 1040 4330 C 1057 4319 1061 4322 1052 4337 C 1030 4372 1020 4365 997 4300 C 965 4209 875 4275 888 4380 C 893 4419 893 4434 887 4415 C 875 4372 828 4369 813 4410 C 806 4427 787 4440 771 4440 C 754 4440 740 4450 740 4462 C 740 4474 714 4517 682 4558 C 650 4598 621 4649 617 4670 C 613 4692 601 4721 590 4734 C 579 4748 560 4771 547 4786 C 535 4801 519 4832 512 4855 C 504 4878 485 4907 469 4921 C 445 4941 444 4951 465 4976 C 485 5002 485 5005 464 4992 C 447 4982 428 4989 412 5011 C 335 5116 310 4928 378 4754 C 406 4682 406 4640 378 4680 C 344 4729 378 4620 420 4547 C 440 4512 577 4332 724 4147 C 872 3962 1120 3648 1275 3450 C 1431 3252 1662 2961 1789 2803 C 1916 2645 2020 2510 2021 2503 C 2024 2430 2125 2418 2240 2478 C 2378 2550 2388 2552 2362 2504 C 2351 2483 2308 2456 2266 2443 C 2224 2430 2163 2396 2130 2367 L 2070 2315 L 2150 2359 C 2227 2402 2228 2402 2182 2362 C 2156 2338 2111 2315 2082 2309 C 2004 2292 1971 2270 1963 2228 C 1956 2196 1959 2195 1989 2219 C 2015 2240 2012 2229 1980 2174 C 1956 2133 1927 2100 1915 2100 C 1903 2100 1910 2118 1930 2140 C 2004 2222 1940 2200 1848 2111 C 1796 2061 1751 2020 1750 2020 C 1729 2020 1763 2113 1791 2134 C 1813 2149 1830 2170 1830 2180 C 1830 2205 1979 2340 2008 2341 C 2043 2342 2105 2396 2093 2415 C 2078 2439 2010 2433 1977 2405 C 1887 2331 1858 2349 1692 2569 C 1605 2684 1525 2773 1514 2766 C 1502 2759 1500 2764 1509 2778 C 1527 2808 1483 2864 1455 2847 C 1443 2839 1440 2843 1448 2857 C 1465 2884 1366 3021 1334 3014 C 1322 3012 1311 3028 1311 3050 C 1310 3072 1298 3088 1284 3085 C 1269 3081 1262 3086 1267 3095 C 1282 3119 1247 3170 1216 3171 C 1202 3171 1193 3184 1196 3198 C 1204 3234 1160 3283 1135 3267 C 1123 3259 1120 3263 1128 3277 C 1146 3306 1042 3444 1015 3427 C 1003 3420 1000 3423 1007 3435 C 1014 3446 1001 3477 978 3503 C 956 3529 944 3537 952 3522 C 961 3503 958 3499 943 3508 C 930 3516 925 3532 932 3543 C 948 3569 880 3643 854 3626 C 843 3619 840 3624 848 3637 C 866 3666 762 3804 735 3787 C 723 3780 720 3783 727 3795 C 734 3807 663 3919 568 4043 C 314 4376 253 4539 327 4682 C 349 4724 349 4733 328 4733 C 294 4733 271 4585 288 4474 C 297 4415 295 4399 281 4420 C 257 4455 256 4681 278 4910 C 294 5075 291 5114 267 5048 C 260 5027 238 4992 219 4970 C 199 4948 181 4908 177 4880 C 173 4853 163 4825 155 4819 C 114 4788 82 4583 102 4477 C 114 4418 128 4337 133 4296 C 141 4240 151 4226 175 4235 C 195 4242 202 4239 193 4225 C 186 4213 193 4190 209 4174 C 225 4158 233 4139 226 4132 C 219 4126 224 4120 238 4120 C 251 4120 257 4111 250 4099 C 242 4088 264 4050 298 4015 C 343 3969 353 3948 335 3936 C 316 3925 318 3921 341 3920 C 357 3920 384 3901 401 3878 C 417 3854 455 3803 486 3764 C 516 3725 538 3683 534 3672 C 530 3660 541 3638 558 3624 C 577 3608 579 3603 562 3612 C 544 3621 539 3618 548 3604 C 555 3592 574 3587 591 3593 C 607 3599 620 3596 620 3585 C 620 3575 643 3556 671 3543 C 699 3530 717 3511 710 3500 C 703 3489 708 3480 720 3480 C 732 3480 737 3471 729 3459 C 722 3448 725 3427 735 3414 C 767 3374 777 3302 753 3294 C 738 3289 743 3274 765 3252 C 784 3233 800 3190 800 3158 C 800 3125 814 3066 830 3026 C 847 2986 855 2937 849 2917 C 841 2893 849 2875 870 2867 C 892 2859 900 2836 896 2797 C 893 2765 900 2732 911 2724 C 935 2708 992 2578 985 2555 C 982 2547 989 2540 1000 2540 C 1027 2540 1102 2389 1084 2369 C 1076 2361 1080 2359 1093 2367 C 1112 2378 1136 2349 1149 2300 C 1166 2237 1187 2202 1212 2192 C 1229 2186 1237 2171 1230 2160 C 1223 2148 1224 2140 1234 2142 C 1289 2151 1304 2137 1296 2081 C 1291 2049 1294 2026 1302 2031 C 1310 2036 1323 2031 1330 2020 C 1337 2009 1353 2005 1365 2013 C 1379 2022 1382 2011 1375 1983 C 1369 1959 1371 1944 1380 1950 C 1389 1955 1399 1924 1403 1880 C 1408 1836 1403 1800 1393 1800 C 1384 1800 1381 1786 1388 1769 C 1394 1752 1387 1734 1370 1727 C 1353 1721 1340 1695 1340 1669 C 1340 1617 1292 1560 1249 1560 C 1233 1560 1220 1549 1220 1535 C 1219 1487 961 1493 919 1541 C 881 1585 766 1601 743 1566 C 736 1555 710 1539 685 1531 C 660 1524 640 1508 640 1497 C 640 1487 631 1483 620 1490 C 609 1497 606 1489 612 1471 C 619 1454 615 1440 604 1440 C 592 1440 578 1456 573 1475 C 564 1504 563 1503 564 1470 C 566 1363 557 1322 520 1280 C 497 1254 487 1228 496 1221 C 506 1215 503 1185 491 1155 C 478 1124 461 1105 454 1113 C 446 1121 446 1096 453 1059 C 461 1021 481 979 498 966 C 525 946 526 936 504 899 C 480 860 481 858 519 870 C 543 877 560 874 560 861 C 560 850 527 840 487 840 C 430 840 398 824 337 765 C 295 724 257 695 254 700 C 244 715 180 646 180 620 C 180 607 191 604 205 613 C 221 622 220 616 202 593 C 165 547 162 421 197 365 C 212 340 219 320 212 320 C 205 320 233 288 274 250 C 350 178 374 171 507 179 C 557 182 580 176 572 163 C 565 151 576 144 598 145 C 620 147 633 154 629 162 C 624 170 634 181 650 187 C 667 194 691 222 704 250 C 718 281 738 297 755 291 C 770 285 777 289 770 300 C 763 311 765 331 773 345 C 782 359 792 388 795 409 C 798 431 811 454 823 462 C 836 470 837 480 825 487 C 815 493 808 525 810 558 C 812 593 802 623 787 628 C 772 634 760 656 760 678 C 760 700 748 729 734 744 C 689 789 677 840 714 826 C 737 817 742 821 731 839 C 719 858 726 861 756 851 C 778 844 803 848 810 860 C 817 871 833 874 846 866 C 859 857 884 850 900 850 C 917 850 941 843 953 835 C 966 826 990 833 1007 850 C 1027 870 1042 873 1051 859 C 1058 847 1077 842 1092 848 C 1107 854 1120 850 1120 839 C 1120 811 1195 816 1207 845 C 1215 865 1217 864 1218 844 C 1220 825 1230 824 1260 840 C 1289 856 1300 855 1300 839 C 1300 826 1314 821 1332 828 C 1350 835 1410 846 1467 852 C 1524 859 1573 868 1578 872 C 1582 875 1604 868 1628 855 C 1692 820 1760 815 1796 844 C 1814 859 1822 860 1814 847 C 1806 834 1814 819 1832 812 C 1877 795 1904 797 1892 817 C 1876 843 2023 862 2052 838 C 2069 824 2081 825 2091 841 C 2101 858 2110 857 2122 837 C 2132 822 2140 820 2140 832 C 2140 844 2154 853 2171 853 C 2192 853 2195 847 2181 833 C 2160 812 2324 640 2364 640 C 2374 640 2377 631 2370 620 C 2363 609 2371 605 2387 612 C 2403 618 2429 605 2445 581 C 2461 559 2478 545 2484 551 C 2495 561 2533 472 2536 432 C 2536 422 2549 407 2563 398 C 2578 389 2590 372 2590 361 C 2590 349 2599 339 2610 338 C 2651 334 2701 297 2689 279 C 2683 269 2687 259 2699 258 C 2758 251 2860 199 2860 176 C 2860 166 2878 168 2900 180 C 2923 192 2949 197 2958 191 C 2967 185 2998 202 3026 228 C 3054 254 3082 271 3087 266 C 3093 261 3092 286 3087 323 C 3081 360 3073 394 3068 398 C 3064 403 3072 420 3085 437 C 3101 457 3102 463 3087 454 C 3074 446 3059 453 3053 469 C 3047 485 3053 502 3066 507 C 3082 514 3078 527 3053 547 C 3033 564 3022 587 3029 599 C 3037 611 3025 620 3001 620 C 2978 620 2960 633 2960 650 C 2960 667 2953 680 2944 680 C 2926 680 2924 830 2942 848 C 2971 878 3159 878 3188 850 C 3206 831 3222 827 3230 840 C 3248 869 3320 865 3320 835 C 3321 818 3325 817 3335 832 C 3355 861 3525 856 3535 826 C 3540 809 3557 807 3593 821 C 3656 845 3701 846 3664 823 C 3624 797 3861 810 3926 837 C 3961 851 4042 855 4146 848 C 4236 842 4335 835 4366 833 C 4425 830 4530 752 4513 724 C 4460 640 4694 738 4798 844 C 4828 875 4838 875 4886 850 C 4917 834 4936 830 4930 841 C 4923 851 4939 859 4964 857 C 4989 856 5034 864 5064 876 C 5098 890 5123 891 5130 879 C 5137 869 5163 860 5188 860 C 5213 860 5240 854 5247 846 C 5269 824 5320 821 5320 842 C 5320 852 5338 860 5359 860 C 5381 860 5428 886 5464 917 C 5500 948 5544 979 5560 985 C 5583 994 5581 997 5553 998 C 5522 1000 5517 1011 5527 1060 C 5540 1125 5535 1130 5481 1101 C 5456 1087 5448 1066 5455 1031 L 5465 980 L 5200 980 C 4947 980 4933 982 4876 1030 C 4806 1089 4841 1098 4915 1040 C 5030 949 5193 1002 5185 1128 C 5181 1180 5184 1183 5199 1150 C 5213 1120 5218 1139 5219 1226 C 5220 1335 5218 1340 5180 1320 C 5148 1303 5140 1305 5140 1330 C 5140 1369 5157 1374 5335 1387 C 5478 1397 5480 1397 5480 1350 C 5480 1288 5442 1205 5407 1192 C 5386 1183 5387 1191 5410 1228 C 5439 1272 5438 1277 5391 1308 L 5340 1341 L 5340 1200 C 5340 1089 5346 1060 5370 1060 C 5411 1060 5481 1123 5466 1147 C 5459 1157 5462 1161 5473 1154 C 5524 1123 5609 1275 5581 1348 C 5570 1377 5565 1400 5570 1400 C 5576 1400 5564 1417 5545 1437 C 5526 1457 5503 1470 5495 1466 C 5487 1461 5480 1466 5480 1477 C 5480 1498 5357 1545 5290 1549 C 5268 1551 5231 1562 5208 1575 C 5184 1588 5158 1592 5149 1584 C 5141 1576 5139 1586 5146 1605 C 5155 1630 5149 1640 5124 1640 C 5095 1641 5094 1643 5120 1660 C 5137 1671 5140 1680 5128 1680 C 5113 1680 5106 1735 5108 1840 C 5109 1928 5117 2000 5126 2000 C 5135 2000 5136 2011 5128 2025 C 5120 2039 5134 2032 5160 2010 C 5186 1988 5201 1981 5193 1994 C 5179 2017 5245 2068 5264 2049 C 5269 2044 5285 2063 5300 2090 C 5315 2118 5334 2140 5343 2140 C 5353 2140 5360 2153 5360 2168 C 5360 2183 5374 2201 5391 2208 C 5408 2214 5417 2228 5411 2238 C 5405 2249 5409 2263 5422 2271 C 5434 2279 5437 2291 5427 2298 C 5386 2327 5320 2486 5339 2509 C 5362 2536 5344 2620 5315 2620 C 5304 2620 5300 2638 5306 2659 C 5311 2681 5307 2701 5296 2705 C 5285 2708 5283 2735 5291 2767 C 5302 2809 5310 2817 5323 2797 C 5333 2781 5335 2798 5327 2839 C 5319 2877 5293 2927 5267 2951 C 5242 2975 5227 3000 5235 3008 C 5242 3016 5236 3017 5219 3011 C 5173 2994 5125 3033 5155 3063 C 5169 3077 5180 3097 5180 3109 C 5180 3121 5171 3117 5160 3100 C 5143 3074 5141 3075 5140 3105 C 5140 3124 5151 3140 5165 3140 C 5182 3141 5180 3147 5160 3160 C 5134 3177 5134 3179 5161 3180 C 5195 3180 5204 3260 5171 3260 C 5157 3261 5157 3266 5170 3275 C 5188 3289 5198 3340 5199 3420 C 5199 3501 5181 3838 5173 3900 C 5168 3940 5174 3976 5187 3984 C 5202 3994 5194 4012 5163 4042 C 5136 4067 5125 4090 5136 4098 C 5158 4111 5158 4220 5137 4220 C 5125 4220 5098 4309 5096 4355 C 5096 4363 5077 4396 5055 4428 C 5022 4474 5018 4492 5036 4522 C 5053 4549 5053 4562 5037 4572 C 5023 4581 5019 4577 5028 4563 C 5036 4549 5030 4540 5012 4540 C 4991 4540 4985 4551 4994 4575 C 5001 4594 4999 4604 4991 4596 C 4968 4575 4920 4631 4920 4679 C 4920 4701 4911 4720 4900 4720 C 4889 4720 4880 4734 4880 4751 C 4880 4768 4858 4804 4831 4831 C 4804 4858 4787 4880 4794 4880 C 4800 4880 4772 4911 4732 4950 C 4688 4991 4663 5029 4672 5043 C 4680 5057 4677 5061 4664 5053 C 4653 5045 4628 5060 4611 5085 C 4594 5110 4573 5131 4565 5132 C 4524 5137 4480 5167 4480 5191 C 4480 5223 4400 5283 4377 5268 C 4368 5262 4360 5272 4360 5289 C 4360 5306 4353 5319 4345 5318 C 4307 5312 4279 5322 4288 5337 C 4298 5354 4268 5372 4154 5418 C 4123 5430 4103 5449 4110 5460 C 4117 5471 4106 5481 4086 5482 C 4021 5484 3974 5497 3962 5515 C 3955 5525 3921 5543 3887 5555 C 3852 5567 3804 5596 3781 5619 C 3752 5648 3725 5658 3698 5649 C 3675 5642 3637 5651 3607 5670 C 3578 5689 3562 5693 3570 5680 C 3581 5663 3572 5663 3537 5682 C 3511 5696 3475 5706 3457 5703 C 3438 5700 3418 5708 3411 5719 C 3403 5731 3389 5740 3378 5740 C 3367 5740 3364 5730 3371 5718 C 3381 5702 3365 5700 3318 5711 C 3280 5719 3232 5727 3210 5729 C 3188 5730 3159 5738 3146 5746 C 3133 5754 3097 5755 3066 5748 C 3035 5740 2927 5733 2825 5732 C 2723 5731 2640 5723 2640 5714 C 2640 5705 2621 5703 2598 5711 C 2574 5718 2549 5715 2543 5704 C 2536 5693 2503 5679 2470 5674 C 2379 5659 2340 5639 2340 5607 C 2340 5592 2324 5573 2305 5566 C 2286 5559 2263 5543 2255 5531 C 2247 5519 2240 5525 2240 5547 C 2240 5567 2229 5580 2215 5575 C 2202 5571 2174 5583 2152 5603 C 2131 5622 2108 5635 2100 5630 C 2092 5625 2076 5644 2063 5671 C 2051 5698 2034 5719 2025 5717 C 2006 5713 1934 5743 1920 5760 C 1915 5767 1879 5766 1842 5758 z M 2368 5139 C 2552 4931 2578 4909 2617 4927 C 2651 4942 2670 4937 2707 4903 C 2769 4844 2792 4849 2751 4912 C 2708 4977 2710 4978 2868 5006 L 3000 5028 L 3003 5099 C 3009 5231 3036 4791 3035 4560 C 3035 4415 3030 4352 3020 4390 C 3008 4439 3004 4427 3002 4330 C 3000 4219 2995 4208 2940 4176 C 2874 4139 2860 4100 2915 4109 C 2993 4122 3014 4087 3028 3917 C 3035 3826 3044 3749 3047 3746 C 3059 3735 3350 3844 3379 3871 C 3478 3964 3540 4003 3540 3972 C 3540 3916 3373 3765 3311 3765 C 3281 3765 3250 3757 3243 3748 C 3236 3738 3221 3730 3210 3729 C 3112 3724 3040 3692 3040 3654 C 3040 3614 3041 3614 3067 3649 C 3091 3683 3093 3680 3085 3623 C 3079 3587 3064 3560 3048 3560 C 3030 3560 3020 3537 3019 3495 C 3019 3441 3015 3436 2998 3465 C 2987 3484 2968 3500 2957 3500 C 2943 3500 2944 3489 2960 3470 C 2974 3453 2976 3440 2965 3440 C 2954 3440 2933 3468 2919 3502 C 2901 3546 2884 3560 2857 3553 C 2837 3548 2824 3551 2830 3560 C 2836 3569 2824 3572 2803 3567 C 2779 3560 2746 3581 2703 3629 C 2618 3726 2623 3763 2709 3678 C 2770 3618 2918 3574 2887 3625 C 2874 3645 2887 3644 2953 3619 C 2984 3607 3003 3603 2996 3610 C 2989 3617 2991 3649 3000 3681 C 3020 3750 3004 3824 2973 3808 C 2960 3802 2966 3810 2985 3826 C 3004 3842 3020 3862 3020 3871 C 3020 3880 3009 3877 2996 3864 C 2911 3779 2886 3827 2865 4115 L 2845 4390 L 2847 4127 C 2848 3872 2870 3780 2930 3780 C 2937 3780 2956 3767 2973 3750 C 2991 3732 2994 3720 2980 3720 C 2966 3720 2962 3704 2970 3680 C 2982 3644 2972 3645 2842 3700 C 2765 3733 2689 3760 2672 3760 C 2656 3760 2633 3776 2622 3795 C 2595 3842 2592 3758 2618 3669 C 2635 3608 2598 3515 2573 3555 C 2546 3599 2564 3813 2599 3859 L 2635 3907 L 2667 3848 C 2684 3816 2699 3802 2699 3816 C 2700 3831 2691 3859 2680 3879 C 2651 3934 2702 3971 2762 3939 C 2801 3918 2804 3919 2792 3953 C 2754 4050 2753 4107 2788 4094 C 2808 4086 2817 4088 2810 4100 C 2803 4111 2785 4120 2769 4120 C 2745 4120 2744 4127 2764 4160 C 2800 4217 2750 4268 2711 4214 C 2690 4186 2680 4183 2668 4203 C 2624 4274 2687 4427 2792 4506 L 2840 4542 L 2840 4466 C 2840 4424 2847 4399 2855 4411 C 2863 4422 2893 4442 2920 4455 L 2970 4479 L 2917 4468 C 2871 4458 2864 4464 2856 4518 C 2850 4560 2855 4580 2872 4580 C 2916 4580 2921 4615 2879 4626 C 2848 4634 2833 4624 2819 4588 C 2809 4562 2797 4540 2792 4540 C 2778 4540 2520 4857 2520 4874 C 2520 4904 2304 5130 2290 5116 C 2282 5108 2317 5047 2368 4979 C 2418 4911 2455 4848 2448 4838 C 2442 4827 2446 4821 2456 4825 C 2495 4836 2727 4516 2706 4482 C 2664 4415 2571 4431 2543 4509 C 2508 4607 2487 4598 2475 4480 C 2463 4345 2452 4340 2368 4432 L 2297 4510 L 2340 4435 C 2376 4373 2380 4349 2363 4295 C 2352 4258 2349 4170 2357 4090 C 2379 3859 2365 3840 2164 3840 C 2072 3840 1981 3831 1961 3820 C 1930 3804 1920 3810 1903 3860 C 1884 3915 1886 3920 1926 3922 C 1960 3924 1962 3927 1935 3934 C 1865 3952 1934 4017 2030 4022 C 2083 4025 2081 4027 2010 4040 L 1930 4054 L 2000 4059 L 2070 4063 L 1990 4089 L 1910 4116 L 1984 4118 C 2052 4120 2059 4126 2071 4186 C 2082 4247 2088 4252 2147 4245 C 2195 4239 2203 4242 2180 4258 C 2164 4270 2135 4280 2117 4280 C 2075 4280 2089 4344 2142 4392 C 2194 4439 2194 4437 2067 4624 C 1968 4770 1947 4789 1900 4784 C 1833 4777 1792 4824 1808 4887 C 1826 4962 1892 4967 1941 4898 C 1964 4866 1977 4840 1970 4840 C 1963 4840 1971 4826 1988 4809 C 2005 4792 2061 4723 2112 4657 L 2205 4537 L 2239 4588 C 2258 4617 2279 4634 2287 4627 C 2294 4619 2300 4628 2300 4647 C 2300 4688 2327 4690 2360 4650 C 2374 4634 2397 4620 2412 4620 C 2427 4620 2417 4641 2387 4671 L 2336 4723 L 2383 4776 L 2430 4830 L 2373 4780 L 2317 4730 L 2273 4790 C 2250 4823 2207 4877 2178 4910 C 2150 4943 2047 5068 1950 5189 L 1773 5407 L 1799 5528 C 1812 5595 1828 5657 1834 5667 C 1848 5689 2109 5431 2368 5139 z M 3281 5580 C 4456 5441 5255 4336 5019 3176 C 4997 3065 4981 2973 4984 2971 C 4987 2970 5014 2953 5044 2934 C 5074 2915 5124 2900 5154 2900 C 5233 2899 5300 2879 5300 2856 C 5300 2845 5284 2842 5265 2850 C 5185 2883 5164 2880 5103 2830 C 5043 2779 5041 2674 5101 2711 C 5112 2717 5116 2731 5110 2740 C 5104 2749 5110 2764 5123 2772 C 5137 2780 5141 2778 5133 2765 C 5126 2753 5131 2738 5145 2732 C 5162 2725 5156 2712 5126 2689 C 5091 2663 5084 2643 5094 2593 C 5100 2558 5099 2536 5090 2544 C 5069 2564 4996 2523 5011 2499 C 5026 2474 5100 2474 5100 2499 C 5100 2509 5118 2523 5140 2530 C 5161 2537 5177 2553 5175 2565 C 5172 2577 5187 2591 5207 2596 C 5270 2609 5237 2533 5165 2500 C 5060 2451 5127 2320 5257 2320 C 5292 2320 5320 2312 5320 2303 C 5320 2293 5295 2288 5265 2292 C 5230 2296 5225 2294 5250 2287 C 5272 2280 5308 2262 5330 2245 C 5368 2217 5368 2216 5332 2228 C 5309 2236 5286 2231 5275 2216 C 5262 2198 5254 2197 5248 2212 C 5239 2233 5047 2233 5026 2213 C 5022 2209 5009 2075 4998 1916 L 4977 1626 L 5051 1510 C 5096 1439 5127 1364 5131 1317 C 5137 1236 5111 1212 5090 1279 C 5078 1316 5007 1354 4987 1334 C 4961 1307 5006 1180 5042 1180 C 5096 1180 5089 1124 5035 1116 C 5010 1113 4990 1097 4990 1080 C 4990 1061 5006 1052 5035 1055 C 5060 1057 5080 1051 5080 1040 C 5080 1029 5053 1020 5019 1020 C 4879 1020 4806 1210 4905 1315 L 4950 1363 L 4871 1356 L 4793 1350 L 4785 1240 C 4772 1063 4645 980 4532 1075 C 4500 1101 4501 1097 4538 1056 C 4567 1022 4581 987 4575 962 C 4556 890 4611 871 4640 939 C 4653 972 4693 1020 4727 1046 L 4790 1094 L 4790 1038 C 4790 995 4781 983 4751 986 C 4727 989 4702 969 4681 930 C 4664 897 4643 865 4634 858 C 4626 852 4624 832 4631 813 C 4640 791 4634 780 4612 780 C 4594 780 4580 796 4580 817 C 4580 837 4561 876 4538 902 C 4515 928 4488 970 4478 995 C 4459 1046 4410 1054 4386 1012 C 4373 989 4247 983 3670 980 C 2710 974 2691 974 2716 1006 C 2730 1022 2731 1042 2719 1061 C 2670 1138 2709 1360 2771 1360 C 2794 1360 2800 1328 2800 1210 C 2800 1063 2801 1060 2850 1060 C 2905 1060 2926 1255 2879 1341 C 2863 1372 2865 1380 2889 1380 C 2907 1380 2914 1392 2907 1410 C 2901 1427 2871 1440 2839 1440 C 2799 1440 2770 1458 2739 1501 C 2715 1535 2691 1557 2685 1551 C 2679 1545 2662 1550 2648 1562 C 2630 1577 2609 1574 2573 1550 C 2545 1532 2519 1526 2512 1537 C 2481 1587 2616 1633 2652 1585 C 2685 1542 2690 1584 2658 1643 C 2615 1724 2655 1752 2722 1688 C 2770 1643 2779 1639 2768 1670 C 2754 1705 2757 1707 2785 1684 C 2803 1669 2823 1630 2831 1597 C 2838 1563 2866 1517 2892 1495 C 2918 1472 2940 1439 2941 1421 C 2941 1404 2954 1373 2971 1351 C 3007 1303 3010 1101 2975 1055 C 2959 1034 2913 1019 2850 1014 C 2795 1010 2950 1006 3195 1004 C 3513 1001 3640 1006 3640 1022 C 3640 1039 3647 1039 3667 1022 C 3706 990 4157 995 4152 1027 C 4150 1040 4136 1071 4122 1097 C 4063 1205 4105 1341 4206 1368 C 4282 1388 4352 1517 4308 1557 C 4278 1585 4275 1585 4291 1559 C 4301 1542 4291 1550 4268 1576 L 4225 1624 L 4181 1562 L 4137 1500 L 4199 1500 C 4232 1500 4260 1491 4260 1480 C 4260 1461 4221 1457 3960 1452 C 3866 1450 3847 1443 3830 1405 C 3819 1380 3794 1360 3775 1360 C 3741 1360 3741 1357 3772 1309 C 3802 1263 3803 1256 3773 1224 C 3744 1191 3745 1184 3781 1129 C 3837 1043 3831 1020 3750 1020 C 3682 1020 3680 1022 3680 1100 C 3680 1146 3670 1180 3658 1180 C 3642 1180 3642 1188 3659 1209 C 3687 1242 3680 1330 3650 1330 C 3639 1330 3627 1261 3624 1175 L 3618 1020 L 3559 1020 L 3500 1020 L 3500 1203 L 3500 1385 L 3604 1375 C 3715 1364 3880 1478 3880 1565 C 3880 1584 3890 1598 3902 1595 C 3932 1588 3996 1677 4030 1771 C 4055 1840 4058 1843 4059 1796 C 4060 1734 4124 1681 4199 1679 C 4245 1677 4246 1676 4210 1661 C 4188 1652 4154 1653 4135 1663 C 4099 1682 4033 1651 3945 1573 C 3877 1513 3889 1500 4010 1500 C 4071 1500 4120 1508 4120 1518 C 4120 1528 4149 1566 4183 1603 C 4275 1700 4284 1833 4195 1771 C 4143 1734 4100 1762 4100 1834 C 4100 1880 4102 1881 4144 1851 C 4207 1807 4220 1812 4217 1875 C 4215 1925 4214 1925 4206 1883 C 4192 1810 4120 1885 4120 1973 C 4120 2035 4111 2044 4015 2088 C 3780 2194 3648 2424 3718 2604 C 3728 2629 3746 2689 3759 2736 C 3772 2783 3789 2817 3798 2811 C 3808 2805 3815 2824 3815 2852 C 3815 2880 3831 2919 3851 2937 C 3877 2960 3882 2961 3867 2940 C 3835 2894 3819 2840 3838 2840 C 3848 2840 3866 2866 3879 2899 C 3893 2931 3920 2972 3940 2990 C 3961 3009 3974 3034 3970 3047 C 3966 3060 3957 3097 3950 3129 C 3935 3198 3912 3175 3879 3054 C 3868 3013 3850 2984 3840 2990 C 3830 2996 3836 3047 3853 3105 C 3900 3261 3881 3390 3802 3464 C 3737 3525 3615 3572 3580 3550 C 3543 3527 3559 3500 3609 3500 C 3680 3500 3757 3460 3771 3415 C 3788 3362 3767 3348 3725 3385 C 3658 3445 3540 3501 3540 3473 C 3540 3459 3526 3430 3510 3409 C 3478 3369 3527 3523 3561 3570 C 3603 3630 3623 3742 3597 3775 C 3578 3798 3577 3803 3595 3793 C 3613 3782 3620 3799 3620 3860 C 3620 3915 3627 3938 3642 3929 C 3657 3919 3660 3930 3649 3962 C 3641 3989 3627 4013 3617 4017 C 3594 4026 3595 4115 3619 4129 C 3629 4136 3645 4128 3654 4113 C 3663 4097 3688 4080 3710 4074 C 3748 4065 3748 4064 3705 4050 C 3664 4037 3641 4000 3674 4000 C 3763 4000 3836 4166 3797 4282 C 3748 4427 3640 4421 3640 4274 C 3640 4232 3632 4203 3621 4209 C 3611 4215 3596 4200 3589 4175 C 3581 4150 3560 4119 3542 4105 C 3513 4082 3513 4081 3545 4092 C 3565 4099 3580 4095 3580 4082 C 3580 4061 3551 4051 3510 4059 C 3499 4062 3497 4057 3505 4049 C 3522 4031 3485 3980 3455 3980 C 3442 3980 3442 3989 3455 4005 C 3467 4019 3480 4080 3485 4140 C 3490 4201 3502 4267 3511 4288 C 3523 4317 3520 4323 3501 4311 C 3481 4299 3481 4304 3498 4337 C 3511 4360 3516 4404 3509 4435 C 3499 4479 3501 4484 3520 4460 C 3536 4439 3541 4438 3536 4457 C 3532 4471 3523 4480 3516 4477 C 3509 4473 3482 4488 3457 4511 C 3378 4580 3254 4655 3175 4679 C 3098 4704 3096 4715 3156 4785 C 3175 4807 3178 4820 3163 4820 C 3150 4820 3140 4832 3140 4847 C 3140 4862 3122 4897 3100 4925 C 3021 5026 3053 5040 3251 4989 C 3316 4973 3414 4932 3468 4898 C 3522 4865 3579 4843 3594 4849 C 3610 4855 3617 4851 3609 4839 C 3602 4828 3629 4783 3668 4740 C 3792 4603 3883 4389 3910 4176 L 3922 4082 L 4091 4084 C 4220 4085 4260 4091 4260 4112 C 4260 4138 4224 4149 4165 4142 C 4113 4135 4021 4199 4034 4233 C 4043 4257 4039 4262 4022 4251 C 4005 4241 3999 4247 4002 4273 C 4006 4293 3997 4331 3983 4357 C 3968 4382 3962 4416 3968 4431 C 3973 4446 3966 4472 3950 4487 C 3935 4503 3928 4522 3936 4529 C 3944 4537 3934 4555 3915 4569 C 3896 4583 3867 4627 3850 4668 C 3833 4709 3806 4747 3789 4753 C 3773 4759 3765 4772 3771 4782 C 3785 4804 3640 4963 3619 4949 C 3610 4944 3589 4959 3572 4983 C 3555 5008 3535 5021 3527 5014 C 3520 5006 3502 5010 3487 5022 C 3472 5035 3446 5039 3427 5032 C 3398 5021 3398 5023 3422 5053 C 3442 5078 3443 5083 3424 5072 C 3410 5064 3385 5068 3368 5082 C 3351 5096 3308 5108 3273 5109 C 3226 5110 3211 5119 3213 5145 C 3214 5164 3207 5175 3198 5169 C 3188 5163 3180 5176 3180 5198 C 3180 5220 3170 5244 3157 5252 C 3143 5261 3139 5257 3148 5243 C 3156 5230 3148 5206 3131 5188 C 3113 5170 3100 5167 3100 5180 C 3100 5192 3090 5196 3078 5189 C 3066 5182 3071 5203 3089 5237 C 3111 5281 3130 5295 3153 5286 C 3176 5277 3182 5281 3172 5296 C 3163 5312 3169 5315 3189 5308 C 3206 5301 3220 5306 3220 5318 C 3220 5330 3229 5340 3240 5340 C 3251 5340 3260 5328 3260 5313 C 3260 5295 3276 5289 3310 5295 C 3340 5301 3360 5295 3360 5281 C 3360 5268 3370 5264 3381 5271 C 3393 5278 3416 5267 3433 5247 C 3449 5227 3457 5221 3450 5235 C 3435 5266 3492 5269 3511 5238 C 3521 5222 3529 5222 3540 5239 C 3550 5257 3563 5254 3587 5230 C 3605 5212 3635 5194 3655 5189 C 3860 5138 3980 5076 3980 5021 C 3980 5009 3991 5001 4005 5004 C 4039 5012 4180 4922 4175 4896 C 4172 4885 4188 4872 4210 4869 C 4254 4862 4482 4622 4475 4590 C 4469 4564 4553 4479 4568 4495 C 4575 4501 4580 4492 4580 4474 C 4580 4456 4599 4405 4622 4361 C 4645 4317 4657 4271 4649 4258 C 4640 4244 4642 4239 4654 4246 C 4675 4259 4731 4165 4722 4132 C 4720 4122 4728 4089 4741 4059 C 4758 4017 4758 3993 4740 3959 C 4724 3930 4723 3920 4738 3929 C 4752 3938 4760 3919 4761 3876 C 4763 3821 4766 3817 4780 3850 C 4794 3882 4797 3875 4799 3814 C 4800 3756 4787 3726 4740 3680 C 4707 3648 4680 3612 4680 3601 C 4680 3590 4660 3583 4635 3585 C 4606 3588 4592 3580 4596 3563 C 4599 3546 4590 3539 4572 3546 C 4556 3553 4538 3543 4531 3524 C 4520 3498 4515 3496 4501 3518 C 4492 3533 4475 3539 4464 3532 C 4424 3507 4419 3559 4458 3598 C 4479 3619 4492 3641 4487 3646 C 4482 3652 4488 3663 4502 3671 C 4517 3681 4521 3678 4512 3663 C 4503 3649 4510 3640 4529 3640 C 4564 3640 4569 3666 4542 3716 C 4532 3737 4533 3770 4545 3800 C 4557 3828 4569 3863 4572 3880 C 4575 3896 4587 3912 4599 3916 C 4611 3920 4615 3931 4609 3941 C 4595 3964 4470 3825 4369 3672 C 4324 3605 4276 3552 4264 3555 C 4251 3558 4240 3544 4240 3525 C 4240 3506 4234 3468 4228 3440 C 4219 3402 4221 3397 4237 3419 C 4295 3502 4269 3413 4209 3325 C 4116 3187 4110 3052 4195 3015 L 4250 2992 L 4173 2984 C 4124 2980 4084 2988 4063 3007 C 4024 3043 3973 3021 3937 2954 C 3914 2910 3914 2910 3957 2948 C 3981 2969 4005 2982 4011 2976 C 4016 2970 4007 2954 3990 2940 C 3974 2926 3960 2901 3960 2884 C 3960 2860 3970 2863 4003 2898 C 4033 2930 4050 2937 4060 2920 C 4068 2907 4080 2897 4087 2898 C 4094 2899 4098 2893 4095 2885 C 4092 2877 4074 2872 4055 2875 C 4014 2880 4007 2821 4044 2784 C 4062 2766 4062 2760 4045 2760 C 4032 2760 4012 2777 4001 2797 C 3984 2830 3953 2836 3876 2823 C 3818 2812 3798 2660 3854 2660 C 3874 2660 3880 2649 3872 2628 C 3863 2605 3868 2599 3889 2607 C 3912 2616 3918 2606 3915 2569 C 3912 2530 3903 2523 3871 2533 C 3841 2542 3846 2532 3891 2492 C 3926 2461 3938 2440 3920 2442 C 3848 2449 3840 2442 3863 2391 C 3876 2363 3894 2346 3903 2352 C 3912 2358 3920 2348 3920 2331 C 3920 2314 3904 2299 3885 2298 C 3863 2297 3860 2293 3876 2287 C 3890 2281 3915 2288 3933 2302 C 3950 2317 3977 2330 3994 2333 C 4040 2339 4051 2360 4008 2360 C 3987 2360 3957 2369 3940 2380 C 3918 2394 3929 2398 3980 2394 C 4085 2388 4109 2355 4049 2299 C 3980 2234 3988 2215 4081 2224 C 4158 2231 4163 2228 4174 2173 C 4185 2122 4188 2120 4206 2152 C 4220 2177 4220 2190 4203 2196 C 4190 2200 4180 2218 4180 2237 C 4181 2265 4183 2266 4200 2240 C 4217 2214 4219 2215 4220 2245 C 4220 2264 4210 2280 4198 2280 C 4186 2280 4180 2292 4186 2306 C 4196 2332 4172 2352 4060 2415 L 4010 2443 L 4065 2431 C 4111 2421 4120 2426 4120 2460 C 4120 2485 4107 2500 4085 2500 C 4062 2500 4049 2517 4047 2550 C 4044 2606 4058 2612 4100 2575 C 4116 2561 4113 2570 4093 2594 C 4058 2636 4058 2637 4093 2628 C 4140 2616 4194 2756 4149 2773 C 4111 2788 4191 2861 4279 2893 C 4318 2907 4334 2919 4315 2919 C 4272 2920 4268 2980 4310 2980 C 4327 2980 4340 2969 4340 2955 C 4341 2938 4346 2939 4359 2959 C 4383 2996 4367 3021 4329 3007 C 4311 3000 4300 3008 4300 3027 C 4300 3045 4314 3055 4335 3051 C 4371 3044 4425 3087 4415 3115 C 4412 3123 4436 3131 4469 3132 C 4508 3133 4543 3153 4573 3192 C 4599 3224 4620 3240 4620 3228 C 4620 3216 4613 3200 4605 3192 C 4597 3184 4590 3129 4590 3069 L 4590 2962 L 4695 2973 C 4780 2982 4800 2979 4800 2955 C 4800 2908 4877 2897 4900 2940 C 4925 2988 4925 3006 4900 2990 C 4889 2983 4880 2988 4880 3000 C 4880 3013 4869 3016 4855 3007 C 4799 2972 4701 3012 4701 3070 C 4701 3081 4709 3077 4720 3060 C 4736 3034 4745 3034 4783 3058 C 4815 3077 4830 3079 4836 3063 C 4873 2950 4948 3318 4945 3602 C 4931 4860 3688 5753 2428 5408 C 2395 5399 2383 5408 2374 5443 C 2358 5502 2373 5510 2568 5548 C 2847 5603 3019 5611 3281 5580 z M 2990 5400 C 2983 5389 3000 5380 3029 5380 C 3090 5380 3093 5361 3040 5300 C 3009 5264 3000 5261 3000 5286 C 3000 5304 2985 5327 2966 5337 C 2937 5353 2936 5361 2958 5388 C 2988 5423 3010 5432 2990 5400 z M 1853 5215 C 1905 5146 1992 5038 2046 4975 C 2100 4912 2138 4860 2130 4860 C 2122 4860 2148 4824 2188 4780 C 2264 4695 2269 4685 2243 4645 C 2223 4613 2173 4667 1980 4930 C 1899 5040 1812 5159 1787 5194 C 1746 5249 1723 5340 1749 5340 C 1754 5340 1800 5284 1853 5215 z M 2872 5299 C 2913 5283 2921 5273 2903 5255 C 2890 5242 2880 5215 2880 5194 C 2880 5160 2876 5159 2846 5183 C 2823 5201 2817 5202 2827 5185 C 2836 5171 2835 5160 2825 5160 C 2816 5160 2796 5171 2781 5185 C 2759 5205 2756 5204 2765 5177 C 2778 5141 2625 5107 2593 5140 C 2583 5149 2563 5152 2548 5146 C 2532 5140 2520 5147 2520 5160 C 2520 5176 2539 5181 2570 5175 C 2612 5167 2620 5173 2620 5213 C 2620 5241 2632 5260 2650 5260 C 2667 5260 2680 5268 2680 5277 C 2680 5287 2705 5290 2735 5286 C 2778 5279 2783 5282 2760 5298 C 2719 5327 2796 5328 2872 5299 z M 1169 4849 C 1242 4775 1171 4651 1082 4699 C 1027 4728 1015 4779 1050 4833 C 1086 4888 1124 4893 1169 4849 z M 1660 4748 C 1660 4731 1641 4711 1619 4705 C 1585 4697 1580 4684 1590 4642 C 1604 4585 1640 4537 1640 4575 C 1640 4588 1652 4594 1667 4588 C 1684 4582 1699 4594 1705 4619 C 1716 4660 1760 4677 1760 4640 C 1760 4611 1815 4615 1827 4645 C 1832 4659 1838 4648 1839 4620 C 1840 4584 1845 4578 1858 4597 C 1871 4618 1884 4619 1913 4603 C 1933 4591 1943 4581 1934 4581 C 1926 4580 1933 4553 1950 4519 C 1980 4463 1979 4455 1941 4402 C 1919 4371 1908 4339 1916 4330 C 1924 4322 1896 4321 1855 4328 C 1796 4339 1783 4336 1791 4314 C 1799 4294 1787 4289 1743 4295 C 1711 4300 1679 4294 1671 4282 C 1662 4266 1646 4266 1619 4281 C 1597 4292 1580 4294 1580 4286 C 1580 4277 1571 4284 1560 4300 C 1543 4326 1541 4325 1540 4295 C 1540 4273 1525 4260 1499 4260 C 1476 4260 1463 4251 1470 4240 C 1477 4229 1471 4220 1456 4220 C 1437 4219 1438 4214 1460 4200 C 1478 4188 1480 4180 1466 4180 C 1453 4180 1437 4189 1430 4200 C 1409 4234 1380 4222 1380 4180 C 1380 4123 1346 4130 1335 4190 C 1328 4229 1334 4240 1363 4240 C 1403 4240 1415 4308 1379 4331 C 1367 4338 1363 4358 1369 4375 C 1376 4393 1372 4413 1359 4420 C 1347 4428 1366 4435 1401 4436 C 1485 4438 1491 4448 1431 4488 C 1385 4518 1380 4518 1380 4489 C 1380 4472 1371 4463 1360 4470 C 1348 4477 1349 4496 1364 4520 C 1377 4540 1394 4553 1402 4549 C 1426 4534 1435 4587 1418 4635 C 1406 4666 1408 4680 1425 4680 C 1439 4680 1476 4703 1508 4730 C 1574 4787 1660 4797 1660 4748 z M 3196 4558 C 3234 4534 3234 4420 3197 4420 C 3187 4420 3185 4444 3193 4473 C 3202 4512 3196 4533 3169 4553 C 3125 4586 3146 4589 3196 4558 z M 2543 4325 C 2548 4237 2544 4182 2532 4186 C 2487 4201 2475 4259 2489 4390 C 2507 4558 2532 4528 2543 4325 z M 2620 4390 C 2634 4373 2640 4353 2633 4346 C 2626 4339 2620 4344 2620 4358 C 2620 4371 2613 4378 2603 4372 C 2594 4366 2591 4333 2596 4298 C 2603 4254 2598 4239 2583 4248 C 2556 4265 2552 4420 2578 4420 C 2587 4420 2606 4406 2620 4390 z M 3310 4400 C 3317 4388 3331 4384 3340 4390 C 3368 4408 3388 4357 3383 4276 C 3379 4211 3384 4200 3419 4200 C 3468 4200 3477 4074 3432 4015 C 3395 3966 3386 3971 3395 4038 C 3400 4070 3394 4113 3381 4133 C 3362 4164 3360 4159 3371 4106 C 3377 4070 3373 4025 3361 4006 C 3344 3977 3342 3984 3350 4040 C 3359 4102 3357 4106 3333 4075 C 3294 4025 3286 4031 3296 4102 C 3302 4146 3310 4156 3322 4137 C 3335 4117 3339 4123 3340 4156 C 3340 4182 3331 4197 3320 4190 C 3309 4183 3300 4187 3300 4199 C 3300 4210 3311 4221 3325 4222 C 3345 4223 3345 4225 3325 4233 C 3311 4239 3300 4260 3300 4280 C 3300 4301 3291 4323 3280 4330 C 3255 4346 3254 4420 3279 4420 C 3289 4420 3303 4411 3310 4400 z M 2453 4287 C 2455 4259 2475 4210 2498 4178 C 2557 4099 2551 4095 2460 4155 C 2380 4207 2370 4231 2392 4314 C 2408 4371 2449 4353 2453 4287 z M 3188 4308 C 3215 4237 3200 4147 3152 4102 L 3104 4057 L 3074 4100 C 3058 4123 3047 4158 3051 4176 C 3079 4319 3082 4323 3163 4338 C 3170 4339 3181 4326 3188 4308 z M 2668 4100 C 2699 3969 2688 3920 2629 3920 C 2591 3920 2567 4170 2601 4211 C 2633 4250 2634 4250 2668 4100 z M 1160 4182 C 1160 4161 1145 4139 1128 4132 C 1105 4123 1098 4102 1104 4060 C 1109 4028 1105 3998 1096 3995 C 1086 3992 1074 3954 1068 3911 C 1063 3867 1053 3827 1046 3821 C 1040 3815 1040 3839 1047 3875 C 1053 3911 1051 3940 1042 3940 C 1024 3940 1026 4040 1044 4072 C 1050 4082 1062 4119 1069 4155 C 1085 4228 1160 4251 1160 4182 z M 1779 4113 C 1814 4105 1832 4060 1800 4060 C 1786 4060 1781 4037 1787 4000 C 1794 3954 1786 3933 1754 3910 C 1730 3893 1720 3880 1731 3880 C 1741 3880 1737 3871 1720 3860 C 1601 3783 1478 3998 1582 4102 C 1623 4143 1649 4144 1779 4113 z M 2428 4040 C 2419 3983 2422 3960 2440 3960 C 2455 3960 2459 3973 2451 3995 C 2439 4026 2441 4027 2467 4000 C 2503 3964 2535 3748 2502 3769 C 2490 3776 2474 3818 2467 3862 C 2445 4000 2419 3916 2435 3759 C 2449 3625 2455 3609 2495 3604 C 2550 3596 2552 3577 2501 3545 C 2479 3531 2466 3508 2472 3492 C 2478 3477 2472 3457 2458 3449 C 2442 3439 2439 3442 2449 3459 C 2461 3478 2432 3482 2321 3477 C 2183 3471 2142 3486 2140 3545 C 2140 3568 2416 3563 2430 3540 C 2437 3528 2451 3524 2460 3530 C 2470 3536 2456 3564 2429 3593 C 2364 3663 2349 3760 2385 3870 C 2402 3921 2406 3961 2395 3965 C 2372 3973 2398 4120 2422 4120 C 2432 4120 2435 4084 2428 4040 z M 2580 3937 C 2580 3911 2571 3877 2560 3860 C 2545 3837 2541 3845 2540 3893 C 2540 3927 2527 3966 2510 3980 C 2494 3994 2480 4027 2480 4054 L 2480 4103 L 2530 4044 C 2558 4011 2580 3963 2580 3937 z M 1368 3977 C 1362 3967 1365 3947 1376 3934 C 1386 3921 1393 3885 1392 3855 C 1390 3822 1399 3800 1414 3800 C 1428 3800 1438 3810 1435 3823 C 1432 3835 1442 3849 1456 3854 C 1475 3861 1478 3850 1468 3809 C 1456 3761 1459 3755 1490 3767 C 1519 3778 1521 3776 1502 3752 C 1483 3730 1484 3720 1502 3709 C 1518 3699 1521 3702 1512 3717 C 1502 3734 1515 3739 1556 3736 C 1596 3733 1612 3723 1605 3705 C 1600 3690 1603 3680 1613 3682 C 1622 3685 1655 3676 1686 3663 C 1747 3638 1832 3665 1809 3701 C 1792 3729 1760 3724 1760 3693 C 1760 3675 1744 3669 1711 3675 C 1669 3683 1666 3689 1685 3721 C 1698 3741 1718 3752 1729 3744 C 1741 3736 1779 3730 1814 3730 C 1848 3731 1873 3724 1867 3716 C 1859 3702 1887 3692 1924 3697 C 1931 3698 1933 3676 1928 3647 C 1919 3600 1923 3596 1972 3609 C 2022 3621 2023 3620 1991 3588 C 1959 3557 1959 3552 1989 3536 C 2006 3526 2016 3509 2009 3499 C 2003 3488 2007 3480 2019 3480 C 2030 3480 2040 3468 2040 3453 C 2040 3438 2057 3410 2079 3391 C 2122 3352 2113 3300 2064 3300 C 2038 3300 2040 3294 2071 3271 C 2093 3254 2099 3241 2086 3241 C 2073 3240 2057 3222 2050 3200 C 2043 3178 2025 3160 2010 3160 C 1995 3160 1976 3150 1968 3137 C 1959 3121 1963 3119 1982 3130 C 2004 3143 2005 3141 1985 3119 C 1948 3079 1874 3081 1834 3123 C 1815 3143 1789 3160 1778 3160 C 1767 3160 1763 3169 1770 3180 C 1777 3191 1769 3200 1753 3200 C 1724 3200 1649 3296 1666 3313 C 1671 3318 1655 3343 1629 3369 C 1597 3401 1586 3430 1593 3463 C 1602 3502 1599 3505 1580 3480 C 1561 3455 1558 3458 1567 3496 C 1573 3526 1569 3539 1553 3534 C 1508 3517 1455 3560 1481 3591 C 1499 3613 1499 3620 1481 3620 C 1468 3620 1463 3629 1470 3640 C 1477 3651 1469 3660 1453 3660 C 1414 3660 1398 3709 1427 3740 C 1445 3760 1441 3760 1405 3742 C 1368 3723 1363 3724 1373 3750 C 1381 3771 1372 3780 1342 3780 C 1318 3780 1300 3793 1300 3810 C 1300 3827 1286 3840 1269 3840 C 1252 3840 1243 3848 1249 3859 C 1255 3869 1251 3883 1240 3890 C 1228 3897 1224 3922 1231 3944 C 1240 3971 1237 3980 1222 3971 C 1210 3964 1200 3967 1200 3977 C 1200 3988 1220 4000 1245 4004 C 1311 4014 1381 3998 1368 3977 z M 3511 3647 C 3505 3621 3490 3600 3479 3600 C 3465 3600 3465 3613 3479 3639 C 3491 3660 3502 3716 3503 3764 L 3507 3850 L 3515 3772 C 3519 3729 3517 3673 3511 3647 z M 2300 3780 C 2342 3766 2344 3763 2310 3761 C 2270 3757 2270 3757 2310 3740 C 2337 3728 2300 3722 2195 3721 C 2053 3720 2040 3723 2040 3760 C 2040 3803 2191 3815 2300 3780 z M 3380 3723 C 3380 3691 3303 3637 3266 3644 C 3214 3654 3221 3710 3276 3712 C 3301 3714 3327 3720 3334 3727 C 3352 3746 3380 3743 3380 3723 z M 3466 3698 C 3475 3692 3459 3658 3429 3623 C 3400 3588 3387 3560 3401 3560 C 3417 3560 3414 3546 3390 3521 C 3347 3473 3309 3477 3224 3537 C 3188 3563 3145 3579 3129 3572 C 3098 3561 3088 3590 3117 3608 C 3126 3614 3180 3611 3237 3602 C 3348 3585 3381 3602 3409 3697 C 3417 3722 3430 3736 3437 3727 C 3444 3718 3457 3705 3466 3698 z M 2370 3640 C 2406 3600 2405 3600 2253 3600 C 2169 3600 2100 3604 2100 3608 C 2100 3613 2095 3631 2088 3648 C 2068 3701 2322 3693 2370 3640 z M 2801 3520 C 2811 3520 2814 3507 2808 3491 C 2790 3444 2721 3433 2681 3469 C 2646 3500 2645 3499 2650 3446 C 2656 3375 2701 3278 2721 3291 C 2745 3305 2838 3177 2826 3146 C 2815 3118 2698 3214 2658 3285 C 2614 3363 2602 3507 2635 3564 L 2667 3618 L 2725 3569 C 2757 3542 2791 3520 2801 3520 z M 3504 3536 C 3491 3523 3480 3489 3479 3461 C 3477 3368 3321 3133 3285 3169 C 3273 3180 3281 3208 3331 3328 C 3342 3355 3340 3362 3324 3352 C 3284 3328 3321 3399 3383 3466 C 3414 3501 3440 3519 3440 3507 C 3440 3495 3427 3474 3410 3460 C 3394 3446 3380 3427 3380 3418 C 3380 3408 3394 3400 3410 3400 C 3427 3400 3440 3413 3440 3429 C 3440 3480 3478 3560 3504 3560 C 3523 3560 3523 3555 3504 3536 z M 3192 3453 C 3169 3499 3228 3518 3276 3480 C 3310 3452 3315 3439 3296 3426 C 3222 3379 3216 3306 3286 3318 C 3296 3320 3297 3312 3290 3300 C 3283 3289 3270 3284 3262 3289 C 3253 3294 3225 3277 3199 3249 C 3147 3193 3061 3182 3068 3232 C 3071 3249 3086 3271 3101 3281 C 3123 3295 3120 3299 3085 3300 C 3060 3300 3040 3309 3040 3320 C 3040 3331 3055 3340 3072 3340 C 3099 3340 3100 3345 3080 3370 C 3056 3398 3098 3414 3166 3402 C 3176 3400 3177 3408 3170 3420 C 3163 3431 3151 3437 3143 3432 C 3135 3427 3127 3446 3124 3474 L 3120 3524 L 3162 3477 C 3184 3451 3198 3440 3192 3453 z M 4720 3441 C 4752 3381 4701 3365 4658 3422 C 4637 3448 4621 3482 4620 3496 C 4620 3532 4692 3491 4720 3441 z M 989 3356 C 995 3327 1011 3291 1025 3276 C 1039 3262 1052 3214 1055 3170 C 1058 3126 1070 3087 1080 3083 C 1091 3080 1100 3060 1100 3040 C 1100 3019 1109 2997 1121 2989 C 1132 2982 1136 2958 1129 2936 C 1120 2909 1123 2900 1138 2909 C 1150 2916 1160 2913 1160 2902 C 1160 2872 1260 2660 1305 2595 C 1326 2565 1337 2531 1330 2520 C 1323 2509 1343 2485 1374 2467 C 1474 2410 1557 2280 1545 2200 L 1535 2130 L 1573 2176 C 1606 2217 1618 2220 1670 2201 C 1726 2181 1728 2182 1690 2211 C 1668 2228 1635 2238 1616 2233 C 1572 2222 1552 2306 1578 2393 C 1588 2428 1592 2461 1588 2466 C 1583 2470 1593 2486 1610 2500 C 1650 2533 1648 2573 1605 2598 C 1586 2608 1577 2623 1585 2631 C 1593 2639 1613 2634 1630 2620 C 1664 2592 1673 2429 1640 2450 C 1628 2457 1625 2473 1633 2484 C 1641 2497 1637 2500 1623 2492 C 1607 2482 1607 2468 1624 2440 C 1652 2396 1680 2406 1680 2461 C 1680 2522 1705 2507 1763 2415 C 1815 2333 1827 2296 1822 2247 C 1819 2211 1740 2240 1738 2277 C 1737 2303 1734 2304 1726 2282 C 1720 2266 1731 2240 1752 2224 C 1779 2204 1783 2193 1765 2186 C 1751 2181 1740 2164 1740 2148 C 1740 2133 1730 2120 1719 2120 C 1707 2120 1704 2109 1713 2095 C 1722 2081 1730 2061 1731 2050 C 1733 2039 1735 2019 1737 2005 C 1739 1987 1758 1983 1795 1992 C 1839 2002 1845 2000 1826 1980 C 1784 1935 1694 1973 1705 2032 C 1714 2080 1711 2082 1632 2076 C 1572 2072 1551 2077 1555 2096 C 1559 2111 1552 2117 1540 2110 C 1478 2072 1548 1900 1626 1900 C 1672 1899 1792 1861 1835 1834 C 1849 1825 1871 1824 1885 1832 C 1899 1840 1903 1839 1895 1830 C 1887 1821 1892 1800 1905 1783 C 1921 1764 1902 1769 1857 1796 C 1811 1824 1781 1833 1776 1819 C 1772 1806 1748 1813 1716 1839 C 1642 1897 1593 1894 1605 1830 C 1610 1801 1603 1770 1586 1756 C 1561 1736 1559 1743 1571 1807 C 1582 1867 1577 1891 1545 1926 C 1492 1986 1476 2036 1499 2078 C 1514 2106 1503 2128 1447 2182 C 1166 2452 808 3321 925 3449 C 953 3480 967 3460 989 3356 z M 2978 3400 C 3006 3400 3005 3407 3011 3175 C 3016 2973 3000 2937 2938 3013 C 2913 3042 2915 3044 2959 3030 C 3006 3015 3007 3016 2972 3051 C 2949 3074 2939 3106 2945 3144 C 2950 3176 2946 3206 2937 3212 C 2927 3218 2919 3197 2919 3166 C 2916 3064 2892 3028 2865 3087 C 2847 3127 2848 3142 2871 3161 C 2906 3190 2909 3222 2876 3215 C 2863 3212 2832 3253 2806 3306 L 2759 3403 L 2804 3439 C 2848 3475 2851 3475 2903 3438 C 2932 3417 2966 3400 2978 3400 z M 2580 3442 C 2580 3433 2554 3414 2523 3401 C 2262 3293 2290 3039 2573 2950 C 3057 2798 3706 2970 3753 3264 C 3761 3316 3771 3334 3782 3317 C 3795 3296 3800 3297 3807 3321 C 3813 3337 3821 3364 3827 3380 C 3832 3397 3838 3380 3838 3344 C 3839 3308 3825 3249 3806 3214 C 3787 3179 3774 3142 3777 3132 C 3785 3103 3694 3017 3680 3041 C 3671 3054 3657 3051 3640 3030 C 3618 3003 3620 3001 3652 3012 C 3683 3024 3686 3021 3665 2999 C 3651 2984 3619 2970 3595 2969 C 3570 2967 3514 2950 3470 2931 C 3426 2911 3332 2879 3260 2859 C 3178 2837 3150 2823 3184 2822 C 3213 2821 3261 2829 3290 2840 C 3390 2878 3476 2885 3433 2851 C 3354 2790 3020 2767 3020 2823 C 3020 2832 2982 2840 2935 2841 C 2774 2842 2539 2896 2458 2949 C 2415 2977 2380 2992 2380 2982 C 2380 2958 2615 2840 2662 2840 C 2682 2840 2704 2830 2711 2818 C 2720 2804 2712 2799 2688 2806 C 2557 2842 2452 2844 2481 2809 C 2546 2731 2773 2664 2747 2730 C 2734 2764 2777 2767 2906 2744 C 3007 2725 3010 2692 2910 2687 C 2866 2685 2783 2677 2725 2669 C 2533 2643 2334 2749 2256 2920 C 2197 3049 2180 3046 2180 2907 C 2180 2795 2180 2794 2140 2830 C 2089 2876 2075 2862 2086 2777 C 2093 2714 2095 2713 2110 2758 C 2125 2802 2128 2803 2152 2771 C 2175 2739 2178 2739 2199 2778 C 2211 2801 2233 2820 2248 2820 C 2281 2820 2267 2518 2232 2495 C 2187 2466 2183 2482 2213 2569 C 2229 2618 2239 2683 2234 2714 C 2227 2765 2226 2763 2222 2700 C 2220 2662 2201 2599 2180 2560 L 2142 2490 L 2139 2600 C 2138 2661 2132 2699 2127 2685 C 2110 2643 2089 2656 2042 2740 C 2017 2784 1989 2815 1979 2809 C 1968 2803 1960 2808 1960 2821 C 1960 2834 1972 2840 1987 2834 C 2002 2828 2026 2832 2042 2842 C 2061 2854 2040 2859 1980 2859 C 1925 2859 1900 2853 1916 2843 C 1937 2830 1936 2822 1913 2803 C 1879 2774 1853 2819 1874 2872 C 1883 2898 1904 2902 1971 2893 C 2059 2881 2081 2905 2088 3020 C 2089 3042 2108 3048 2155 3043 C 2219 3037 2220 3039 2220 3117 C 2220 3214 2252 3307 2280 3290 C 2307 3273 2281 3341 2244 3385 C 2203 3433 2224 3447 2311 3431 L 2384 3417 L 2337 3364 L 2290 3310 L 2340 3353 C 2439 3437 2580 3489 2580 3442 z M 3685 3363 C 3715 3335 3740 3294 3740 3271 C 3740 3237 3734 3240 3702 3292 C 3682 3325 3637 3365 3603 3379 C 3568 3393 3545 3412 3551 3421 C 3566 3446 3622 3422 3685 3363 z M 4427 3410 C 4434 3393 4450 3382 4463 3385 C 4477 3388 4491 3374 4495 3355 C 4501 3330 4490 3320 4459 3320 C 4433 3320 4419 3330 4425 3345 C 4431 3359 4423 3382 4407 3396 C 4390 3412 4380 3414 4380 3400 C 4380 3388 4370 3384 4358 3391 C 4342 3401 4344 3410 4363 3422 C 4401 3447 4414 3444 4427 3410 z M 2530 3214 C 2514 3174 2499 3112 2497 3076 C 2495 3023 2493 3020 2485 3058 C 2478 3096 2472 3100 2458 3078 C 2446 3058 2441 3068 2440 3113 C 2440 3153 2460 3200 2492 3239 C 2557 3317 2570 3308 2530 3214 z M 3580 3214 C 3580 3202 3560 3170 3535 3143 C 3510 3116 3504 3101 3520 3111 C 3537 3121 3528 3100 3500 3065 C 3473 3031 3444 3002 3437 3001 C 3413 2999 3463 3149 3499 3190 C 3519 3212 3530 3244 3524 3260 C 3515 3286 3518 3286 3547 3263 C 3565 3247 3580 3226 3580 3214 z M 2583 3114 C 2551 2987 2519 2953 2520 3048 C 2521 3093 2596 3271 2608 3258 C 2612 3254 2601 3189 2583 3114 z M 3235 3074 C 3187 3032 3146 3057 3171 3114 C 3179 3134 3185 3158 3182 3168 C 3180 3177 3194 3203 3214 3225 C 3249 3264 3250 3263 3264 3187 C 3275 3123 3270 3104 3235 3074 z M 3140 3100 C 3140 3067 3140 3033 3141 3025 C 3141 3017 3118 3007 3089 3004 C 3039 2997 3038 2998 3069 3045 C 3086 3072 3094 3099 3087 3107 C 3079 3114 3086 3120 3102 3120 C 3125 3121 3125 3124 3100 3140 C 3074 3157 3075 3159 3105 3160 C 3131 3160 3140 3144 3140 3100 z M 4678 3085 C 4652 3055 4628 3026 4625 3021 C 4622 3016 4622 3030 4625 3051 C 4634 3109 4658 3140 4695 3140 C 4720 3140 4717 3129 4678 3085 z M 2800 3036 C 2800 3026 2814 3004 2830 2987 C 2894 2923 2826 2896 2711 2940 C 2649 2963 2648 2975 2705 3043 C 2748 3095 2800 3091 2800 3036 z M 3780 2994 C 3780 2960 3757 2935 3700 2902 C 3656 2878 3610 2840 3599 2818 C 3587 2796 3562 2780 3544 2783 C 3507 2789 3380 2721 3380 2696 C 3380 2665 3588 2708 3640 2750 C 3693 2792 3720 2803 3720 2781 C 3720 2769 3684 2720 3640 2672 C 3564 2590 3537 2543 3580 2570 C 3591 2577 3600 2575 3600 2566 C 3600 2557 3580 2537 3555 2522 C 3514 2496 3512 2496 3537 2527 C 3553 2545 3557 2560 3548 2560 C 3539 2560 3511 2535 3486 2505 L 3440 2450 L 3459 2503 C 3475 2549 3473 2554 3438 2545 C 3409 2538 3402 2543 3412 2568 C 3430 2615 3400 2607 3337 2547 L 3282 2495 L 3221 2533 C 3162 2570 3162 2573 3199 2604 C 3241 2641 3263 2632 3245 2585 C 3239 2568 3262 2579 3297 2610 C 3374 2679 3375 2684 3305 2659 L 3250 2639 L 3300 2679 C 3371 2736 3333 2729 3225 2666 C 3174 2636 3092 2606 3041 2599 C 2991 2592 2932 2578 2910 2569 C 2874 2554 2873 2556 2897 2586 C 2913 2605 2946 2620 2972 2620 C 3006 2620 3020 2631 3020 2658 C 3020 2703 3087 2732 3250 2758 C 3389 2780 3480 2811 3480 2838 C 3480 2848 3505 2865 3535 2876 C 3565 2886 3631 2928 3680 2967 C 3787 3053 3780 3051 3780 2994 z M 1981 2717 C 1997 2658 2061 2555 2074 2568 C 2079 2573 2068 2600 2049 2629 C 2030 2658 2020 2686 2026 2692 C 2044 2711 2090 2614 2091 2555 C 2092 2482 2080 2486 2021 2575 C 1994 2616 1955 2670 1934 2694 C 1913 2717 1902 2747 1910 2760 C 1931 2794 1966 2773 1981 2717 z M 2487 2643 C 2501 2622 2508 2621 2520 2639 C 2531 2658 2554 2654 2612 2624 C 2655 2603 2720 2578 2756 2571 C 2812 2559 2820 2550 2809 2513 C 2798 2478 2800 2475 2822 2495 C 2836 2509 2857 2520 2869 2519 C 2881 2519 2873 2506 2852 2490 C 2831 2474 2806 2466 2796 2473 C 2786 2479 2761 2469 2740 2450 C 2717 2429 2686 2421 2656 2428 C 2631 2434 2621 2434 2635 2428 C 2649 2422 2656 2410 2651 2402 C 2646 2394 2671 2391 2706 2397 C 2759 2404 2766 2401 2747 2378 C 2664 2276 2753 1927 2902 1770 C 3004 1662 3021 1616 2946 1657 C 2814 1728 2700 1895 2697 2024 C 2696 2093 2692 2184 2688 2225 C 2685 2266 2690 2300 2701 2300 C 2746 2300 2710 2335 2591 2409 C 2520 2452 2458 2502 2451 2519 C 2445 2536 2418 2581 2390 2618 C 2313 2723 2321 2775 2405 2716 C 2441 2691 2478 2658 2487 2643 z M 4010 2721 C 4033 2712 4061 2714 4075 2725 C 4092 2739 4100 2738 4100 2722 C 4100 2699 4088 2695 3995 2691 C 3962 2690 3940 2699 3940 2714 C 3940 2743 3952 2744 4010 2721 z M 3100 2525 C 3100 2516 3120 2501 3145 2490 C 3201 2465 3213 2384 3170 2330 C 3138 2291 3138 2291 3159 2334 C 3199 2416 3180 2408 3124 2319 C 3039 2185 3032 2164 3091 2230 C 3148 2294 3139 2266 3073 2175 C 3051 2145 3039 2114 3047 2106 C 3065 2089 3146 2183 3200 2283 C 3237 2353 3284 2389 3308 2365 C 3332 2342 3319 2316 3290 2327 C 3272 2334 3260 2327 3260 2309 C 3260 2293 3210 2228 3150 2165 C 3015 2026 3013 1987 3148 2111 C 3287 2239 3282 2209 3140 2058 L 3019 1930 L 3024 2050 C 3027 2132 3017 2190 2994 2234 C 2967 2285 2965 2297 2988 2288 C 3043 2267 3045 2353 2991 2407 C 2933 2465 2926 2500 2970 2500 C 2987 2500 3000 2509 3000 2520 C 3000 2531 3023 2540 3050 2540 C 3078 2540 3100 2533 3100 2525 z M 2350 2410 C 2306 2372 2262 2340 2252 2340 C 2242 2340 2269 2371 2312 2409 C 2355 2447 2399 2478 2410 2478 C 2421 2478 2394 2447 2350 2410 z M 2926 2465 C 2931 2457 2942 2419 2950 2380 C 2966 2305 2923 2319 2878 2404 C 2850 2456 2897 2515 2926 2465 z M 3420 2430 C 3420 2391 3410 2380 3372 2380 C 3318 2380 3292 2424 3326 2458 C 3367 2499 3420 2484 3420 2430 z M 3633 2435 C 3629 2410 3596 2369 3559 2344 C 3474 2287 3462 2274 3506 2291 C 3527 2299 3540 2295 3540 2279 C 3540 2265 3562 2278 3589 2307 C 3649 2372 3659 2373 3651 2315 C 3623 2120 3585 2081 3479 2138 C 3394 2183 3359 2234 3398 2258 C 3413 2268 3419 2286 3411 2298 C 3404 2310 3408 2320 3420 2320 C 3432 2320 3437 2329 3430 2340 C 3423 2351 3431 2355 3448 2348 C 3465 2341 3508 2366 3554 2408 C 3645 2493 3641 2491 3633 2435 z M 2552 2265 C 2562 2084 2474 1960 2452 2123 C 2451 2130 2425 2160 2395 2190 C 2337 2248 2313 2347 2368 2302 C 2390 2284 2399 2284 2406 2304 C 2413 2322 2417 2319 2418 2297 C 2419 2280 2434 2253 2451 2239 C 2478 2217 2478 2224 2448 2285 C 2419 2346 2418 2363 2440 2390 C 2480 2438 2548 2363 2552 2265 z M 2917 2302 C 2966 2232 3000 2161 3000 2128 L 3000 2073 L 2947 2122 C 2885 2179 2799 2354 2814 2393 C 2828 2430 2825 2434 2917 2302 z M 2199 2265 C 2197 2246 2000 2119 2000 2137 C 2000 2165 2147 2277 2185 2279 C 2193 2280 2199 2273 2199 2265 z M 2639 2014 C 2641 1924 2691 1850 2835 1729 C 2986 1601 3009 1572 2991 1527 C 2982 1502 2974 1500 2950 1520 C 2934 1533 2924 1551 2929 1559 C 2943 1581 2790 1723 2759 1716 C 2744 1713 2731 1719 2730 1730 C 2729 1741 2694 1784 2652 1825 C 2610 1867 2581 1887 2587 1870 C 2594 1854 2590 1840 2579 1840 C 2536 1840 2400 1737 2399 1705 C 2398 1622 2180 1524 2180 1606 C 2180 1622 2167 1646 2150 1660 C 2134 1673 2125 1692 2131 1702 C 2137 1712 2122 1718 2096 1715 C 2063 1711 2050 1720 2052 1745 C 2053 1764 2055 1825 2057 1881 C 2060 1974 2063 1980 2099 1961 C 2121 1949 2142 1948 2149 1958 C 2168 1989 2361 2082 2381 2069 C 2417 2047 2400 2023 2340 2010 C 2307 2003 2280 1989 2280 1978 C 2280 1968 2268 1960 2253 1960 C 2238 1960 2215 1935 2201 1905 C 2188 1875 2183 1857 2192 1865 C 2200 1874 2228 1861 2253 1837 L 2299 1794 L 2368 1847 C 2437 1900 2520 1918 2520 1880 C 2520 1869 2506 1860 2490 1860 C 2473 1860 2440 1837 2416 1810 C 2384 1773 2368 1766 2357 1785 C 2346 1802 2341 1794 2340 1763 C 2340 1716 2341 1717 2411 1778 C 2450 1812 2494 1840 2510 1840 C 2554 1840 2564 1874 2542 1953 C 2530 1996 2529 2036 2539 2049 C 2548 2060 2563 2115 2571 2169 L 2586 2269 L 2612 2169 C 2626 2115 2639 2045 2639 2014 z M 3375 2059 C 3373 1909 3335 1873 3324 2009 C 3320 2058 3325 2079 3339 2071 C 3350 2064 3360 2071 3360 2088 C 3360 2104 3352 2123 3342 2129 C 3332 2135 3328 2158 3334 2180 C 3355 2261 3378 2195 3375 2059 z M 3679 2157 C 3659 2118 3660 2114 3682 2135 C 3732 2183 3742 2159 3698 2095 C 3674 2059 3666 2041 3681 2055 C 3727 2098 3738 2083 3707 2020 C 3691 1987 3673 1960 3667 1960 C 3662 1960 3663 1968 3669 1979 C 3675 1989 3670 2004 3657 2012 C 3641 2022 3637 2013 3644 1985 C 3651 1960 3637 1923 3607 1887 L 3560 1830 L 3568 1915 C 3576 1997 3537 2041 3515 1975 C 3502 1937 3440 2008 3439 2064 L 3437 2110 L 3419 2065 C 3394 2002 3387 2009 3396 2088 L 3404 2157 L 3467 2119 C 3555 2065 3583 2070 3638 2151 C 3690 2227 3718 2231 3679 2157 z M 2187 2181 C 2223 2167 2240 2169 2246 2186 C 2251 2199 2261 2204 2269 2196 C 2294 2173 2260 2140 2212 2140 C 2162 2140 2060 2057 2060 2017 C 2060 1998 2054 1998 2037 2015 C 2019 2033 2027 2058 2067 2119 C 2127 2210 2120 2207 2187 2181 z M 3290 2076 C 3277 1982 3264 1959 3173 1875 C 2997 1713 2979 1795 3151 1974 C 3213 2038 3268 2115 3274 2146 C 3293 2241 3305 2188 3290 2076 z M 2900 1970 L 2946 1930 L 2924 1972 C 2898 2020 2910 2040 2963 2040 C 2994 2040 3000 2024 3000 1945 C 3000 1893 3006 1828 3012 1800 C 3026 1738 2828 1937 2798 2015 C 2760 2115 2777 2179 2818 2090 C 2838 2046 2875 1992 2900 1970 z M 2320 2113 C 2320 2098 2282 2074 2235 2060 C 2188 2045 2138 2023 2123 2012 C 2101 1996 2097 2000 2103 2031 C 2108 2053 2126 2069 2146 2067 C 2165 2066 2180 2072 2180 2081 C 2180 2089 2205 2106 2235 2117 C 2311 2144 2320 2144 2320 2113 z M 3851 2028 C 3875 2061 3911 2074 3891 2042 C 3885 2032 3887 2020 3895 2015 C 3903 2010 3899 2009 3885 2013 C 3871 2016 3860 2010 3860 1999 C 3860 1989 3869 1980 3880 1980 C 3892 1980 3892 1962 3880 1929 C 3854 1862 3855 1855 3885 1870 C 3899 1877 3893 1869 3871 1851 C 3846 1831 3828 1827 3820 1841 C 3813 1852 3792 1856 3773 1849 C 3743 1837 3730 1858 3738 1907 C 3745 1946 3694 1903 3624 1810 C 3539 1697 3470 1664 3491 1746 C 3500 1783 3490 1808 3452 1847 C 3422 1876 3400 1921 3400 1951 L 3400 2003 L 3470 1937 C 3546 1866 3560 1829 3505 1848 C 3479 1857 3481 1850 3514 1823 C 3538 1802 3552 1778 3544 1769 C 3536 1761 3541 1760 3555 1768 C 3569 1776 3580 1794 3580 1807 C 3580 1821 3608 1859 3642 1891 C 3676 1924 3717 1975 3733 2006 C 3760 2057 3764 2059 3794 2028 C 3825 1998 3829 1998 3851 2028 z M 1689 1969 C 1710 1953 1742 1940 1760 1940 C 1778 1940 1814 1918 1840 1890 C 1866 1863 1877 1840 1865 1840 C 1852 1840 1837 1848 1831 1858 C 1825 1869 1772 1892 1715 1911 C 1592 1951 1592 1951 1609 1979 C 1626 2007 1642 2005 1689 1969 z M 2512 1977 C 2522 1961 2516 1957 2493 1966 C 2475 1973 2460 1971 2460 1961 C 2460 1951 2429 1933 2390 1920 C 2352 1907 2320 1890 2320 1882 C 2320 1873 2307 1867 2290 1867 C 2238 1867 2257 1915 2325 1957 C 2398 2002 2490 2012 2512 1977 z M 1941 1889 C 2003 1850 2019 1829 2010 1800 C 1979 1703 2119 1561 2248 1559 L 2330 1557 L 2264 1525 C 2183 1484 2086 1526 2020 1628 C 1980 1692 1964 1668 2000 1599 C 2017 1568 2015 1563 1989 1573 C 1971 1580 1948 1605 1938 1628 C 1923 1663 1921 1658 1927 1603 C 1931 1559 1924 1533 1906 1526 C 1883 1517 1885 1508 1912 1478 C 1931 1457 1937 1440 1925 1440 C 1913 1440 1899 1451 1894 1465 C 1888 1482 1871 1476 1836 1445 C 1792 1404 1766 1400 1549 1397 C 1417 1395 1335 1390 1365 1386 L 1420 1377 L 1420 1199 L 1420 1020 L 1363 1020 C 1309 1020 1306 1024 1318 1082 C 1325 1117 1326 1202 1320 1273 C 1308 1415 1335 1462 1443 1487 C 1501 1501 1531 1552 1502 1588 C 1479 1615 1531 1748 1557 1732 C 1567 1725 1587 1734 1600 1750 C 1629 1785 1663 1787 1765 1759 C 1842 1738 1866 1689 1810 1667 C 1794 1661 1780 1645 1780 1632 C 1780 1617 1740 1609 1667 1609 C 1560 1610 1553 1607 1538 1555 C 1505 1432 1791 1526 1878 1666 C 1900 1701 1936 1750 1959 1775 C 1999 1818 1999 1820 1964 1820 C 1929 1820 1885 1857 1852 1915 C 1831 1952 1851 1946 1941 1889 z M 3343 1907 C 3400 1856 3388 1825 3295 1778 C 3248 1754 3186 1718 3157 1697 C 3095 1654 3071 1649 3093 1685 C 3103 1702 3097 1701 3074 1683 C 3045 1659 3040 1659 3040 1684 C 3040 1701 3094 1757 3160 1810 C 3226 1863 3280 1914 3280 1923 C 3280 1949 3303 1943 3343 1907 z M 3799 1820 C 3797 1789 3713 1713 3705 1735 C 3699 1752 3683 1743 3656 1710 C 3634 1681 3588 1645 3553 1629 C 3505 1607 3502 1603 3540 1613 C 3568 1619 3609 1642 3633 1664 C 3666 1694 3678 1697 3686 1676 C 3693 1659 3720 1676 3768 1730 C 3842 1814 3866 1798 3805 1705 C 3786 1676 3781 1658 3795 1667 C 3809 1676 3820 1673 3820 1661 C 3820 1648 3789 1620 3750 1597 C 3712 1575 3680 1543 3680 1528 C 3680 1513 3670 1500 3659 1500 C 3647 1500 3642 1507 3648 1516 C 3653 1525 3616 1512 3564 1487 C 3470 1442 3319 1439 3383 1484 C 3402 1498 3394 1501 3357 1495 C 3320 1489 3307 1494 3313 1512 C 3323 1536 3370 1564 3407 1568 C 3416 1569 3434 1584 3447 1600 C 3459 1617 3504 1656 3546 1687 C 3588 1718 3633 1766 3644 1792 C 3664 1834 3802 1860 3799 1820 z M 3402 1683 C 3380 1651 3366 1621 3371 1616 C 3384 1603 3208 1458 3186 1463 C 3177 1465 3145 1456 3114 1443 C 3083 1430 3055 1420 3051 1420 C 3011 1420 3049 1602 3096 1633 C 3368 1815 3513 1838 3402 1683 z M 2560 1722 C 2560 1697 2459 1634 2443 1650 C 2436 1657 2451 1681 2477 1702 C 2528 1743 2560 1751 2560 1722 z M 2608 1683 C 2622 1661 2504 1575 2480 1590 C 2447 1610 2485 1533 2534 1480 C 2594 1415 2592 1405 2520 1416 C 2487 1421 2460 1416 2460 1405 C 2460 1394 2444 1381 2425 1376 C 2395 1368 2391 1379 2397 1453 C 2401 1501 2412 1535 2422 1529 C 2432 1523 2435 1531 2429 1547 C 2411 1593 2583 1724 2608 1683 z M 2055 1451 C 2005 1402 1960 1418 1960 1485 C 1960 1511 1970 1521 1989 1513 C 2006 1507 2024 1511 2031 1522 C 2039 1535 2054 1534 2072 1518 C 2096 1498 2094 1488 2055 1451 z M 2333 1503 C 2289 1454 2290 1380 2335 1380 C 2362 1379 2364 1376 2343 1362 C 2321 1348 2322 1335 2348 1284 C 2387 1208 2390 1179 2353 1229 C 2327 1264 2325 1264 2313 1215 C 2289 1120 2318 1040 2378 1040 C 2494 1041 2570 1097 2495 1127 C 2476 1134 2477 1142 2500 1158 C 2524 1175 2519 1179 2476 1180 C 2426 1180 2422 1175 2433 1120 C 2444 1066 2440 1060 2395 1060 C 2357 1060 2342 1073 2335 1109 C 2330 1137 2333 1154 2342 1149 C 2361 1137 2423 1249 2418 1285 C 2403 1403 2502 1384 2526 1265 C 2535 1218 2551 1180 2562 1180 C 2573 1180 2576 1191 2568 1203 C 2537 1253 2525 1380 2550 1380 C 2593 1380 2624 1325 2619 1256 C 2609 1110 2620 1020 2648 1020 C 2667 1020 2673 1006 2665 977 C 2657 947 2661 938 2677 948 C 2694 959 2695 949 2680 910 C 2662 864 2676 836 2811 646 C 2971 419 2999 357 2960 310 C 2921 263 2886 274 2790 363 C 2708 438 2667 503 2723 468 C 2738 459 2741 463 2732 477 C 2724 490 2709 496 2699 490 C 2690 484 2634 560 2576 659 C 2509 774 2466 830 2456 814 C 2444 796 2441 796 2440 815 C 2440 830 2424 824 2400 800 C 2331 731 2267 770 2332 842 C 2363 876 2364 888 2342 923 C 2325 952 2323 971 2337 985 C 2351 999 2362 989 2371 953 C 2378 924 2393 900 2405 900 C 2416 900 2420 920 2413 945 L 2402 990 L 2436 948 C 2493 876 2522 831 2562 749 C 2583 705 2595 688 2588 710 C 2573 758 2541 873 2526 936 C 2514 987 2554 991 2592 942 C 2610 919 2616 920 2627 951 C 2654 1019 2608 1033 2395 1024 C 2302 1020 2252 947 2321 913 C 2332 908 2330 905 2316 908 C 2301 911 2281 930 2270 952 C 2251 989 2221 990 1415 985 C 956 982 580 986 580 993 C 580 1000 603 1054 632 1113 C 661 1171 690 1267 697 1325 L 710 1430 L 810 1427 C 878 1425 908 1416 904 1400 C 897 1368 976 1123 1014 1064 C 1042 1018 1042 1018 966 1024 L 890 1030 L 840 1214 C 812 1315 783 1404 775 1412 C 767 1419 769 1397 779 1363 C 790 1325 789 1247 776 1162 L 755 1022 L 673 1015 C 627 1010 928 1005 1342 1003 C 1756 1002 2136 1006 2187 1013 L 2280 1025 L 2275 1254 C 2271 1461 2274 1486 2309 1512 C 2362 1551 2373 1547 2333 1503 z M 3740 1490 C 3740 1485 3722 1462 3700 1440 C 3678 1418 3660 1404 3660 1408 C 3660 1413 3655 1430 3649 1447 C 3641 1465 3651 1480 3674 1486 C 3729 1500 3740 1501 3740 1490 z M 2676 1438 C 2696 1411 2694 1400 2666 1378 C 2647 1362 2638 1360 2647 1374 C 2655 1387 2645 1407 2625 1418 C 2595 1436 2594 1442 2619 1459 C 2636 1469 2649 1476 2650 1474 C 2651 1472 2662 1455 2676 1438 z M 2235 1388 C 2228 1381 2199 1375 2171 1375 C 2141 1375 2120 1364 2120 1348 C 2120 1330 2097 1320 2058 1320 C 2003 1320 1997 1315 2007 1275 C 2014 1250 2020 1214 2020 1195 C 2020 1176 2030 1160 2041 1160 C 2054 1160 2057 1177 2050 1200 C 2042 1226 2046 1240 2064 1240 C 2079 1240 2091 1215 2092 1180 C 2094 1134 2086 1120 2057 1120 C 2033 1120 2020 1106 2020 1079 C 2020 1035 2038 1039 2108 1098 C 2144 1128 2146 1127 2133 1093 C 2126 1073 2120 1048 2120 1038 C 2120 1007 1995 1018 1957 1053 C 1929 1078 1920 1115 1920 1209 C 1920 1350 1940 1379 2039 1382 C 2078 1384 2094 1389 2075 1394 C 2038 1404 2026 1440 2061 1440 C 2072 1440 2105 1424 2135 1405 C 2183 1374 2187 1373 2175 1403 C 2157 1450 2182 1466 2218 1431 C 2234 1414 2242 1395 2235 1388 z M 3400 1414 C 3441 1393 3450 1373 3452 1305 C 3453 1259 3448 1225 3441 1229 C 3405 1252 3371 1201 3405 1176 C 3481 1120 3486 1017 3414 1024 C 3358 1029 3349 1039 3340 1098 C 3335 1136 3318 1171 3303 1176 C 3281 1183 3279 1167 3290 1102 L 3304 1020 L 3208 1020 C 3133 1020 3117 1025 3136 1044 C 3151 1059 3160 1136 3160 1254 L 3160 1440 L 3255 1440 C 3307 1440 3373 1428 3400 1414 z M 4019 1230 L 4022 1020 L 3941 1020 L 3860 1020 L 3860 1200 L 3860 1380 L 3920 1380 C 3960 1380 3980 1390 3980 1410 C 3980 1427 3988 1440 3998 1440 C 4007 1440 4017 1346 4019 1230 z M 1220 1335 C 1312 1236 1304 1033 1207 1024 C 1148 1018 1144 1022 1132 1104 C 1112 1233 1088 1262 1059 1189 C 1041 1141 1042 1119 1067 1075 C 1084 1045 1091 1020 1082 1020 C 1049 1020 1019 1114 1024 1203 C 1027 1254 1036 1292 1043 1288 C 1050 1284 1060 1299 1066 1322 C 1075 1356 1070 1362 1039 1354 C 1017 1348 1005 1352 1011 1362 C 1034 1400 1177 1381 1220 1335 z M 1554 1337 C 1607 1287 1622 1197 1570 1240 C 1544 1262 1540 1249 1540 1142 C 1540 1047 1533 1020 1510 1020 C 1486 1020 1480 1048 1480 1155 C 1480 1229 1474 1310 1467 1335 C 1452 1394 1492 1394 1554 1337 z M 1720 1200 C 1720 1033 1717 1020 1680 1020 C 1644 1020 1640 1033 1640 1149 C 1640 1220 1630 1284 1619 1291 C 1593 1307 1653 1380 1693 1380 C 1714 1380 1720 1337 1720 1200 z M 1876 1195 L 1882 1020 L 1831 1020 C 1780 1020 1780 1020 1780 1201 C 1780 1378 1781 1383 1825 1376 C 1867 1370 1870 1359 1876 1195 z M 520 725 C 520 702 341 642 329 661 C 324 671 337 688 359 700 C 382 712 400 716 400 710 C 400 703 416 707 435 718 C 477 743 520 746 520 725 z M 637 685 C 677 646 654 635 593 662 C 534 689 518 747 575 725 C 594 718 622 700 637 685 z M 739 495 C 740 476 728 460 714 460 C 699 460 690 482 691 515 C 693 545 685 576 674 583 C 664 590 662 607 671 622 C 689 651 737 561 739 495 z M 540 593 C 540 556 521 541 488 554 C 446 570 455 620 500 620 C 522 620 540 608 540 593 z M 617 505 C 611 472 602 468 562 483 C 516 500 515 502 551 541 C 592 586 627 567 617 505 z M 291 484 C 291 461 298 436 306 428 C 330 404 322 356 295 365 C 281 370 270 383 270 395 C 270 407 263 423 255 432 C 229 457 238 544 265 535 C 279 530 290 508 291 484 z M 494 408 L 452 364 L 408 406 L 364 448 L 406 492 L 448 536 L 492 494 L 536 452 L 494 408 z M 390 320 C 397 309 442 300 490 300 C 538 300 583 309 590 320 C 606 346 660 346 660 320 C 660 298 591 266 514 253 C 464 243 320 295 320 322 C 320 346 375 345 390 320 z" transform="matrix(1 0 0 1 540 540) matrix(0.07 0 0 -0.07 0 0) translate(-2841.2, -2954.79)" vector-effect="non-scaling-stroke"/></g><g><path style="stroke:none;stroke-width:1;stroke-dasharray:none;stroke-linecap:butt;stroke-dashoffset:0;stroke-linejoin:miter;stroke-miterlimit:4;fill:#000;fill-rule:nonzero;opacity:1" stroke-linecap="round" d="M 3380 4772 C 3342 4760 3308 4738 3305 4723 C 3301 4709 3308 4703 3320 4710 C 3331 4717 3340 4713 3340 4701 C 3340 4664 3391 4678 3438 4728 C 3493 4786 3473 4801 3380 4772 z" transform="matrix(1 0 0 1 540 540) matrix(0.07 0 0 -0.07 36.33 -118.56) translate(-3386.11, -4733.23)" vector-effect="non-scaling-stroke"/></g><g><path style="stroke:none;stroke-width:1;stroke-dasharray:none;stroke-linecap:butt;stroke-dashoffset:0;stroke-linejoin:miter;stroke-miterlimit:4;fill:#000;fill-rule:nonzero;opacity:1" stroke-linecap="round" d="M 3446 4695 C 3387 4628 3377 4604 3403 4588 C 3417 4579 3421 4582 3412 4597 C 3402 4612 3418 4620 3459 4620 C 3512 4620 3523 4611 3533 4559 C 3549 4481 3563 4496 3571 4599 C 3576 4676 3555 4708 3533 4655 C 3528 4641 3522 4655 3522 4685 C 3520 4752 3500 4754 3446 4695 z" transform="matrix(1 0 0 1 540 540) matrix(0.07 0 0 -0.07 42.63 -111.24) translate(-3480.61, -4623.46)" vector-effect="non-scaling-stroke"/></g><g><path style="stroke:none;stroke-width:1;stroke-dasharray:none;stroke-linecap:butt;stroke-dashoffset:0;stroke-linejoin:miter;stroke-miterlimit:4;fill:#000;fill-rule:nonzero;opacity:1" stroke-linecap="round" d="M 3603 4550 C 3602 4495 3609 4437 3620 4420 C 3645 4382 3645 4454 3621 4570 L 3605 4650 L 3603 4550 z" transform="matrix(1 0 0 1 540 540) matrix(0.07 0 0 -0.07 51.98 -105.01) translate(-3620.89, -4529.89)" vector-effect="non-scaling-stroke"/></g><g><path style="stroke:none;stroke-width:1;stroke-dasharray:none;stroke-linecap:butt;stroke-dashoffset:0;stroke-linejoin:miter;stroke-miterlimit:4;fill:#000;fill-rule:nonzero;opacity:1" stroke-linecap="round" d="M 4049 3984 C 3924 3977 3901 3961 3900 3880 C 3900 3833 3894 3830 3812 3837 C 3738 3843 3726 3849 3735 3882 C 3740 3903 3735 3920 3724 3920 C 3712 3920 3699 3931 3694 3945 C 3690 3959 3689 3952 3693 3930 C 3696 3908 3700 3861 3700 3826 C 3700 3766 3703 3764 3759 3780 C 3791 3789 3870 3792 3934 3786 C 3998 3781 4073 3786 4100 3797 C 4145 3815 4140 3818 4056 3819 C 4005 3819 3957 3829 3950 3840 C 3943 3851 3952 3860 3970 3860 C 3988 3860 3998 3868 3992 3877 C 3986 3886 3993 3895 4006 3896 C 4019 3898 4057 3902 4090 3905 C 4123 3909 4169 3922 4192 3935 C 4216 3948 4240 3953 4247 3946 C 4254 3939 4260 3948 4260 3966 C 4260 3989 4245 3998 4214 3995 C 4188 3992 4114 3987 4049 3984 z" transform="matrix(1 0 0 1 540 540) matrix(0.07 0 0 -0.07 75.6 -61.91) translate(-3975.23, -3883.52)" vector-effect="non-scaling-stroke"/></g><g><path style="stroke:none;stroke-width:1;stroke-dasharray:none;stroke-linecap:butt;stroke-dashoffset:0;stroke-linejoin:miter;stroke-miterlimit:4;fill:#000;fill-rule:nonzero;opacity:1" stroke-linecap="round" d="M 4424 3971 C 4457 3935 4400 3882 4338 3890 C 4281 3897 4277 3894 4289 3849 C 4300 3805 4295 3800 4238 3800 C 4187 3800 4179 3795 4198 3773 C 4215 3752 4208 3733 4170 3692 C 4143 3662 4120 3629 4120 3619 C 4120 3609 4107 3600 4090 3600 C 4071 3600 4060 3581 4060 3550 C 4060 3523 4051 3500 4040 3500 C 4029 3500 4022 3490 4025 3478 C 4032 3448 3964 3437 3947 3465 C 3939 3478 3944 3481 3962 3472 C 3977 3464 3973 3471 3951 3489 C 3921 3513 3908 3515 3894 3495 C 3883 3479 3881 3484 3891 3510 C 3899 3532 3904 3571 3903 3596 C 3901 3621 3909 3637 3919 3631 C 3929 3625 3943 3638 3950 3660 C 3957 3682 3971 3695 3981 3689 C 3992 3683 4000 3687 4000 3699 C 4000 3710 4014 3720 4030 3720 C 4047 3720 4060 3729 4060 3740 C 4060 3796 3877 3760 3854 3700 C 3833 3645 3824 3640 3733 3640 C 3653 3640 3638 3645 3648 3672 C 3655 3689 3660 3709 3660 3717 C 3660 3724 3668 3718 3677 3703 C 3687 3688 3718 3680 3752 3685 C 3810 3692 3803 3700 3710 3729 C 3691 3735 3679 3766 3678 3814 C 3675 3888 3675 3887 3656 3790 C 3618 3584 3612 3600 3722 3600 C 3815 3600 3820 3597 3809 3554 C 3801 3523 3811 3497 3838 3472 C 3860 3452 3889 3385 3902 3323 C 3916 3261 3939 3196 3953 3178 C 3968 3161 3980 3132 3980 3113 C 3980 3055 4016 3077 4040 3150 C 4054 3191 4072 3215 4085 3207 C 4097 3200 4101 3203 4094 3213 C 4088 3224 4109 3288 4141 3356 C 4174 3424 4200 3491 4200 3505 C 4200 3545 4260 3622 4281 3609 C 4292 3603 4300 3607 4300 3618 C 4300 3628 4349 3703 4409 3782 C 4469 3862 4512 3936 4506 3947 C 4499 3958 4486 3950 4478 3929 C 4465 3897 4463 3896 4461 3924 C 4461 3942 4449 3964 4435 3972 C 4421 3980 4416 3979 4424 3971 z" transform="matrix(1 0 0 1 540 540) matrix(0.07 0 0 -0.07 81.84 -38.26) translate(-4068.84, -3528.72)" vector-effect="non-scaling-stroke"/></g><g><path style="stroke:none;stroke-width:1;stroke-dasharray:none;stroke-linecap:butt;stroke-dashoffset:0;stroke-linejoin:miter;stroke-miterlimit:4;fill:#000;fill-rule:nonzero;opacity:1" stroke-linecap="round" d="M 4560 3102 C 4560 3089 4551 3083 4540 3090 C 4529 3097 4520 3094 4520 3085 C 4520 3075 4498 3055 4470 3040 C 4421 3014 4401 2960 4440 2960 C 4451 2960 4460 2974 4460 2990 C 4460 3007 4474 3020 4490 3020 C 4507 3020 4520 3030 4520 3041 C 4520 3053 4528 3057 4538 3051 C 4557 3039 4588 3099 4570 3116 C 4565 3122 4560 3116 4560 3102 z" transform="matrix(1 0 0 1 540 540) matrix(0.07 0 0 -0.07 110.41 -5.62) translate(-4497.42, -3039.16)" vector-effect="non-scaling-stroke"/></g><g><path style="stroke:none;stroke-width:1;stroke-dasharray:none;stroke-linecap:butt;stroke-dashoffset:0;stroke-linejoin:miter;stroke-miterlimit:4;fill:#000;fill-rule:nonzero;opacity:1" stroke-linecap="round" d="M 4433 2890 C 4416 2874 4395 2860 4385 2860 C 4376 2860 4350 2846 4329 2829 C 4307 2811 4302 2803 4317 2811 C 4349 2827 4427 2749 4413 2714 C 4405 2695 4403 2695 4402 2714 C 4398 2775 4322 2782 4292 2725 C 4275 2695 4261 2682 4261 2696 C 4260 2711 4251 2717 4240 2710 C 4209 2691 4216 2494 4250 2446 C 4279 2404 4360 2402 4360 2443 C 4360 2454 4386 2471 4419 2482 C 4470 2501 4476 2510 4467 2567 C 4459 2615 4467 2640 4498 2668 C 4551 2716 4552 2774 4500 2790 C 4432 2812 4452 2860 4529 2860 C 4610 2860 4639 2890 4575 2907 C 4503 2927 4465 2922 4433 2890 z M 4388 2675 C 4397 2683 4397 2665 4389 2634 C 4379 2594 4385 2567 4411 2539 C 4448 2498 4444 2492 4392 2512 C 4371 2520 4360 2549 4360 2592 C 4360 2629 4351 2660 4340 2660 C 4329 2660 4320 2670 4320 2682 C 4320 2699 4327 2699 4347 2683 C 4362 2670 4380 2667 4388 2675 z M 4329 2543 C 4313 2526 4240 2605 4241 2638 C 4241 2660 4256 2652 4290 2611 C 4316 2578 4334 2548 4329 2543 z" transform="matrix(1 0 0 1 540 540) matrix(0.07 0 0 -0.07 104.92 19.25) translate(-4415.07, -2666.11)" vector-effect="non-scaling-stroke"/></g><g><path style="stroke:none;stroke-width:1;stroke-dasharray:none;stroke-linecap:butt;stroke-dashoffset:0;stroke-linejoin:miter;stroke-miterlimit:4;fill:#000;fill-rule:nonzero;opacity:1" stroke-linecap="round" d="M 4814 2822 L 4890 2725 L 4950 2755 C 4983 2772 5013 2788 5016 2791 C 5029 2801 4959 2920 4941 2920 C 4931 2920 4909 2900 4892 2877 C 4866 2839 4860 2838 4849 2865 C 4842 2883 4824 2893 4808 2887 C 4793 2881 4780 2886 4780 2898 C 4780 2910 4770 2920 4759 2920 C 4747 2920 4771 2876 4814 2822 z" transform="matrix(1 0 0 1 540 540) matrix(0.07 0 0 -0.07 136.37 8.82) translate(-4886.76, -2822.5)" vector-effect="non-scaling-stroke"/></g><g><path style="stroke:none;stroke-width:1;stroke-dasharray:none;stroke-linecap:butt;stroke-dashoffset:0;stroke-linejoin:miter;stroke-miterlimit:4;fill:#000;fill-rule:nonzero;opacity:1" stroke-linecap="round" d="M 4625 2834 C 4546 2798 4537 2668 4611 2631 C 4634 2619 4648 2595 4644 2575 C 4635 2531 4666 2530 4701 2572 C 4721 2596 4722 2612 4705 2639 C 4683 2675 4690 2700 4723 2700 C 4733 2700 4740 2687 4740 2670 C 4740 2654 4749 2640 4760 2640 C 4771 2640 4780 2630 4780 2619 C 4780 2607 4773 2602 4764 2607 C 4756 2613 4734 2590 4715 2558 C 4685 2506 4685 2497 4711 2487 C 4745 2474 4800 2513 4800 2551 C 4800 2565 4811 2580 4824 2585 C 4843 2591 4843 2610 4824 2671 C 4782 2809 4770 2817 4701 2751 C 4657 2709 4640 2701 4640 2724 C 4640 2741 4654 2761 4670 2767 C 4701 2779 4711 2831 4685 2846 C 4677 2851 4650 2846 4625 2834 z" transform="matrix(1 0 0 1 540 540) matrix(0.07 0 0 -0.07 123.87 19.24) translate(-4699.28, -2666.19)" vector-effect="non-scaling-stroke"/></g><g><path style="stroke:none;stroke-width:1;stroke-dasharray:none;stroke-linecap:butt;stroke-dashoffset:0;stroke-linejoin:miter;stroke-miterlimit:4;fill:#000;fill-rule:nonzero;opacity:1" stroke-linecap="round" d="M 4953 2694 C 4959 2685 4944 2672 4920 2666 C 4891 2658 4885 2649 4900 2640 C 4919 2628 4918 2614 4899 2578 C 4881 2544 4880 2530 4897 2524 C 4910 2520 4920 2484 4920 2445 C 4920 2354 4937 2368 4943 2464 C 4946 2505 4953 2537 4959 2536 C 4999 2533 5020 2544 5020 2570 C 5020 2587 5011 2600 5000 2600 C 4969 2600 4976 2643 5013 2683 C 5044 2718 5043 2720 4995 2716 C 4966 2713 4948 2704 4953 2694 z" transform="matrix(1 0 0 1 540 540) matrix(0.07 0 0 -0.07 141.22 26.94) translate(-4959.45, -2550.66)" vector-effect="non-scaling-stroke"/></g><g><path style="stroke:none;stroke-width:1;stroke-dasharray:none;stroke-linecap:butt;stroke-dashoffset:0;stroke-linejoin:miter;stroke-miterlimit:4;fill:#000;fill-rule:nonzero;opacity:1" stroke-linecap="round" d="M 4519 2558 C 4494 2543 4494 2537 4518 2522 C 4551 2501 4593 2513 4606 2547 C 4618 2577 4559 2584 4519 2558 z" transform="matrix(1 0 0 1 540 540) matrix(0.07 0 0 -0.07 114.18 27.47) translate(-4553.85, -2542.81)" vector-effect="non-scaling-stroke"/></g><g><path style="stroke:none;stroke-width:1;stroke-dasharray:none;stroke-linecap:butt;stroke-dashoffset:0;stroke-linejoin:miter;stroke-miterlimit:4;fill:#000;fill-rule:nonzero;opacity:1" stroke-linecap="round" d="M 4957 2425 C 4952 2301 4945 2252 4929 2212 C 4918 2186 4920 2178 4935 2187 C 4948 2195 4967 2185 4978 2165 C 4997 2134 4999 2135 4999 2176 C 5000 2201 5014 2226 5030 2233 C 5073 2249 5067 2346 5018 2429 C 4966 2518 4961 2518 4957 2425 z" transform="matrix(1 0 0 1 540 540) matrix(0.07 0 0 -0.07 143.28 42.37) translate(-4990.42, -2319.29)" vector-effect="non-scaling-stroke"/></g><g><path style="stroke:none;stroke-width:1;stroke-dasharray:none;stroke-linecap:butt;stroke-dashoffset:0;stroke-linejoin:miter;stroke-miterlimit:4;fill:#000;fill-rule:nonzero;opacity:1" stroke-linecap="round" d="M 4505 2416 C 4510 2386 4504 2358 4492 2354 C 4476 2348 4477 2328 4494 2282 C 4516 2222 4482 2180 4409 2180 C 4405 2180 4395 2225 4388 2280 C 4380 2344 4365 2380 4348 2380 C 4285 2380 4297 2206 4370 2067 C 4413 1986 4409 1900 4364 1900 C 4344 1900 4317 1889 4304 1876 C 4285 1857 4280 1858 4280 1877 C 4280 1921 4321 1982 4342 1969 C 4368 1953 4344 2056 4308 2114 C 4292 2139 4280 2177 4280 2200 C 4280 2224 4272 2237 4262 2231 C 4235 2214 4223 2122 4248 2112 C 4262 2106 4262 2103 4245 2102 C 4228 2100 4226 2086 4239 2054 C 4248 2028 4254 1972 4251 1929 C 4249 1885 4256 1832 4267 1810 C 4279 1788 4290 1758 4293 1742 C 4295 1727 4308 1705 4321 1692 C 4339 1675 4340 1681 4321 1720 C 4299 1767 4300 1768 4329 1731 C 4346 1710 4360 1678 4361 1661 C 4361 1644 4374 1599 4388 1560 C 4448 1401 4447 1405 4404 1455 L 4364 1499 L 4332 1450 C 4289 1384 4291 1370 4352 1343 C 4394 1324 4402 1309 4392 1271 C 4385 1244 4389 1217 4400 1210 C 4489 1155 4373 1009 4252 1024 C 4214 1028 4187 1025 4193 1016 C 4210 988 4329 999 4376 1032 C 4401 1049 4435 1059 4451 1052 C 4487 1039 4489 1083 4456 1173 C 4435 1232 4437 1246 4475 1297 C 4500 1331 4508 1355 4494 1354 C 4481 1354 4439 1356 4400 1359 L 4330 1365 L 4390 1379 C 4423 1386 4468 1387 4490 1379 C 4512 1372 4564 1370 4606 1375 C 4660 1382 4693 1375 4721 1349 C 4742 1330 4760 1323 4760 1335 C 4760 1347 4749 1362 4735 1368 C 4721 1374 4766 1377 4835 1376 C 5001 1372 5017 1391 4952 1513 C 4892 1625 4883 1720 4932 1720 C 4956 1720 4961 1732 4953 1765 C 4946 1790 4940 1824 4940 1840 C 4939 1863 4932 1861 4909 1831 C 4880 1793 4880 1793 4880 1831 C 4879 1910 4848 1917 4845 1839 C 4841 1733 4801 1661 4801 1758 C 4800 1856 4776 1819 4767 1706 C 4762 1653 4758 1597 4756 1580 C 4754 1564 4760 1520 4769 1482 C 4779 1440 4777 1419 4765 1427 C 4744 1440 4725 1510 4691 1693 C 4682 1739 4664 1762 4622 1776 C 4583 1790 4562 1814 4554 1853 C 4548 1885 4524 1932 4501 1958 C 4449 2019 4449 2027 4502 1999 C 4537 1980 4542 1981 4528 2003 C 4503 2043 4496 2200 4520 2200 C 4531 2200 4540 2181 4540 2158 C 4540 2135 4555 2091 4573 2060 C 4594 2024 4600 1991 4590 1967 C 4568 1917 4577 1877 4617 1848 C 4664 1813 4669 1828 4628 1890 C 4599 1935 4598 1946 4621 1961 C 4657 1983 4679 1948 4680 1867 C 4680 1832 4692 1800 4708 1794 C 4748 1778 4760 1797 4758 1868 L 4755 1930 L 4739 1870 C 4722 1811 4722 1811 4728 1880 C 4732 1919 4726 1967 4715 1988 C 4704 2009 4696 2062 4696 2105 C 4697 2180 4696 2182 4661 2151 C 4626 2120 4623 2125 4590 2264 C 4555 2409 4484 2537 4505 2416 z M 4465 1826 C 4436 1815 4431 1780 4459 1780 C 4522 1780 4581 1739 4556 1712 C 4537 1692 4526 1691 4515 1707 C 4507 1720 4500 1685 4500 1630 C 4500 1575 4491 1517 4481 1501 C 4470 1483 4467 1515 4474 1586 C 4482 1673 4477 1712 4451 1751 C 4419 1800 4443 1886 4478 1848 C 4485 1840 4479 1831 4465 1826 z M 4637 1662 C 4657 1650 4658 1641 4641 1631 C 4624 1620 4628 1609 4652 1591 C 4679 1571 4681 1563 4660 1550 C 4643 1539 4639 1542 4648 1557 C 4657 1571 4649 1580 4630 1580 C 4606 1580 4601 1591 4611 1623 C 4620 1651 4617 1661 4602 1651 C 4590 1644 4580 1647 4580 1659 C 4580 1684 4600 1685 4637 1662 z M 4560 1582 C 4560 1561 4568 1540 4579 1537 C 4589 1533 4604 1504 4611 1472 C 4622 1431 4619 1418 4603 1428 C 4590 1436 4580 1454 4580 1469 C 4580 1483 4567 1506 4550 1520 C 4516 1548 4509 1620 4540 1620 C 4551 1620 4560 1603 4560 1582 z" transform="matrix(1 0 0 1 540 540) matrix(0.07 0 0 -0.07 116.58 81.51) translate(-4589.84, -1732.1)" vector-effect="non-scaling-stroke"/></g><g><path style="stroke:none;stroke-width:1;stroke-dasharray:none;stroke-linecap:butt;stroke-dashoffset:0;stroke-linejoin:miter;stroke-miterlimit:4;fill:#000;fill-rule:nonzero;opacity:1" stroke-linecap="round" d="M 4700 2420 C 4700 2409 4708 2400 4717 2400 C 4732 2400 4772 2079 4766 2005 C 4765 1991 4773 1980 4784 1980 C 4794 1980 4797 1962 4790 1940 C 4783 1917 4786 1900 4799 1900 C 4811 1900 4821 1948 4823 2015 C 4825 2109 4827 2118 4838 2062 C 4849 2001 4853 1997 4877 2027 C 4941 2103 4977 2024 4915 1945 C 4902 1929 4902 1920 4914 1920 C 4942 1920 4980 2012 4980 2076 C 4979 2115 4974 2122 4962 2102 C 4940 2068 4898 2091 4913 2130 C 4920 2148 4905 2168 4872 2183 C 4843 2196 4820 2221 4821 2238 C 4821 2267 4823 2267 4846 2238 C 4877 2197 4920 2212 4920 2264 C 4920 2297 4910 2303 4870 2295 C 4826 2287 4818 2295 4799 2363 C 4780 2434 4700 2480 4700 2420 z" transform="matrix(1 0 0 1 540 540) matrix(0.07 0 0 -0.07 133.25 52.06) translate(-4840, -2173.85)" vector-effect="non-scaling-stroke"/></g><g><path style="stroke:none;stroke-width:1;stroke-dasharray:none;stroke-linecap:butt;stroke-dashoffset:0;stroke-linejoin:miter;stroke-miterlimit:4;fill:#000;fill-rule:nonzero;opacity:1" stroke-linecap="round" d="M 4620 2231 C 4620 2215 4628 2197 4638 2191 C 4660 2178 4705 2229 4686 2247 C 4663 2271 4620 2261 4620 2231 z" transform="matrix(1 0 0 1 540 540) matrix(0.07 0 0 -0.07 120.94 48.68) translate(-4655.28, -2224.65)" vector-effect="non-scaling-stroke"/></g><g><path style="stroke:none;stroke-width:1;stroke-dasharray:none;stroke-linecap:butt;stroke-dashoffset:0;stroke-linejoin:miter;stroke-miterlimit:4;fill:#000;fill-rule:nonzero;opacity:1" stroke-linecap="round" d="M 4940 1612 C 4940 1604 4964 1566 4992 1529 C 5025 1486 5041 1445 5034 1420 C 5026 1389 5033 1380 5067 1382 C 5091 1382 5099 1388 5085 1393 C 5071 1399 5060 1418 5059 1437 C 5059 1455 5032 1505 4999 1549 C 4967 1592 4940 1620 4940 1612 z" transform="matrix(1 0 0 1 540 540) matrix(0.07 0 0 -0.07 144.98 97.15) translate(-5015.94, -1497.55)" vector-effect="non-scaling-stroke"/></g><g><path style="stroke:none;stroke-width:1;stroke-dasharray:none;stroke-linecap:butt;stroke-dashoffset:0;stroke-linejoin:miter;stroke-miterlimit:4;fill:#000;fill-rule:nonzero;opacity:1" stroke-linecap="round" d="M 4240 1289 C 4240 1251 4249 1239 4273 1244 C 4324 1253 4328 1294 4281 1319 C 4244 1339 4240 1336 4240 1289 z" transform="matrix(1 0 0 1 540 540) matrix(0.07 0 0 -0.07 95.72 111.2) translate(-4276.94, -1286.81)" vector-effect="non-scaling-stroke"/></g><g><path style="stroke:none;stroke-width:1;stroke-dasharray:none;stroke-linecap:butt;stroke-dashoffset:0;stroke-linejoin:miter;stroke-miterlimit:4;fill:#000;fill-rule:nonzero;opacity:1" stroke-linecap="round" d="M 4574 1327 C 4545 1298 4559 1099 4591 1087 C 4638 1069 4649 1093 4650 1216 C 4650 1325 4618 1372 4574 1327 z" transform="matrix(1 0 0 1 540 540) matrix(0.07 0 0 -0.07 117.53 116.13) translate(-4604.1, -1212.83)" vector-effect="non-scaling-stroke"/></g><g><path style="stroke:none;stroke-width:1;stroke-dasharray:none;stroke-linecap:butt;stroke-dashoffset:0;stroke-linejoin:miter;stroke-miterlimit:4;fill:#000;fill-rule:nonzero;opacity:1" stroke-linecap="round" d="M 4240 1140 C 4240 1048 4291 1026 4312 1110 C 4328 1173 4310 1220 4271 1220 C 4248 1220 4240 1199 4240 1140 z" transform="matrix(1 0 0 1 540 540) matrix(0.07 0 0 -0.07 95.85 121.07) translate(-4278.91, -1138.79)" vector-effect="non-scaling-stroke"/></g><g><path style="stroke:none;stroke-width:1;stroke-dasharray:none;stroke-linecap:butt;stroke-dashoffset:0;stroke-linejoin:miter;stroke-miterlimit:4;fill:#000;fill-rule:nonzero;opacity:1" stroke-linecap="round" d="M 1692 3497 C 1698 3486 1688 3460 1669 3439 C 1649 3417 1640 3394 1647 3387 C 1654 3379 1660 3384 1660 3398 C 1660 3411 1669 3417 1680 3410 C 1691 3403 1700 3408 1700 3421 C 1700 3435 1717 3440 1740 3434 C 1762 3428 1785 3432 1791 3442 C 1797 3452 1792 3460 1780 3460 C 1768 3460 1763 3469 1770 3480 C 1777 3491 1775 3501 1766 3502 C 1757 3502 1734 3506 1715 3510 C 1696 3513 1685 3508 1692 3497 z" transform="matrix(1 0 0 1 540 540) matrix(0.07 0 0 -0.07 -74.81 -32.82) translate(-1719.1, -3447.02)" vector-effect="non-scaling-stroke"/></g><g><path style="stroke:none;stroke-width:1;stroke-dasharray:none;stroke-linecap:butt;stroke-dashoffset:0;stroke-linejoin:miter;stroke-miterlimit:4;fill:#000;fill-rule:nonzero;opacity:1" stroke-linecap="round" d="M 2288 3052 C 2282 3035 2285 2996 2295 2966 L 2314 2910 L 2323 2986 C 2332 3064 2309 3107 2288 3052 z" transform="matrix(1 0 0 1 540 540) matrix(0.07 0 0 -0.07 -35.75 -2.57) translate(-2304.96, -2993.39)" vector-effect="non-scaling-stroke"/></g><g><path style="stroke:none;stroke-width:1;stroke-dasharray:none;stroke-linecap:butt;stroke-dashoffset:0;stroke-linejoin:miter;stroke-miterlimit:4;fill:#000;fill-rule:nonzero;opacity:1" stroke-linecap="round" d="M 2101 1801 C 2074 1751 2075 1740 2107 1740 C 2122 1740 2144 1763 2156 1790 C 2185 1853 2134 1863 2101 1801 z" transform="matrix(1 0 0 1 540 540) matrix(0.07 0 0 -0.07 -47.87 77.56) translate(-2123.2, -1791.35)" vector-effect="non-scaling-stroke"/></g><g><path style="stroke:none;stroke-width:1;stroke-dasharray:none;stroke-linecap:butt;stroke-dashoffset:0;stroke-linejoin:miter;stroke-miterlimit:4;fill:#000;fill-rule:nonzero;opacity:1" stroke-linecap="round" d="M 3173 1625 C 3130 1595 3106 1568 3120 1563 C 3133 1559 3173 1583 3207 1618 C 3282 1693 3275 1694 3173 1625 z" transform="matrix(1 0 0 1 540 540) matrix(0.07 0 0 -0.07 23.03 89.05) translate(-3186.64, -1619.05)" vector-effect="non-scaling-stroke"/></g><g><path style="stroke:none;stroke-width:1;stroke-dasharray:none;stroke-linecap:butt;stroke-dashoffset:0;stroke-linejoin:miter;stroke-miterlimit:4;fill:#000;fill-rule:nonzero;opacity:1" stroke-linecap="round" d="M 3190 1559 C 3054 1492 3117 1501 3270 1571 C 3325 1596 3357 1617 3340 1618 C 3324 1618 3256 1592 3190 1559 z" transform="matrix(1 0 0 1 540 540) matrix(0.07 0 0 -0.07 25.91 92.61) translate(-3229.88, -1565.66)" vector-effect="non-scaling-stroke"/></g><g><path style="stroke:none;stroke-width:1;stroke-dasharray:none;stroke-linecap:butt;stroke-dashoffset:0;stroke-linejoin:miter;stroke-miterlimit:4;fill:#000;fill-rule:nonzero;opacity:1" stroke-linecap="round" d="M 2860 440 C 2900 362 2940 334 2940 385 C 2940 421 2875 509 2845 515 C 2827 519 2832 494 2860 440 z" transform="matrix(1 0 0 1 540 540) matrix(0.07 0 0 -0.07 3.07 167.83) translate(-2887.22, -437.32)" vector-effect="non-scaling-stroke"/></g><g><path style="stroke:none;stroke-width:1;stroke-dasharray:none;stroke-linecap:butt;stroke-dashoffset:0;stroke-linejoin:miter;stroke-miterlimit:4;fill:#000;fill-rule:nonzero;opacity:1" stroke-linecap="round" d="M 3300 1364 C 3300 1343 3294 1296 3287 1260 C 3275 1198 3276 1196 3318 1219 C 3353 1238 3361 1257 3356 1315 C 3350 1390 3300 1434 3300 1364 z" transform="matrix(1 0 0 1 540 540) matrix(0.07 0 0 -0.07 31.84 110.16) translate(-3318.86, -1302.34)" vector-effect="non-scaling-stroke"/></g><g><path style="stroke:none;stroke-width:1;stroke-dasharray:none;stroke-linecap:butt;stroke-dashoffset:0;stroke-linejoin:miter;stroke-miterlimit:4;fill:#000;fill-rule:nonzero;opacity:1" stroke-linecap="round" d="M 1167 1312 C 1174 1293 1194 1229 1212 1168 C 1251 1031 1269 1041 1251 1189 C 1241 1272 1227 1306 1196 1322 C 1160 1341 1156 1340 1167 1312 z" transform="matrix(1 0 0 1 540 540) matrix(0.07 0 0 -0.07 -108.76 116.78) translate(-1209.8, -1203.09)" vector-effect="non-scaling-stroke"/></g><g><path style="stroke:none;stroke-width:1;stroke-dasharray:none;stroke-linecap:butt;stroke-dashoffset:0;stroke-linejoin:miter;stroke-miterlimit:4;fill:#000;fill-rule:nonzero;opacity:1" stroke-linecap="round" d="M 422 4409 C 482 4321 904 3800 915 3800 C 921 3800 913 3816 896 3835 C 880 3854 774 3987 661 4130 C 462 4381 357 4504 422 4409 z" transform="matrix(1 0 0 1 540 540) matrix(0.07 0 0 -0.07 -145.42 -77.72) translate(-659.89, -4120.52)" vector-effect="non-scaling-stroke"/></g><g><path style="stroke:none;stroke-width:1;stroke-dasharray:none;stroke-linecap:butt;stroke-dashoffset:0;stroke-linejoin:miter;stroke-miterlimit:4;fill:#000;fill-rule:nonzero;opacity:1" stroke-linecap="round" d="M 1052 3605 C 1402 3154 1604 2900 1615 2900 C 1621 2900 1613 2916 1596 2935 C 1580 2954 1425 3152 1252 3375 C 1079 3598 933 3780 927 3780 C 921 3780 978 3701 1052 3605 z" transform="matrix(1 0 0 1 540 540) matrix(0.07 0 0 -0.07 -104.63 -25.68) translate(-1271.77, -3340)" vector-effect="non-scaling-stroke"/></g><g><path style="stroke:none;stroke-width:1;stroke-dasharray:none;stroke-linecap:butt;stroke-dashoffset:0;stroke-linejoin:miter;stroke-miterlimit:4;fill:#000;fill-rule:nonzero;opacity:1" stroke-linecap="round" d="M 1738 2737 C 1838 2607 1861 2564 1819 2591 C 1784 2612 1820 2454 1856 2425 C 1974 2332 2021 2453 1911 2566 C 1866 2612 1786 2700 1733 2760 L 1636 2870 L 1738 2737 z" transform="matrix(1 0 0 1 540 540) matrix(0.07 0 0 -0.07 -69.11 21.59) translate(-1804.58, -2630.95)" vector-effect="non-scaling-stroke"/></g><g><path style="stroke:none;stroke-width:1;stroke-dasharray:none;stroke-linecap:butt;stroke-dashoffset:0;stroke-linejoin:miter;stroke-miterlimit:4;fill:#000;fill-rule:nonzero;opacity:1" stroke-linecap="round" d="M 5235 1006 C 5271 1001 5329 1001 5365 1006 C 5401 1010 5372 1014 5300 1014 C 5229 1014 5199 1010 5235 1006 z" transform="matrix(1 0 0 1 540 540) matrix(0.07 0 0 -0.07 163.93 129.78) translate(-5300.09, -1008.13)" vector-effect="non-scaling-stroke"/></g></g></g></svg>